<svg width="54" height="54" viewBox="0 0 54 54" fill="none" xmlns="http://www.w3.org/2000/svg">
<path d="M37.404 31.32L43.5173 37.431L26.973 53.9752L10.431 37.4332L16.5443 31.32L26.9753 41.805L37.404 31.32ZM47.8372 20.889L54 27L47.8913 33.111L41.778 27L47.8372 20.889ZM26.9753 20.889L33.0863 26.946L26.973 33.0592L20.862 27L26.973 20.8912L26.9753 20.889ZM6.111 20.889L12.1725 27L6.1155 33.057L0 27L6.111 20.889ZM26.9775 0.0224609L43.5195 16.515L37.4062 22.6237L26.9753 12.1927L16.5465 22.6777L10.4333 16.5667L26.9753 0.0247109L26.9775 0.0224609Z" fill="#2D3F2F"/>
</svg>
