<svg width="60" height="48" viewBox="0 0 60 48" fill="none" xmlns="http://www.w3.org/2000/svg">
<path d="M50.3024 40.0724C50.3024 40.7811 49.8243 41.2911 49.1362 41.2911C48.4274 41.2911 47.9699 40.7493 47.9699 40.0724C47.9699 39.3955 48.4274 38.8536 49.1362 38.8536C49.8243 38.8536 50.3024 39.3955 50.3024 40.0724ZM17.9268 38.8536C17.1862 38.8536 16.7605 39.3955 16.7605 40.0724C16.7605 40.7493 17.188 41.2911 17.9268 41.2911C18.6037 41.2911 19.0612 40.7811 19.0612 40.0724C19.0499 39.3955 18.6037 38.8536 17.9268 38.8536ZM30.1668 38.8236C29.6043 38.8236 29.2593 39.1874 29.1768 39.7293H31.1662C31.0724 39.1349 30.7087 38.8236 30.1668 38.8236ZM41.3962 38.8536C40.6874 38.8536 40.2618 39.3955 40.2618 40.0724C40.2618 40.7493 40.6893 41.2911 41.3962 41.2911C42.1049 41.2911 42.5624 40.7811 42.5624 40.0724C42.5624 39.3955 42.103 38.8536 41.3962 38.8536ZM52.4268 41.5724C52.4268 41.6043 52.4587 41.6249 52.4587 41.6868C52.4587 41.7186 52.4268 41.7393 52.4268 41.8011C52.3949 41.833 52.3949 41.8536 52.3743 41.8836C52.3424 41.9155 52.3218 41.9361 52.2599 41.9361C52.228 41.968 52.2074 41.968 52.1455 41.968C52.1137 41.968 52.093 41.968 52.0312 41.9361C51.9993 41.9361 51.9787 41.9043 51.9487 41.8836C51.9168 41.8518 51.8962 41.8311 51.8962 41.8011C51.8643 41.7486 51.8643 41.7186 51.8643 41.6868C51.8643 41.6343 51.8643 41.6043 51.8962 41.5724C51.8962 41.5199 51.928 41.4899 51.9487 41.458C51.9805 41.4261 52.0012 41.4261 52.0312 41.4055C52.0837 41.3736 52.1137 41.3736 52.1455 41.3736C52.198 41.3736 52.228 41.3736 52.2599 41.4055C52.3124 41.4355 52.3424 41.4355 52.3743 41.458C52.4062 41.4805 52.3949 41.5199 52.4268 41.5724ZM52.198 41.7186C52.2505 41.7186 52.2505 41.6868 52.2805 41.6868C52.3124 41.6549 52.3124 41.6343 52.3124 41.6043C52.3124 41.5743 52.3124 41.5518 52.2805 41.5218C52.2505 41.5218 52.228 41.4899 52.1662 41.4899H51.9993V41.8536H52.0818V41.7074H52.1137L52.228 41.8536H52.3105L52.198 41.7186ZM59.9999 5.77113V42.4386C59.9994 43.7647 59.4724 45.0364 58.5347 45.9741C57.597 46.9117 56.3254 47.4388 54.9993 47.4393H4.99867C3.67258 47.4388 2.40094 46.9117 1.46324 45.9741C0.525553 45.0364 -0.00145618 43.7647 -0.00195312 42.4386V5.77113C-0.00145618 4.44504 0.525553 3.1734 1.46324 2.23571C2.40094 1.29801 3.67258 0.771005 4.99867 0.770508H54.9993C56.3254 0.771005 57.597 1.29801 58.5347 2.23571C59.4724 3.1734 59.9994 4.44504 59.9999 5.77113ZM6.66742 20.3118C6.66742 28.2805 13.1362 34.738 21.0937 34.738C23.9276 34.7299 26.6974 33.8938 29.0624 32.3324C21.4687 26.1561 21.5212 14.4993 29.0624 8.32113C26.6997 6.75482 23.9284 5.91821 21.0937 5.91551C13.1362 5.90613 6.66742 12.373 6.66742 20.3118ZM29.9999 31.6461C37.3443 25.9161 37.3124 14.7505 29.9999 8.99051C22.6874 14.7505 22.6555 25.9274 29.9999 31.6461ZM15.1762 39.5943C15.1762 38.6886 14.5818 38.0943 13.6443 38.0624C13.1643 38.0624 12.6543 38.2086 12.3112 38.7393C12.0618 38.3118 11.6343 38.0624 11.0399 38.0624C10.8239 38.0591 10.6104 38.1086 10.4179 38.2066C10.2255 38.3047 10.0599 38.4482 9.93555 38.6249V38.1674H9.08242V41.9905H9.93555C9.93555 40.0218 9.67492 38.8443 10.873 38.8443C11.9362 38.8443 11.728 39.9074 11.728 41.9905H12.5512C12.5512 40.0836 12.2905 38.8443 13.4887 38.8443C14.5518 38.8443 14.3418 39.8868 14.3418 41.9905H15.1968V39.5943H15.1762ZM19.8543 38.1674H19.0312V38.6249C18.8855 38.4431 18.6995 38.2977 18.488 38.2001C18.2765 38.1025 18.0453 38.0553 17.8124 38.0624C16.7399 38.0624 15.9168 38.9174 15.9168 40.0724C15.9168 41.2386 16.7399 42.0824 17.8124 42.0824C18.3543 42.0824 18.7499 41.8836 19.0312 41.5199V41.9999H19.8543V38.1674ZM24.073 40.8336C24.073 39.2718 21.688 39.9786 21.688 39.2493C21.688 38.6549 22.9274 38.7505 23.6155 39.1349L23.9587 38.458C22.9799 37.8224 20.8124 37.8336 20.8124 39.313C20.8124 40.8018 23.1974 40.1774 23.1974 40.8749C23.1974 41.5311 21.7912 41.4786 21.0412 40.9574L20.6774 41.6136C21.8437 42.4049 24.073 42.238 24.073 40.8318V40.8336ZM27.7612 41.8011L27.5324 41.0924C27.1368 41.3099 26.2612 41.5499 26.2612 40.6649V38.9361H27.6262V38.1655H26.2612V36.9993H25.4062V38.1655H24.6149V38.9268H25.4062V40.6668C25.4062 42.5005 27.208 42.1668 27.7612 41.8011ZM29.1449 40.4061H32.0099C32.0099 38.7186 31.2393 38.0511 30.1968 38.0511C29.0924 38.0511 28.3012 38.8743 28.3012 40.0611C28.3012 42.1968 30.6562 42.5511 31.8224 41.5405L31.4268 40.9161C30.6149 41.5836 29.3849 41.5199 29.1449 40.4061ZM35.3024 38.1674C34.8243 37.9593 34.0949 37.9799 33.7199 38.6249V38.1674H32.8649V41.9905H33.7199V39.8343C33.7199 38.6249 34.7099 38.7824 35.053 38.9586L35.3024 38.1674ZM36.4068 40.0724C36.4068 38.8836 37.6162 38.4993 38.563 39.1968L38.9587 38.5199C37.7493 37.573 35.5518 38.0924 35.5518 40.0818C35.5518 42.1443 37.8843 42.5605 38.9587 41.6436L38.563 40.9668C37.6049 41.6436 36.4068 41.2386 36.4068 40.0705V40.0724ZM43.3537 38.1674H42.4987V38.6249C41.6343 37.4793 39.3843 38.1261 39.3843 40.0724C39.3843 42.073 41.7168 42.6449 42.4987 41.5199V41.9999H43.3537V38.1674ZM46.8637 38.1674C46.6143 38.0418 45.718 37.8655 45.2812 38.6249V38.1674H44.458V41.9905H45.2812V39.8343C45.2812 38.6886 46.2187 38.7618 46.6143 38.9586L46.8637 38.1674ZM51.0618 36.6149H50.2387V38.6249C49.3837 37.4905 47.1243 38.0943 47.1243 40.0724C47.1243 42.0936 49.468 42.6336 50.2387 41.5199V41.9999H51.0618V36.6149ZM51.8549 28.7924V29.2724H51.9374V28.7924H52.1343V28.7099H51.6543V28.7924H51.8549ZM52.5412 41.6868C52.5412 41.6343 52.5412 41.5724 52.5112 41.5199C52.4793 41.488 52.4587 41.4374 52.4287 41.4055C52.3987 41.3736 52.3462 41.353 52.3143 41.323C52.2618 41.323 52.1999 41.2911 52.1474 41.2911C52.1155 41.2911 52.0649 41.323 52.0012 41.323C51.9601 41.3461 51.9217 41.3738 51.8868 41.4055C51.8343 41.4355 51.8043 41.488 51.8043 41.5199C51.7724 41.5724 51.7724 41.6343 51.7724 41.6868C51.7724 41.7186 51.7724 41.7693 51.8043 41.833C51.8043 41.8649 51.8362 41.9155 51.8868 41.9474C51.9184 41.9829 51.9575 42.011 52.0012 42.0299C52.0537 42.0599 52.1155 42.0599 52.1474 42.0599C52.1999 42.0599 52.2618 42.0599 52.3143 42.0299C52.3462 41.998 52.3968 41.9774 52.4287 41.9474C52.4605 41.9174 52.4812 41.8649 52.5112 41.833C52.5412 41.7711 52.5412 41.7186 52.5412 41.6868ZM52.8749 28.6986H52.7287L52.5618 29.0624L52.3949 28.6986H52.2487V29.2611H52.3312V28.8336L52.498 29.1974H52.6124L52.7587 28.8336V29.2611H52.873L52.8749 28.6986ZM53.3324 20.3118C53.3324 12.373 46.8637 5.90613 38.9062 5.90613C36.0721 5.91324 33.302 6.74947 30.9374 8.31176C38.4487 14.4899 38.563 26.1768 30.9374 32.323C33.3014 33.8866 36.0719 34.7229 38.9062 34.7286C46.8637 34.7399 53.3324 28.2805 53.3324 20.3118Z" fill="#2D3F2F"/>
</svg>
