<svg width="60" height="48" viewBox="0 0 60 48" fill="none" xmlns="http://www.w3.org/2000/svg">
<path d="M48.9693 21.4274C48.9693 21.4274 49.7605 25.303 49.9387 26.1149H46.4605L48.1274 21.583C48.1068 21.6149 48.4705 20.6343 48.6787 20.0305L48.9693 21.4274ZM59.9999 5.66615V42.3336C59.9994 43.6597 59.4724 44.9314 58.5347 45.8691C57.597 46.8068 56.3254 47.3338 54.9993 47.3343H4.99867C3.67258 47.3338 2.40094 46.8068 1.46324 45.8691C0.525553 44.9314 -0.00145618 43.6597 -0.00195312 42.3336V5.66615C-0.00145618 4.34006 0.525553 3.06842 1.46324 2.13073C2.40094 1.19303 3.67258 0.666024 4.99867 0.665527H54.9993C56.3254 0.666024 57.597 1.19303 58.5347 2.13073C59.4724 3.06842 59.9994 4.34006 59.9999 5.66615ZM15.8849 31.8336L22.468 15.6674H18.0412L13.948 26.7093L13.4999 24.4705L12.0412 17.0324C11.8012 16.0012 11.0624 15.7087 10.1455 15.6674H3.4068L3.33367 15.9899C4.87694 16.3685 6.35728 16.9685 7.72867 17.7712L11.458 31.8336H15.8849ZM25.7193 31.8543L28.3443 15.6674H24.1574L21.5437 31.8543H25.7193ZM40.2918 26.563C40.3124 24.7199 39.1874 23.3137 36.7818 22.1568C35.3137 21.4162 34.4174 20.9174 34.4174 20.1562C34.438 19.468 35.1787 18.7593 36.823 18.7593C37.8941 18.7291 38.9583 18.9392 39.9374 19.3743L40.3124 19.5505L40.8862 16.0499C39.6892 15.5917 38.4179 15.3584 37.1362 15.3618C32.9999 15.3618 30.0937 17.5705 30.073 20.7149C30.0412 23.038 32.1562 24.3299 33.7405 25.1099C35.3549 25.9011 35.908 26.4224 35.908 27.1199C35.8874 28.2036 34.5955 28.7024 33.3974 28.7024C31.7305 28.7024 30.8343 28.4418 29.4693 27.838L28.918 27.5774L28.3349 31.213C29.3137 31.6611 31.1268 32.0568 33.0018 32.0774C37.3968 32.0868 40.2618 29.9099 40.2937 26.5574L40.2918 26.563ZM54.9993 31.8543L51.6243 15.6674H48.3843C47.3849 15.6674 46.6237 15.9599 46.1962 17.0118L39.9768 31.8562H44.3718C44.3718 31.8562 45.0899 29.8555 45.2474 29.4299H50.623C50.7487 30.0037 51.1237 31.8562 51.1237 31.8562L54.9993 31.8543Z" fill="#2D3F2F"/>
</svg>
