<svg width="75" height="16" viewBox="0 0 75 16" fill="none" xmlns="http://www.w3.org/2000/svg">
<path d="M74 7.09277C74.5523 7.09277 75 7.54049 75 8.09277C75 8.64506 74.5523 9.09277 74 9.09277V7.09277ZM0.292892 8.79988C-0.0976334 8.40936 -0.0976334 7.77619 0.292892 7.38567L6.65685 1.02171C7.04738 0.631181 7.68054 0.631181 8.07107 1.02171C8.46159 1.41223 8.46159 2.04539 8.07107 2.43592L2.41422 8.09277L8.07107 13.7496C8.46159 14.1402 8.46159 14.7733 8.07107 15.1638C7.68054 15.5544 7.04738 15.5544 6.65685 15.1638L0.292892 8.79988ZM74 9.09277L1 9.09277V7.09277L74 7.09277V9.09277Z" fill="#E59500"/>
</svg>
