<svg width="245" height="245" viewBox="0 0 245 245" fill="none" xmlns="http://www.w3.org/2000/svg">
<rect x="1.5" y="1.5" width="242" height="242" rx="121" stroke="#2D3F2F" stroke-width="3"/>
<path d="M47.0922 110.96H50.0322C50.2522 111.9 50.7222 112.59 51.4422 113.03C52.1822 113.45 53.2722 113.66 54.7122 113.66C56.0722 113.66 57.0722 113.48 57.7122 113.12C58.3522 112.74 58.6722 112.13 58.6722 111.29C58.6722 110.55 58.4222 110.02 57.9222 109.7C57.4422 109.36 56.6322 109.19 55.4922 109.19H52.5522V106.97H55.3122C56.3922 106.97 57.1722 106.81 57.6522 106.49C58.1322 106.15 58.3722 105.64 58.3722 104.96C58.3722 104.18 58.0622 103.62 57.4422 103.28C56.8422 102.92 55.8922 102.74 54.5922 102.74C53.1722 102.74 52.1122 102.95 51.4122 103.37C50.7122 103.79 50.2622 104.48 50.0622 105.44H47.0922C47.3522 103.58 48.0722 102.24 49.2522 101.42C50.4522 100.58 52.2722 100.16 54.7122 100.16C56.9922 100.16 58.6622 100.52 59.7222 101.24C60.7822 101.94 61.3122 103.07 61.3122 104.63C61.3122 106.27 60.6722 107.4 59.3922 108.02C60.8722 108.6 61.6122 109.81 61.6122 111.65C61.6122 113.25 61.0622 114.42 59.9622 115.16C58.8822 115.88 57.1722 116.24 54.8322 116.24C52.3322 116.24 50.4722 115.83 49.2522 115.01C48.0522 114.17 47.3322 112.82 47.0922 110.96ZM70.6766 116.24C68.5966 116.24 67.0766 115.87 66.1166 115.13C65.1566 114.39 64.6766 113.2 64.6766 111.56C64.6766 109.86 65.2066 108.65 66.2666 107.93C67.3466 107.19 69.0766 106.82 71.4566 106.82H76.7666C76.7666 105.4 76.4066 104.37 75.6866 103.73C74.9666 103.07 73.8166 102.74 72.2366 102.74C70.9766 102.74 70.0066 102.95 69.3266 103.37C68.6466 103.77 68.1866 104.42 67.9466 105.32H65.0366C65.3166 103.52 66.0366 102.21 67.1966 101.39C68.3566 100.57 70.0766 100.16 72.3566 100.16C74.9166 100.16 76.7766 100.69 77.9366 101.75C79.1166 102.79 79.7066 104.46 79.7066 106.76V116H76.7666V113.99C75.5866 115.49 73.5566 116.24 70.6766 116.24ZM67.6166 111.44C67.6166 112.22 67.9166 112.79 68.5166 113.15C69.1366 113.49 70.0866 113.66 71.3666 113.66C73.0666 113.66 74.3366 113.35 75.1766 112.73C76.0366 112.11 76.5666 111.12 76.7666 109.76V109.04H72.2066C69.1466 109.04 67.6166 109.84 67.6166 111.44ZM84.0852 116V100.4H88.8552L94.4052 113.03L99.9552 100.4H104.725V116H101.785V103.04L95.9652 116H92.8152L87.0252 103.04V116H84.0852ZM110.213 102.08C111.493 100.8 113.523 100.16 116.303 100.16C119.083 100.16 121.103 100.8 122.363 102.08C123.643 103.36 124.283 105.4 124.283 108.2C124.283 111.02 123.653 113.07 122.393 114.35C121.133 115.61 119.103 116.24 116.303 116.24C113.503 116.24 111.473 115.61 110.213 114.35C108.953 113.07 108.323 111.02 108.323 108.2C108.323 105.4 108.953 103.36 110.213 102.08ZM111.263 108.2C111.263 110.04 111.663 111.38 112.463 112.22C113.263 113.06 114.543 113.48 116.303 113.48C118.063 113.48 119.343 113.06 120.143 112.22C120.943 111.38 121.343 110.04 121.343 108.2C121.343 106.34 120.943 105 120.143 104.18C119.363 103.34 118.083 102.92 116.303 102.92C114.523 102.92 113.233 103.34 112.433 104.18C111.653 105 111.263 106.34 111.263 108.2ZM127.884 116V100.4H135.864C137.844 100.4 139.284 100.73 140.184 101.39C141.084 102.05 141.534 103.11 141.534 104.57C141.534 106.15 141.024 107.26 140.004 107.9C141.504 108.54 142.254 109.8 142.254 111.68C142.254 113.2 141.794 114.3 140.874 114.98C139.954 115.66 138.464 116 136.404 116H127.884ZM136.134 109.19H130.824V113.42H136.134C137.254 113.42 138.064 113.26 138.564 112.94C139.064 112.6 139.314 112.05 139.314 111.29C139.314 110.55 139.064 110.02 138.564 109.7C138.064 109.36 137.254 109.19 136.134 109.19ZM130.824 106.97H135.504C136.604 106.97 137.394 106.81 137.874 106.49C138.354 106.17 138.594 105.66 138.594 104.96C138.594 104.28 138.344 103.78 137.844 103.46C137.364 103.14 136.594 102.98 135.534 102.98H130.824V106.97ZM148.482 116H145.902V100.4H148.842V111.29L158.292 100.4H160.872V116H157.932V105.11L148.482 116ZM179.185 103.16H172.945V116H170.005V103.16H163.765V100.4H179.185V103.16ZM184.634 116H182.054V100.4H184.994V111.29L194.444 100.4H197.024V116H194.084V105.11L184.634 116ZM52.8334 160.74H49.8934V153.24H52.0534C52.6734 152.82 53.1234 152.04 53.4034 150.9C53.7034 149.76 53.9334 147.63 54.0934 144.51L54.3034 140.4H66.9634V153.24H69.8734V160.74H66.9334V156H52.8334V160.74ZM55.5634 153.24H64.0234V143.16H57.0334L56.9734 144.75C56.7734 148.95 56.3034 151.78 55.5634 153.24ZM74.061 142.08C75.341 140.8 77.371 140.16 80.151 140.16C82.931 140.16 84.951 140.8 86.211 142.08C87.491 143.36 88.131 145.4 88.131 148.2C88.131 151.02 87.501 153.07 86.241 154.35C84.981 155.61 82.951 156.24 80.151 156.24C77.351 156.24 75.321 155.61 74.061 154.35C72.801 153.07 72.171 151.02 72.171 148.2C72.171 145.4 72.801 143.36 74.061 142.08ZM75.111 148.2C75.111 150.04 75.511 151.38 76.311 152.22C77.111 153.06 78.391 153.48 80.151 153.48C81.911 153.48 83.191 153.06 83.991 152.22C84.791 151.38 85.191 150.04 85.191 148.2C85.191 146.34 84.791 145 83.991 144.18C83.211 143.34 81.931 142.92 80.151 142.92C78.371 142.92 77.081 143.34 76.281 144.18C75.501 145 75.111 146.34 75.111 148.2ZM98.6617 156.24C95.9417 156.24 93.9617 155.61 92.7217 154.35C91.5017 153.07 90.8917 151.02 90.8917 148.2C90.8917 145.4 91.5017 143.36 92.7217 142.08C93.9617 140.8 95.9417 140.16 98.6617 140.16C101.042 140.16 102.842 140.64 104.062 141.6C105.282 142.54 106.032 144.04 106.312 146.1H103.402C103.142 145 102.632 144.2 101.872 143.7C101.132 143.18 100.082 142.92 98.7217 142.92C97.0017 142.92 95.7517 143.34 94.9717 144.18C94.2117 145 93.8317 146.34 93.8317 148.2C93.8317 150.04 94.2217 151.38 95.0017 152.22C95.7817 153.06 97.0217 153.48 98.7217 153.48C100.082 153.48 101.132 153.23 101.872 152.73C102.632 152.21 103.142 151.4 103.402 150.3H106.312C106.032 152.38 105.282 153.89 104.062 154.83C102.842 155.77 101.042 156.24 98.6617 156.24ZM123.463 143.16H117.223V156H114.283V143.16H108.043V140.4H123.463V143.16ZM131.497 156.24C129.417 156.24 127.897 155.87 126.937 155.13C125.977 154.39 125.497 153.2 125.497 151.56C125.497 149.86 126.027 148.65 127.087 147.93C128.167 147.19 129.897 146.82 132.277 146.82H137.587C137.587 145.4 137.227 144.37 136.507 143.73C135.787 143.07 134.637 142.74 133.057 142.74C131.797 142.74 130.827 142.95 130.147 143.37C129.467 143.77 129.007 144.42 128.767 145.32H125.857C126.137 143.52 126.857 142.21 128.017 141.39C129.177 140.57 130.897 140.16 133.177 140.16C135.737 140.16 137.597 140.69 138.757 141.75C139.937 142.79 140.527 144.46 140.527 146.76V156H137.587V153.99C136.407 155.49 134.377 156.24 131.497 156.24ZM128.437 151.44C128.437 152.22 128.737 152.79 129.337 153.15C129.957 153.49 130.907 153.66 132.187 153.66C133.887 153.66 135.157 153.35 135.997 152.73C136.857 152.11 137.387 151.12 137.587 149.76V149.04H133.027C129.967 149.04 128.437 149.84 128.437 151.44ZM144.906 156V140.4H152.886C154.866 140.4 156.306 140.73 157.206 141.39C158.106 142.05 158.556 143.11 158.556 144.57C158.556 146.15 158.046 147.26 157.026 147.9C158.526 148.54 159.276 149.8 159.276 151.68C159.276 153.2 158.816 154.3 157.896 154.98C156.976 155.66 155.486 156 153.426 156H144.906ZM153.156 149.19H147.846V153.42H153.156C154.276 153.42 155.086 153.26 155.586 152.94C156.086 152.6 156.336 152.05 156.336 151.29C156.336 150.55 156.086 150.02 155.586 149.7C155.086 149.36 154.276 149.19 153.156 149.19ZM147.846 146.97H152.526C153.626 146.97 154.416 146.81 154.896 146.49C155.376 146.17 155.616 145.66 155.616 144.96C155.616 144.28 155.366 143.78 154.866 143.46C154.386 143.14 153.616 142.98 152.556 142.98H147.846V146.97ZM165.863 156H162.923V140.4H165.863V146.67H168.773L173.843 140.4H177.443L171.203 148.02L177.833 156H174.203L168.773 149.43H165.863V156ZM185.714 156L179.204 140.4H182.354L187.274 152.16L192.224 140.4H195.374L185.744 163.5H182.594L185.714 156Z" fill="#2D3F2F"/>
</svg>
