<svg width="195" height="49" viewBox="0 0 195 49" fill="none" xmlns="http://www.w3.org/2000/svg">
<g filter="url(#filter0_f_133_2917)">
<path d="M195 3L24.2828 3.31598C12.5222 3.33775 3 12.8777 3 24.6382V24.6382C3 36.4296 12.5704 45.9823 24.3618 45.9605L195 45.6446" stroke="#2D3F2F" stroke-width="1.5"/>
</g>
<path d="M195 3L24.2828 3.31598C12.5222 3.33775 3 12.8777 3 24.6382V24.6382C3 36.4296 12.5704 45.9823 24.3618 45.9605L195 45.6446" stroke="#2D3F2F" stroke-width="1.5"/>
<path d="M24.2895 26.985H25.7595C25.7595 27.595 26.0145 28.04 26.5245 28.32C27.0445 28.6 27.8645 28.74 28.9845 28.74C30.0945 28.74 30.9045 28.6 31.4145 28.32C31.9345 28.04 32.1945 27.595 32.1945 26.985C32.1945 26.375 31.9695 25.935 31.5195 25.665C31.0695 25.395 30.3445 25.26 29.3445 25.26H27.3195V23.97H29.4195C30.3495 23.97 31.0195 23.845 31.4295 23.595C31.8495 23.345 32.0595 22.93 32.0595 22.35C32.0595 21.79 31.8195 21.385 31.3395 21.135C30.8595 20.885 30.0895 20.76 29.0295 20.76C27.9695 20.76 27.1945 20.89 26.7045 21.15C26.2245 21.4 25.9845 21.805 25.9845 22.365H24.5145C24.5145 21.315 24.8695 20.555 25.5795 20.085C26.2895 19.615 27.4395 19.38 29.0295 19.38C30.6195 19.38 31.7645 19.6 32.4645 20.04C33.1745 20.48 33.5295 21.195 33.5295 22.185C33.5295 23.385 33.0395 24.195 32.0595 24.615C33.1295 25.035 33.6645 25.885 33.6645 27.165C33.6645 28.195 33.2895 28.945 32.5395 29.415C31.7995 29.885 30.6145 30.12 28.9845 30.12C27.3445 30.12 26.1495 29.87 25.3995 29.37C24.6595 28.87 24.2895 28.075 24.2895 26.985ZM38.2536 30.12C37.2136 30.12 36.4536 29.935 35.9736 29.565C35.4936 29.195 35.2536 28.6 35.2536 27.78C35.2536 26.93 35.5186 26.325 36.0486 25.965C36.5886 25.595 37.4536 25.41 38.6436 25.41H41.2986C41.2986 24.7 41.1186 24.185 40.7586 23.865C40.3986 23.535 39.8236 23.37 39.0336 23.37C38.4036 23.37 37.9186 23.475 37.5786 23.685C37.2386 23.885 37.0086 24.21 36.8886 24.66H35.4336C35.5736 23.76 35.9336 23.105 36.5136 22.695C37.0936 22.285 37.9536 22.08 39.0936 22.08C40.3736 22.08 41.3036 22.345 41.8836 22.875C42.4736 23.395 42.7686 24.23 42.7686 25.38V30H41.2986V28.995C40.7086 29.745 39.6936 30.12 38.2536 30.12ZM36.7236 27.72C36.7236 28.11 36.8736 28.395 37.1736 28.575C37.4836 28.745 37.9586 28.83 38.5986 28.83C39.4486 28.83 40.0836 28.675 40.5036 28.365C40.9336 28.055 41.1986 27.56 41.2986 26.88V26.52H39.0186C37.4886 26.52 36.7236 26.92 36.7236 27.72ZM44.9579 30V22.2H47.3429L50.1179 28.515L52.8929 22.2H55.2779V30H53.8079V23.52L50.8979 30H49.3229L46.4279 23.52V30H44.9579ZM58.022 23.04C58.662 22.4 59.677 22.08 61.067 22.08C62.457 22.08 63.467 22.4 64.097 23.04C64.737 23.68 65.057 24.7 65.057 26.1C65.057 27.51 64.742 28.535 64.112 29.175C63.482 29.805 62.467 30.12 61.067 30.12C59.667 30.12 58.652 29.805 58.022 29.175C57.392 28.535 57.077 27.51 57.077 26.1C57.077 24.7 57.392 23.68 58.022 23.04ZM58.547 26.1C58.547 27.02 58.747 27.69 59.147 28.11C59.547 28.53 60.187 28.74 61.067 28.74C61.947 28.74 62.587 28.53 62.987 28.11C63.387 27.69 63.587 27.02 63.587 26.1C63.587 25.17 63.387 24.5 62.987 24.09C62.597 23.67 61.957 23.46 61.067 23.46C60.177 23.46 59.532 23.67 59.132 24.09C58.742 24.5 58.547 25.17 58.547 26.1ZM66.8573 30V22.2H70.8473C71.8373 22.2 72.5573 22.365 73.0073 22.695C73.4573 23.025 73.6823 23.555 73.6823 24.285C73.6823 25.075 73.4273 25.63 72.9173 25.95C73.6673 26.27 74.0423 26.9 74.0423 27.84C74.0423 28.6 73.8123 29.15 73.3523 29.49C72.8923 29.83 72.1473 30 71.1173 30H66.8573ZM70.9823 26.595H68.3273V28.71H70.9823C71.5423 28.71 71.9473 28.63 72.1973 28.47C72.4473 28.3 72.5723 28.025 72.5723 27.645C72.5723 27.275 72.4473 27.01 72.1973 26.85C71.9473 26.68 71.5423 26.595 70.9823 26.595ZM68.3273 25.485H70.6673C71.2173 25.485 71.6123 25.405 71.8523 25.245C72.0923 25.085 72.2123 24.83 72.2123 24.48C72.2123 24.14 72.0873 23.89 71.8373 23.73C71.5973 23.57 71.2123 23.49 70.6823 23.49H68.3273V25.485ZM77.1561 30H75.8661V22.2H77.3361V27.645L82.0611 22.2H83.3511V30H81.8811V24.555L77.1561 30ZM92.508 23.58H89.388V30H87.918V23.58H84.798V22.2H92.508V23.58ZM95.2323 30H93.9423V22.2H95.4123V27.645L100.137 22.2H101.427V30H99.9573V24.555L95.2323 30ZM108.536 32.37H107.066V28.62H108.146C108.456 28.41 108.681 28.02 108.821 27.45C108.971 26.88 109.086 25.815 109.166 24.255L109.271 22.2H115.601V28.62H117.056V32.37H115.586V30H108.536V32.37ZM109.901 28.62H114.131V23.58H110.636L110.606 24.375C110.506 26.475 110.271 27.89 109.901 28.62ZM119.15 23.04C119.79 22.4 120.805 22.08 122.195 22.08C123.585 22.08 124.595 22.4 125.225 23.04C125.865 23.68 126.185 24.7 126.185 26.1C126.185 27.51 125.87 28.535 125.24 29.175C124.61 29.805 123.595 30.12 122.195 30.12C120.795 30.12 119.78 29.805 119.15 29.175C118.52 28.535 118.205 27.51 118.205 26.1C118.205 24.7 118.52 23.68 119.15 23.04ZM119.675 26.1C119.675 27.02 119.875 27.69 120.275 28.11C120.675 28.53 121.315 28.74 122.195 28.74C123.075 28.74 123.715 28.53 124.115 28.11C124.515 27.69 124.715 27.02 124.715 26.1C124.715 25.17 124.515 24.5 124.115 24.09C123.725 23.67 123.085 23.46 122.195 23.46C121.305 23.46 120.66 23.67 120.26 24.09C119.87 24.5 119.675 25.17 119.675 26.1ZM131.45 30.12C130.09 30.12 129.1 29.805 128.48 29.175C127.87 28.535 127.565 27.51 127.565 26.1C127.565 24.7 127.87 23.68 128.48 23.04C129.1 22.4 130.09 22.08 131.45 22.08C132.64 22.08 133.54 22.32 134.15 22.8C134.76 23.27 135.135 24.02 135.275 25.05H133.82C133.69 24.5 133.435 24.1 133.055 23.85C132.685 23.59 132.16 23.46 131.48 23.46C130.62 23.46 129.995 23.67 129.605 24.09C129.225 24.5 129.035 25.17 129.035 26.1C129.035 27.02 129.23 27.69 129.62 28.11C130.01 28.53 130.63 28.74 131.48 28.74C132.16 28.74 132.685 28.615 133.055 28.365C133.435 28.105 133.69 27.7 133.82 27.15H135.275C135.135 28.19 134.76 28.945 134.15 29.415C133.54 29.885 132.64 30.12 131.45 30.12ZM143.851 23.58H140.731V30H139.261V23.58H136.141V22.2H143.851V23.58ZM147.868 30.12C146.828 30.12 146.068 29.935 145.588 29.565C145.108 29.195 144.868 28.6 144.868 27.78C144.868 26.93 145.133 26.325 145.663 25.965C146.203 25.595 147.068 25.41 148.258 25.41H150.913C150.913 24.7 150.733 24.185 150.373 23.865C150.013 23.535 149.438 23.37 148.648 23.37C148.018 23.37 147.533 23.475 147.193 23.685C146.853 23.885 146.623 24.21 146.503 24.66H145.048C145.188 23.76 145.548 23.105 146.128 22.695C146.708 22.285 147.568 22.08 148.708 22.08C149.988 22.08 150.918 22.345 151.498 22.875C152.088 23.395 152.383 24.23 152.383 25.38V30H150.913V28.995C150.323 29.745 149.308 30.12 147.868 30.12ZM146.338 27.72C146.338 28.11 146.488 28.395 146.788 28.575C147.098 28.745 147.573 28.83 148.213 28.83C149.063 28.83 149.698 28.675 150.118 28.365C150.548 28.055 150.813 27.56 150.913 26.88V26.52H148.633C147.103 26.52 146.338 26.92 146.338 27.72ZM154.572 30V22.2H158.562C159.552 22.2 160.272 22.365 160.722 22.695C161.172 23.025 161.397 23.555 161.397 24.285C161.397 25.075 161.142 25.63 160.632 25.95C161.382 26.27 161.757 26.9 161.757 27.84C161.757 28.6 161.527 29.15 161.067 29.49C160.607 29.83 159.862 30 158.832 30H154.572ZM158.697 26.595H156.042V28.71H158.697C159.257 28.71 159.662 28.63 159.912 28.47C160.162 28.3 160.287 28.025 160.287 27.645C160.287 27.275 160.162 27.01 159.912 26.85C159.662 26.68 159.257 26.595 158.697 26.595ZM156.042 25.485H158.382C158.932 25.485 159.327 25.405 159.567 25.245C159.807 25.085 159.927 24.83 159.927 24.48C159.927 24.14 159.802 23.89 159.552 23.73C159.312 23.57 158.927 23.49 158.397 23.49H156.042V25.485ZM165.051 30H163.581V22.2H165.051V25.335H166.506L169.041 22.2H170.841L167.721 26.01L171.036 30H169.221L166.506 26.715H165.051V30ZM174.976 30L171.721 22.2H173.296L175.756 28.08L178.231 22.2H179.806L174.991 33.75H173.416L174.976 30Z" fill="#2D3F2F"/>
<defs>
<filter id="filter0_f_133_2917" x="0.25" y="0.25" width="196.751" height="48.4604" filterUnits="userSpaceOnUse" color-interpolation-filters="sRGB">
<feFlood flood-opacity="0" result="BackgroundImageFix"/>
<feBlend mode="normal" in="SourceGraphic" in2="BackgroundImageFix" result="shape"/>
<feGaussianBlur stdDeviation="1" result="effect1_foregroundBlur_133_2917"/>
</filter>
</defs>
</svg>
