<svg width="240" height="104" viewBox="0 0 240 104" fill="none" xmlns="http://www.w3.org/2000/svg">
<path d="M0.19851 9.52973C0.19851 7.67697 0.744414 6.10543 1.83622 4.81511C2.92803 3.49171 4.35069 2.5157 6.1042 1.88708C7.85771 1.22538 9.74356 0.894531 11.7617 0.894531C13.813 0.894531 15.765 1.22538 17.6178 1.88708C19.4706 2.54878 20.9759 3.50825 22.1339 4.76548C23.2919 6.02272 23.8709 7.51155 23.8709 9.23197C23.8709 10.3569 23.4573 11.2667 22.6302 11.9615C21.8361 12.6232 20.8932 12.954 19.8014 12.954C19.0074 12.954 18.263 12.7721 17.5682 12.4081C16.8734 12.0111 16.3606 11.4487 16.0297 10.7208C15.8974 10.423 15.8312 10.0922 15.8312 9.72824C15.8312 9.13271 16.0297 8.66952 16.4267 8.33867C16.8568 7.97474 17.3366 7.85894 17.8659 7.99128C18.1968 8.09053 18.4284 8.22287 18.5607 8.3883C18.7262 8.55372 18.9081 8.80186 19.1066 9.13271C19.2721 9.46356 19.4375 9.7117 19.6029 9.87713C19.8014 10.0426 20.1157 10.1253 20.5458 10.1253C21.373 10.1253 21.7865 9.52974 21.7865 8.33867C21.7865 6.22123 20.8767 4.60006 19.057 3.47517C17.2704 2.31719 15.1364 1.7382 12.655 1.7382C10.2067 1.7382 8.07276 2.26756 6.25308 3.32628C4.46649 4.38501 3.57319 5.80766 3.57319 7.59426C3.57319 9.05 4.03638 10.2907 4.96276 11.3163C5.88914 12.342 7.01404 13.1856 8.33744 13.8473C9.69393 14.509 11.5632 15.3031 13.9454 16.2295C16.4598 17.1889 18.4946 18.0657 20.0496 18.8597C21.6046 19.6207 22.9114 20.6463 23.9701 21.9366C25.0619 23.1939 25.6078 24.7489 25.6078 26.6016C25.6078 28.686 24.9627 30.4726 23.6724 31.9614C22.4151 33.4502 20.7609 34.5751 18.7096 35.3361C16.6583 36.097 14.4913 36.4775 12.2084 36.4775C10.0579 36.4775 8.05622 36.1467 6.20345 35.485C4.35069 34.7902 2.84532 33.7811 1.68734 32.4577C0.562446 31.1343 0 29.5297 0 27.6438C0 26.3204 0.413563 25.2121 1.24069 24.3188C2.06782 23.4255 3.01074 22.9788 4.06946 22.9788C4.89659 22.9788 5.64101 23.1773 6.30271 23.5743C6.99749 23.9383 7.51031 24.4842 7.84116 25.2121C7.9735 25.5098 8.03967 25.8407 8.03967 26.2046C8.03967 26.8001 7.82462 27.2799 7.39452 27.6438C6.99749 27.9747 6.5343 28.0739 6.00494 27.9416C5.64101 27.8423 5.37632 27.7265 5.2109 27.5942C5.07856 27.4288 4.94622 27.1972 4.81388 26.8994C4.64845 26.6016 4.48303 26.3866 4.3176 26.2542C4.15218 26.1219 3.85441 26.0557 3.42431 26.0557C3.02728 26.0557 2.71298 26.3204 2.48138 26.8498C2.24979 27.3791 2.16707 28.0243 2.23324 28.7852C2.43175 31.1012 3.39122 32.8382 5.11164 33.9961C6.86515 35.1541 8.9826 35.7331 11.464 35.7331C13.2175 35.7331 14.9214 35.4354 16.5756 34.8398C18.2299 34.2443 19.5698 33.4006 20.5955 32.3088C21.6542 31.217 22.1835 29.9598 22.1835 28.5371C22.1835 26.9159 21.6873 25.5429 20.6947 24.418C19.7352 23.2931 18.5442 22.3833 17.1215 21.6885C15.6989 20.9606 13.7799 20.15 11.3647 19.2567C8.91643 18.3634 6.94787 17.5529 5.45904 16.825C3.97021 16.0971 2.71298 15.1377 1.68734 13.9466C0.694787 12.7555 0.19851 11.2832 0.19851 9.52973Z" fill="#2D3F2F"/>
<path d="M52.9496 36.0309C52.6849 36.0309 51.957 36.0309 50.7659 36.0309C49.608 36.0309 48.8305 35.8324 48.4335 35.4354C48.0695 35.0052 47.8875 34.3435 47.8875 33.4502V28.9838C47.0604 31.1343 45.6708 32.9043 43.7188 34.2939C41.7999 35.6835 39.6328 36.3783 37.2176 36.3783C34.9678 36.3783 33.0489 35.7827 31.4608 34.5917C29.8727 33.3675 29.0787 31.6637 29.0787 29.48C29.0787 28.1566 29.4426 27.0483 30.1705 26.155C30.9314 25.2617 31.8578 24.5504 32.9496 24.021C34.0414 23.4916 35.4972 22.9126 37.3169 22.284C39.1696 21.6223 40.493 21.093 41.2871 20.6959C45.0919 18.777 46.9943 16.9077 46.9943 15.088C46.9943 14.6248 46.8619 14.1616 46.5972 13.6985C45.4723 11.978 43.6196 11.1178 41.0389 11.1178C39.9471 11.1178 38.8057 11.2832 37.6146 11.6141C36.4567 11.9449 35.4806 12.4412 34.6866 13.1029C33.8926 13.7315 33.4955 14.476 33.4955 15.3362C33.4955 15.9317 33.6444 16.428 33.9422 16.825C34.273 17.222 34.637 17.4205 35.034 17.4205C35.4641 17.4205 35.7619 17.3378 35.9273 17.1724C36.0927 17.007 36.2581 16.7588 36.4236 16.428C36.589 16.0971 36.7544 15.849 36.9198 15.6836C37.0853 15.5181 37.3499 15.3858 37.7139 15.2865C38.2102 15.1873 38.6568 15.3362 39.0538 15.7332C39.4509 16.0971 39.6494 16.6099 39.6494 17.2716C39.6494 17.4371 39.6163 17.6852 39.5501 18.0161C39.3185 18.8432 38.8388 19.4883 38.1109 19.9515C37.383 20.4147 36.5725 20.6463 35.6792 20.6463C34.5873 20.6463 33.6444 20.2989 32.8504 19.6041C32.0894 18.9094 31.7089 17.8837 31.7089 16.5272C31.7089 15.4685 32.1391 14.476 32.9993 13.5496C33.8926 12.6232 35.0505 11.8788 36.4732 11.3163C37.9289 10.7539 39.4509 10.4727 41.0389 10.4727C44.7445 10.4727 47.474 11.1509 49.2275 12.5074C50.981 13.8308 51.8578 16.0475 51.8578 19.1575V33.2021C51.8578 33.8969 51.9074 34.4263 52.0066 34.7902C52.139 35.121 52.4202 35.2699 52.8503 35.2368L52.9496 36.0309ZM39.4012 34.1947C40.8901 34.1947 42.2796 33.7976 43.5699 33.0036C44.8933 32.2096 45.9355 31.1177 46.6965 29.7282C47.4905 28.3055 47.8875 26.734 47.8875 25.0135V19.1575C47.8875 17.801 47.7552 16.6761 47.4905 15.7828C47.1928 17.6025 45.2242 19.4718 41.5848 21.3907L39.5005 22.4329C38.0778 23.1277 36.9529 23.7232 36.1258 24.2195C35.3318 24.7158 34.6535 25.3444 34.0911 26.1054C33.5617 26.8663 33.297 27.7762 33.297 28.8349C33.297 30.5884 33.8595 31.9283 34.9844 32.8547C36.1423 33.748 37.6146 34.1947 39.4012 34.1947Z" fill="#2D3F2F"/>
<path d="M79.8981 21.4404C80.0305 22.1351 80.0966 22.9292 80.0966 23.8225C80.0966 26.2046 79.5673 28.3386 78.5086 30.2244C77.4498 32.0772 76.0768 33.533 74.3895 34.5917C72.7021 35.6173 70.9486 36.1301 69.1289 36.1301C67.1108 36.1301 65.3738 35.5842 63.918 34.4924C62.4954 33.3675 61.4863 31.8622 60.8908 29.9763V46.7504C60.8908 47.2467 60.9735 47.6603 61.1389 47.9911C61.3043 48.322 61.5028 48.504 61.7344 48.537L61.8833 49.3807H55.928L56.0769 48.537C56.3085 48.504 56.507 48.322 56.6724 47.9911C56.8378 47.6603 56.9205 47.2467 56.9205 46.7504V17.2716C56.9205 16.7754 56.8378 16.3618 56.6724 16.031C56.507 15.7001 56.3085 15.5181 56.0769 15.485L55.928 14.6414C56.722 14.476 57.6484 14.0293 58.7071 13.3014C59.7659 12.5405 60.4772 11.8457 60.8411 11.2171H60.8908V16.9739C61.6186 15.1211 62.727 13.6654 64.2158 12.6066C65.7377 11.5148 67.4251 10.9689 69.2778 10.9689C72.1231 10.9689 74.4887 11.9615 76.3746 13.9466C78.2604 15.8986 79.4349 18.3965 79.8981 21.4404ZM67.789 34.8894C70.3365 34.8894 72.3051 33.8803 73.6947 31.8622C75.0843 29.844 75.779 27.313 75.779 24.2691C75.779 23.8059 75.746 23.1112 75.6798 22.1848C75.3489 19.2402 74.4887 16.825 73.0992 14.9391C71.7096 13.0202 70.0388 12.0607 68.0868 12.0607C66.9619 12.0607 65.8701 12.4247 64.8113 13.1525C63.7526 13.8804 62.8593 14.873 62.1314 16.1302C61.4367 17.3874 61.0231 18.7936 60.8908 20.3486V23.2766C61.3209 22.0524 61.966 21.1261 62.8262 20.4974C63.6865 19.8688 64.5963 19.5545 65.5558 19.5545C66.4821 19.5545 67.2431 19.7696 67.8386 20.1997C68.4342 20.6298 68.8477 21.2419 69.0793 22.0359C69.1455 22.3667 69.1786 22.5983 69.1786 22.7307C69.1786 23.26 69.0131 23.6736 68.6823 23.9714C68.3845 24.2691 68.0206 24.418 67.5905 24.418C67.0942 24.418 66.7303 24.2691 66.4987 23.9714C66.3002 23.6736 66.1182 23.2435 65.9528 22.6811C65.7543 22.1186 65.5558 21.7216 65.3572 21.49C65.1918 21.2253 64.9106 21.093 64.5136 21.093C63.9842 21.093 63.4549 21.3246 62.9255 21.7878C62.4292 22.2179 62.0156 22.8299 61.6848 23.624C61.3539 24.418 61.1885 25.3113 61.1885 26.3039C61.1885 27.925 61.4697 29.3973 62.0322 30.7207C62.6277 32.011 63.4218 33.0367 64.4143 33.7976C65.44 34.5255 66.5648 34.8894 67.789 34.8894Z" fill="#2D3F2F"/>
<path d="M108.515 21.4404C108.648 22.1351 108.714 22.9292 108.714 23.8225C108.714 25.8076 108.284 27.6769 107.424 29.4304C106.597 31.1839 105.405 32.6562 103.85 33.8473C102.329 35.0052 100.558 35.7497 98.5403 36.0805C97.8786 36.2128 97.1507 36.279 96.3567 36.279C94.4046 36.279 92.5684 35.8324 90.848 34.9391C89.1276 34.0458 87.6718 32.8051 86.4808 31.217C85.3228 29.5958 84.5784 27.7596 84.2475 25.7083C84.1152 25.0135 84.049 24.2195 84.049 23.3262C84.049 21.3411 84.4626 19.4883 85.2897 17.7679C86.1499 16.0144 87.341 14.5421 88.8629 13.3511C90.4179 12.16 92.188 11.399 94.173 11.0682C94.8348 10.9359 95.5626 10.8697 96.3567 10.8697C98.3418 10.8697 100.195 11.3329 101.915 12.2593C103.635 13.1526 105.075 14.4098 106.233 16.031C107.424 17.619 108.185 19.4222 108.515 21.4404ZM97.3492 35.5346C98.838 35.5346 100.128 35.0714 101.22 34.145C102.345 33.2186 103.189 31.978 103.751 30.423C104.347 28.8349 104.644 27.1145 104.644 25.2617C104.644 24.0706 104.562 23.045 104.396 22.1848C104.065 20.3982 103.487 18.7274 102.659 17.1724C101.865 15.6174 100.906 14.3602 99.781 13.4007C99.1854 13.0037 98.4741 12.8052 97.647 12.8052C96.5883 12.8052 95.5626 13.1195 94.5701 13.7481C93.6106 14.3436 92.9654 15.1377 92.6346 16.1302C92.4692 16.6927 92.3865 17.1889 92.3865 17.619C92.3865 18.4462 92.585 19.1906 92.982 19.8523C93.379 20.4809 93.9249 20.8945 94.6197 21.093C94.8844 21.1591 95.0498 21.1922 95.116 21.1922C95.6453 21.1922 96.2905 20.911 97.0515 20.3486C97.8455 19.8192 98.4741 19.5545 98.9373 19.5545C99.3674 19.5545 99.7313 19.6869 100.029 19.9515C100.327 20.2162 100.476 20.5471 100.476 20.9441C100.476 21.4734 100.244 21.9697 99.781 22.4329C99.1524 23.0284 98.3252 23.3262 97.2996 23.3262C96.5055 23.3262 95.6288 23.1112 94.6693 22.6811C93.7099 22.2179 92.9654 21.5727 92.4361 20.7456C91.9398 19.9184 91.6917 18.9921 91.6917 17.9664C91.6917 17.1724 91.824 16.4611 92.0887 15.8324C92.5188 14.6745 93.3294 13.7646 94.5204 13.1029C95.7446 12.4412 96.9687 12.1931 98.1929 12.3585C97.2665 11.8953 96.3236 11.6637 95.3641 11.6637C93.8753 11.6637 92.5684 12.1269 91.4435 13.0533C90.3517 13.9797 89.5081 15.2204 88.9125 16.7754C88.3501 18.3304 88.0689 20.0342 88.0689 21.887C88.0689 22.8796 88.1681 23.9052 88.3666 24.9639C88.7306 26.9159 89.3426 28.7025 90.2028 30.3237C91.0961 31.9118 92.1549 33.1856 93.379 34.145C94.6362 35.0714 95.9596 35.5346 97.3492 35.5346Z" fill="#2D3F2F"/>
<path d="M125.446 11.1178C126.968 11.1178 128.258 11.581 129.317 12.5074C130.375 13.4007 130.905 14.6248 130.905 16.1798C130.905 17.5032 130.491 18.5454 129.664 19.3064C128.837 20.0342 127.861 20.3982 126.736 20.3982C125.909 20.3982 125.165 20.1997 124.503 19.8026C123.841 19.4056 123.361 18.8101 123.064 18.0161C122.931 17.7183 122.865 17.3874 122.865 17.0235C122.865 16.428 123.064 15.9648 123.461 15.6339C123.891 15.27 124.371 15.1542 124.9 15.2865C125.231 15.3858 125.462 15.5181 125.595 15.6836C125.76 15.849 125.942 16.0971 126.141 16.428C126.306 16.7588 126.471 17.007 126.637 17.1724C126.835 17.3378 127.15 17.4205 127.58 17.4205C127.977 17.4205 128.324 17.222 128.622 16.825C128.953 16.428 129.118 15.9317 129.118 15.3362C129.118 14.476 128.771 13.6985 128.076 13.0037C127.414 12.3089 126.538 11.9615 125.446 11.9615C123.924 11.9615 122.518 12.5736 121.227 13.7977C119.97 14.9888 118.978 16.6099 118.25 18.6612C117.522 20.7125 117.158 22.9126 117.158 25.2617V33.4006C117.158 33.8969 117.241 34.3105 117.406 34.6413C117.572 34.9722 117.77 35.1541 118.002 35.1872L118.151 36.0309H112.195L112.344 35.1872C112.576 35.1541 112.774 34.9722 112.94 34.6413C113.105 34.3105 113.188 33.8969 113.188 33.4006V17.2716C113.188 16.7754 113.105 16.3618 112.94 16.031C112.774 15.7001 112.576 15.5181 112.344 15.485L112.195 14.6414C112.989 14.476 113.916 14.0293 114.974 13.3014C116.033 12.5405 116.744 11.8457 117.108 11.2171H117.158V19.1079C117.886 16.7588 118.961 14.8399 120.384 13.3511C121.806 11.8622 123.494 11.1178 125.446 11.1178Z" fill="#2D3F2F"/>
<path d="M140.299 36.0309H134.344L134.492 35.1872C134.724 35.1541 134.922 34.9722 135.088 34.6413C135.253 34.3105 135.336 33.8969 135.336 33.4006V17.2716C135.336 16.7754 135.253 16.3618 135.088 16.031C134.922 15.7001 134.724 15.5181 134.492 15.485L134.344 14.6414C135.138 14.476 136.064 14.0293 137.123 13.3014C138.181 12.5405 138.893 11.8457 139.257 11.2171H139.306V33.4006C139.306 33.8969 139.389 34.3105 139.554 34.6413C139.72 34.9722 139.918 35.1541 140.15 35.1872L140.299 36.0309Z" fill="#2D3F2F"/>
<path d="M131.782 75.8455C130.988 76.0109 130.061 76.4741 129.003 77.2351C127.944 77.9629 127.233 78.6412 126.869 79.2698H126.819V73.513C126.224 75.3988 125.231 76.9042 123.841 78.0291C122.452 79.1209 120.781 79.6668 118.829 79.6668C116.877 79.6668 115.041 79.1044 113.32 77.9795C111.6 76.8546 110.227 75.3327 109.201 73.4137C108.176 71.4617 107.663 69.3443 107.663 67.0614C107.663 66.3666 107.712 65.6718 107.812 64.977C108.242 61.9663 109.4 59.4684 111.286 57.4833C113.205 55.4982 115.587 54.5056 118.432 54.5056C120.285 54.5056 121.956 55.0515 123.444 56.1433C124.966 57.2021 126.091 58.6578 126.819 60.5106V47.4585C126.819 46.9622 126.736 46.5487 126.571 46.2178C126.406 45.887 126.207 45.705 125.975 45.6719L125.827 44.8282C126.621 44.6628 127.547 44.2162 128.606 43.4883C129.664 42.7273 130.376 42.0325 130.74 41.4039H130.789V73.2152C130.789 73.7115 130.872 74.1251 131.037 74.4559C131.203 74.7868 131.401 74.9687 131.633 75.0018L131.782 75.8455ZM120.119 67.9547C119.689 67.9547 119.309 67.8058 118.978 67.5081C118.68 67.1772 118.531 66.7636 118.531 66.2674C118.531 66.135 118.564 65.9034 118.631 65.5726C118.862 64.7785 119.276 64.1665 119.871 63.7364C120.467 63.3062 121.228 63.0912 122.154 63.0912C123.114 63.0912 124.023 63.4055 124.884 64.0341C125.744 64.6627 126.389 65.5891 126.819 66.8133V63.8852C126.687 62.3302 126.257 60.9241 125.529 59.6669C124.834 58.4097 123.957 57.4171 122.899 56.6892C121.84 55.9614 120.748 55.5974 119.623 55.5974C117.671 55.5974 116 56.5569 114.611 58.4758C113.221 60.3617 112.361 62.7769 112.03 65.7215C111.964 66.6478 111.931 67.3426 111.931 67.8058C111.931 70.8496 112.626 73.3807 114.015 75.3988C115.405 77.417 117.373 78.4261 119.921 78.4261C121.145 78.4261 122.253 78.0622 123.246 77.3343C124.272 76.5734 125.066 75.5477 125.628 74.2574C126.224 72.934 126.521 71.4617 126.521 69.8405C126.521 68.848 126.356 67.9547 126.025 67.1607C125.694 66.3666 125.264 65.7545 124.735 65.3244C124.238 64.8612 123.726 64.6297 123.196 64.6297C122.799 64.6297 122.501 64.762 122.303 65.0267C122.138 65.2583 121.956 65.6553 121.757 66.2177C121.592 66.7802 121.393 67.2103 121.162 67.5081C120.963 67.8058 120.616 67.9547 120.119 67.9547Z" fill="#2D3F2F"/>
<path d="M139.557 50.2376C139.292 51.164 138.663 52.107 137.671 53.0664C136.711 53.9928 135.768 54.638 134.842 55.0019L134.743 54.9523C135.272 54.4229 135.537 53.5792 135.537 52.4213C135.537 51.8919 135.438 50.9821 135.239 49.6917C135.206 49.394 135.189 48.997 135.189 48.5007C135.189 47.7397 135.338 47.1773 135.636 46.8133C135.934 46.4494 136.496 46.0855 137.323 45.7215C137.621 46.0855 137.77 46.681 137.77 47.5081C137.77 48.8977 137.406 50.4692 136.678 52.2227C137.77 50.7008 138.316 49.1955 138.316 47.7066C138.316 46.9457 138.151 46.2344 137.82 45.5726C138.481 46.0028 138.978 46.4494 139.309 46.9126C139.639 47.3758 139.805 47.9713 139.805 48.6992C139.805 49.0631 139.722 49.5759 139.557 50.2376Z" fill="#2D3F2F"/>
<path d="M145.766 52.1731C145.137 52.1731 144.608 51.9746 144.178 51.5776C143.78 51.1475 143.582 50.6181 143.582 49.9895C143.582 49.394 143.78 48.8977 144.178 48.5007C144.608 48.0706 145.137 47.8555 145.766 47.8555C146.361 47.8555 146.857 48.0706 147.254 48.5007C147.685 48.8977 147.9 49.394 147.9 49.9895C147.9 50.6181 147.685 51.1475 147.254 51.5776C146.857 51.9746 146.361 52.1731 145.766 52.1731ZM148.743 79.5676H142.788L142.937 78.7239C143.168 78.6908 143.367 78.5088 143.532 78.178C143.698 77.8471 143.78 77.4336 143.78 76.9373V60.8083C143.78 60.312 143.698 59.8985 143.532 59.5676C143.367 59.2368 143.168 59.0548 142.937 59.0217L142.788 58.1781C143.582 58.0126 144.508 57.566 145.567 56.8381C146.626 56.0772 147.337 55.3824 147.701 54.7538H147.751V76.9373C147.751 77.4336 147.833 77.8471 147.999 78.178C148.164 78.5088 148.363 78.6908 148.594 78.7239L148.743 79.5676Z" fill="#2D3F2F"/>
<path d="M158.405 73.0167C158.67 72.2227 159.116 71.6271 159.745 71.2301C160.407 70.8331 161.151 70.6346 161.978 70.6346C163.103 70.6346 164.096 71.0151 164.956 71.776C165.816 72.5039 166.246 73.5295 166.246 74.8529C166.246 76.3749 165.667 77.5825 164.509 78.4757C163.351 79.369 161.962 79.8322 160.341 79.8653C155.246 80.0638 152.698 76.7222 152.698 69.8405V57.4336C152.698 56.9374 152.615 56.5238 152.45 56.193C152.284 55.8621 152.086 55.6801 151.854 55.6471L151.705 54.8034C152.731 54.4394 153.724 53.5792 154.683 52.2227C155.643 50.8663 156.288 49.6917 156.619 48.6992H156.668V54.7538H163.318V55.6471H156.668V73.0167C156.668 74.9026 157.032 76.3914 157.76 77.4832C158.488 78.5419 159.497 79.0713 160.787 79.0713C161.879 79.0713 162.756 78.7239 163.418 78.0291C164.112 77.3343 164.46 76.5568 164.46 75.6966C164.46 75.1011 164.294 74.6048 163.963 74.2078C163.666 73.8108 163.318 73.6122 162.921 73.6122C162.491 73.6122 162.177 73.695 161.978 73.8604C161.813 74.0258 161.647 74.274 161.482 74.6048C161.284 74.9357 161.102 75.1838 160.936 75.3492C160.804 75.5146 160.572 75.647 160.241 75.7462C159.712 75.8786 159.249 75.7793 158.852 75.4485C158.455 75.0845 158.256 74.5883 158.256 73.9596C158.256 73.6619 158.306 73.3476 158.405 73.0167Z" fill="#2D3F2F"/>
<path d="M194.041 79.5676C193.777 79.5676 193.049 79.5676 191.858 79.5676C190.7 79.5676 189.922 79.369 189.525 78.972C189.161 78.5419 188.979 77.8802 188.979 76.9869V72.5204C188.152 74.671 186.763 76.441 184.811 77.8306C182.892 79.2202 180.725 79.915 178.309 79.915C176.06 79.915 174.141 79.3194 172.552 78.1284C170.964 76.9042 170.17 75.2003 170.17 73.0167C170.17 71.6933 170.534 70.585 171.262 69.6917C172.023 68.7984 172.95 68.087 174.041 67.5577C175.133 67.0283 176.589 66.4493 178.409 65.8207C180.261 65.159 181.585 64.6296 182.379 64.2326C186.184 62.3137 188.086 60.4444 188.086 58.6247C188.086 58.1615 187.954 57.6983 187.689 57.2351C186.564 55.5147 184.711 54.6545 182.131 54.6545C181.039 54.6545 179.897 54.8199 178.706 55.1508C177.548 55.4816 176.572 55.9779 175.778 56.6396C174.984 57.2682 174.587 58.0126 174.587 58.8728C174.587 59.4684 174.736 59.9647 175.034 60.3617C175.365 60.7587 175.729 60.9572 176.126 60.9572C176.556 60.9572 176.854 60.8745 177.019 60.7091C177.184 60.5436 177.35 60.2955 177.515 59.9647C177.681 59.6338 177.846 59.3857 178.012 59.2202C178.177 59.0548 178.442 58.9225 178.806 58.8232C179.302 58.724 179.748 58.8728 180.146 59.2699C180.543 59.6338 180.741 60.1466 180.741 60.8083C180.741 60.9738 180.708 61.2219 180.642 61.5527C180.41 62.3799 179.93 63.025 179.203 63.4882C178.475 63.9514 177.664 64.183 176.771 64.183C175.679 64.183 174.736 63.8356 173.942 63.1408C173.181 62.446 172.801 61.4204 172.801 60.0639C172.801 59.0052 173.231 58.0126 174.091 57.0863C174.984 56.1599 176.142 55.4155 177.565 54.853C179.021 54.2906 180.543 54.0093 182.131 54.0093C185.836 54.0093 188.566 54.6876 190.319 56.0441C192.073 57.3675 192.949 59.5842 192.949 62.6942V76.7388C192.949 77.4336 192.999 77.9629 193.098 78.3269C193.231 78.6577 193.512 78.8066 193.942 78.7735L194.041 79.5676ZM180.493 77.7313C181.982 77.7313 183.371 77.3343 184.662 76.5403C185.985 75.7462 187.027 74.6544 187.788 73.2649C188.582 71.8422 188.979 70.2707 188.979 68.5502V62.6942C188.979 61.3377 188.847 60.2128 188.582 59.3195C188.284 61.1392 186.316 63.0085 182.677 64.9274L180.592 65.9696C179.17 66.6644 178.045 67.2599 177.217 67.7562C176.423 68.2525 175.745 68.8811 175.183 69.642C174.653 70.403 174.389 71.3128 174.389 72.3716C174.389 74.1251 174.951 75.465 176.076 76.3914C177.234 77.2847 178.706 77.7313 180.493 77.7313Z" fill="#2D3F2F"/>
<path d="M202.975 103.895L197.02 99.0294L197.169 98.1857C197.4 98.1526 197.599 97.9706 197.764 97.6398C197.93 97.3089 198.012 96.8954 198.012 96.3991V74.3615V52.3239C198.012 51.8277 197.93 51.4141 197.764 51.0833C197.599 50.7524 197.4 50.5704 197.169 50.5374L197.02 49.6937C197.814 49.5283 198.74 49.0816 199.799 48.3537C200.858 47.5928 201.569 46.898 201.933 46.2694H201.982V71.3342V100.498C201.982 100.995 202.065 101.408 202.231 101.739C202.396 102.07 202.595 102.252 202.826 102.285L202.975 103.895Z" fill="#E59500"/>
<path d="M208.915 52.1731C208.286 52.1731 207.757 51.9746 207.327 51.5776C206.93 51.1475 206.731 50.6181 206.731 49.9895C206.731 49.394 206.93 48.8977 207.327 48.5007C207.757 48.0706 208.286 47.8555 208.915 47.8555C209.51 47.8555 210.007 48.0706 210.404 48.5007C210.834 48.8977 211.049 49.394 211.049 49.9895C211.049 50.6181 210.834 51.1475 210.404 51.5776C210.007 51.9746 209.51 52.1731 208.915 52.1731ZM211.892 79.5676H205.937L206.086 78.7239C206.318 78.6908 206.516 78.5088 206.682 78.178C206.847 77.8471 206.93 77.4336 206.93 76.9373V60.8083C206.93 60.312 206.847 59.8985 206.682 59.5676C206.516 59.2368 206.318 59.0548 206.086 59.0217L205.937 58.1781C206.731 58.0126 207.658 57.566 208.716 56.8381C209.775 56.0772 210.486 55.3824 210.85 54.7538H210.9V76.9373C210.9 77.4336 210.983 77.8471 211.148 78.178C211.313 78.5088 211.512 78.6908 211.744 78.7239L211.892 79.5676Z" fill="#2D3F2F"/>
<path d="M239.21 79.5676C238.945 79.5676 238.218 79.5676 237.027 79.5676C235.869 79.5676 235.091 79.369 234.694 78.972C234.33 78.5419 234.148 77.8802 234.148 76.9869V72.5204C233.321 74.671 231.931 76.441 229.979 77.8306C228.06 79.2202 225.893 79.915 223.478 79.915C221.228 79.915 219.309 79.3194 217.721 78.1284C216.133 76.9042 215.339 75.2003 215.339 73.0167C215.339 71.6933 215.703 70.585 216.431 69.6917C217.192 68.7984 218.118 68.087 219.21 67.5577C220.302 67.0283 221.758 66.4493 223.577 65.8207C225.43 65.159 226.754 64.6296 227.548 64.2326C231.352 62.3137 233.255 60.4444 233.255 58.6247C233.255 58.1615 233.122 57.6983 232.858 57.2351C231.733 55.5147 229.88 54.6545 227.299 54.6545C226.208 54.6545 225.066 54.8199 223.875 55.1508C222.717 55.4816 221.741 55.9779 220.947 56.6396C220.153 57.2682 219.756 58.0126 219.756 58.8728C219.756 59.4684 219.905 59.9647 220.203 60.3617C220.534 60.7587 220.898 60.9572 221.295 60.9572C221.725 60.9572 222.022 60.8745 222.188 60.7091C222.353 60.5436 222.519 60.2955 222.684 59.9647C222.85 59.6338 223.015 59.3857 223.18 59.2202C223.346 59.0548 223.611 58.9225 223.974 58.8232C224.471 58.724 224.917 58.8728 225.314 59.2699C225.711 59.6338 225.91 60.1466 225.91 60.8083C225.91 60.9738 225.877 61.2219 225.811 61.5527C225.579 62.3799 225.099 63.025 224.371 63.4882C223.644 63.9514 222.833 64.183 221.94 64.183C220.848 64.183 219.905 63.8356 219.111 63.1408C218.35 62.446 217.97 61.4204 217.97 60.0639C217.97 59.0052 218.4 58.0126 219.26 57.0863C220.153 56.1599 221.311 55.4155 222.734 54.853C224.19 54.2906 225.711 54.0093 227.299 54.0093C231.005 54.0093 233.735 54.6876 235.488 56.0441C237.242 57.3675 238.118 59.5842 238.118 62.6942V76.7388C238.118 77.4336 238.168 77.9629 238.267 78.3269C238.4 78.6577 238.681 78.8066 239.111 78.7735L239.21 79.5676ZM225.662 77.7313C227.151 77.7313 228.54 77.3343 229.831 76.5403C231.154 75.7462 232.196 74.6544 232.957 73.2649C233.751 71.8422 234.148 70.2707 234.148 68.5502V62.6942C234.148 61.3377 234.016 60.2128 233.751 59.3195C233.453 61.1392 231.485 63.0085 227.845 64.9274L225.761 65.9696C224.338 66.6644 223.214 67.2599 222.386 67.7562C221.592 68.2525 220.914 68.8811 220.352 69.642C219.822 70.403 219.558 71.3128 219.558 72.3716C219.558 74.1251 220.12 75.465 221.245 76.3914C222.403 77.2847 223.875 77.7313 225.662 77.7313Z" fill="#2D3F2F"/>
<path d="M135.526 5.70628C136.09 4.90841 137.008 4.21673 138.279 3.63124C139.507 3.06633 140.626 2.76501 141.634 2.7273L141.712 2.80808C141.028 3.13723 140.492 3.85594 140.103 4.9642C139.926 5.47084 139.715 6.3749 139.472 7.67638C139.404 7.97245 139.287 8.35798 139.12 8.83295C138.865 9.56124 138.534 10.0496 138.127 10.2981C137.72 10.5466 137.06 10.7063 136.147 10.7773C135.984 10.3291 136.042 9.70926 136.319 8.91764C136.785 7.58772 137.661 6.20567 138.945 4.77148C137.39 5.862 136.363 7.11971 135.864 8.54462C135.608 9.27291 135.528 10.0092 135.622 10.7534C135.134 10.1199 134.809 9.52602 134.648 8.97179C134.487 8.41755 134.529 7.79212 134.773 7.0955C134.895 6.74719 135.146 6.28411 135.526 5.70628Z" fill="#2D3F2F"/>
<path d="M197.64 38.4508C198.374 37.4126 199.568 36.5125 201.222 35.7506C202.821 35.0155 204.276 34.6234 205.587 34.5743L205.689 34.6794C204.799 35.1077 204.102 36.043 203.596 37.4851C203.365 38.1444 203.091 39.3208 202.775 41.0143C202.686 41.3996 202.533 41.9013 202.317 42.5193C201.984 43.467 201.554 44.1025 201.024 44.4258C200.495 44.7492 199.636 44.957 198.448 45.0494C198.236 44.4663 198.311 43.6596 198.672 42.6296C199.279 40.899 200.418 39.1006 202.089 37.2343C200.066 38.6534 198.729 40.29 198.079 42.1442C197.747 43.0919 197.642 44.0499 197.765 45.0183C197.129 44.194 196.707 43.4212 196.497 42.7C196.288 41.9788 196.342 41.165 196.66 40.2585C196.819 39.8053 197.146 39.2027 197.64 38.4508Z" fill="#E59500"/>
</svg>
