<svg width="431" height="445" viewBox="0 0 431 445" fill="none" xmlns="http://www.w3.org/2000/svg">
<rect x="3" y="3" width="425" height="438.023" rx="212.5" stroke="#E59500" stroke-width="6"/>
<path d="M150 297.293C148.619 297.293 147.5 298.412 147.5 299.793C147.5 301.174 148.619 302.293 150 302.293V297.293ZM281.768 301.561C282.744 300.584 282.744 299.001 281.768 298.025L265.858 282.115C264.882 281.139 263.299 281.139 262.322 282.115C261.346 283.091 261.346 284.674 262.322 285.651L276.464 299.793L262.322 313.935C261.346 314.911 261.346 316.494 262.322 317.471C263.299 318.447 264.882 318.447 265.858 317.471L281.768 301.561ZM150 302.293H280V297.293H150V302.293Z" fill="#E59500"/>
<path d="M59.0582 183.64H63.4682C63.7982 185.05 64.5032 186.085 65.5832 186.745C66.6932 187.375 68.3282 187.69 70.4882 187.69C72.5282 187.69 74.0282 187.42 74.9882 186.88C75.9482 186.31 76.4282 185.395 76.4282 184.135C76.4282 183.025 76.0532 182.23 75.3032 181.75C74.5832 181.24 73.3682 180.985 71.6582 180.985H67.2482V177.655H71.3882C73.0082 177.655 74.1782 177.415 74.8982 176.935C75.6182 176.425 75.9782 175.66 75.9782 174.64C75.9782 173.47 75.5132 172.63 74.5832 172.12C73.6832 171.58 72.2582 171.31 70.3082 171.31C68.1782 171.31 66.5882 171.625 65.5382 172.255C64.4882 172.885 63.8132 173.92 63.5132 175.36H59.0582C59.4482 172.57 60.5282 170.56 62.2982 169.33C64.0982 168.07 66.8282 167.44 70.4882 167.44C73.9082 167.44 76.4132 167.98 78.0032 169.06C79.5932 170.11 80.3882 171.805 80.3882 174.145C80.3882 176.605 79.4282 178.3 77.5082 179.23C79.7282 180.1 80.8382 181.915 80.8382 184.675C80.8382 187.075 80.0132 188.83 78.3632 189.94C76.7432 191.02 74.1782 191.56 70.6682 191.56C66.9182 191.56 64.1282 190.945 62.2982 189.715C60.4982 188.455 59.4182 186.43 59.0582 183.64ZM94.4349 191.56C91.3149 191.56 89.0349 191.005 87.5949 189.895C86.1549 188.785 85.4349 187 85.4349 184.54C85.4349 181.99 86.2299 180.175 87.8199 179.095C89.4399 177.985 92.0349 177.43 95.6049 177.43H103.57C103.57 175.3 103.03 173.755 101.95 172.795C100.87 171.805 99.1449 171.31 96.7749 171.31C94.8849 171.31 93.4299 171.625 92.4099 172.255C91.3899 172.855 90.6999 173.83 90.3399 175.18H85.9749C86.3949 172.48 87.4749 170.515 89.2149 169.285C90.9549 168.055 93.5349 167.44 96.9549 167.44C100.795 167.44 103.585 168.235 105.325 169.825C107.095 171.385 107.98 173.89 107.98 177.34V191.2H103.57V188.185C101.8 190.435 98.7549 191.56 94.4349 191.56ZM89.8449 184.36C89.8449 185.53 90.2949 186.385 91.1949 186.925C92.1249 187.435 93.5499 187.69 95.4699 187.69C98.0199 187.69 99.9249 187.225 101.185 186.295C102.475 185.365 103.27 183.88 103.57 181.84V180.76H96.7299C92.1399 180.76 89.8449 181.96 89.8449 184.36ZM125.708 157.81L135.473 157.09V161.23L126.068 161.95C123.488 162.13 121.598 162.76 120.398 163.84C119.198 164.92 118.478 166.765 118.238 169.375C118.118 170.395 118.073 171.55 118.103 172.84C118.433 170.95 119.243 169.585 120.533 168.745C121.853 167.875 123.728 167.44 126.158 167.44C130.238 167.44 133.178 168.385 134.978 170.275C136.808 172.165 137.723 175.21 137.723 179.41C137.723 183.67 136.778 186.76 134.888 188.68C133.028 190.6 130.028 191.56 125.888 191.56C123.008 191.56 120.698 191.08 118.958 190.12C117.248 189.16 115.928 187.42 114.998 184.9C114.068 182.38 113.603 178.9 113.603 174.46C113.603 168.7 114.473 164.575 116.213 162.085C117.983 159.565 121.148 158.14 125.708 157.81ZM120.218 173.47C119.048 174.7 118.463 176.695 118.463 179.455C118.463 182.215 119.048 184.24 120.218 185.53C121.418 186.79 123.308 187.42 125.888 187.42C128.498 187.42 130.388 186.79 131.558 185.53C132.728 184.27 133.313 182.245 133.313 179.455C133.313 176.695 132.728 174.7 131.558 173.47C130.388 172.21 128.498 171.58 125.888 171.58C123.308 171.58 121.418 172.21 120.218 173.47ZM143.112 202.45V167.8H147.522V171.085C149.172 168.655 152.082 167.44 156.252 167.44C160.002 167.44 162.717 168.4 164.397 170.32C166.107 172.21 166.962 175.27 166.962 179.5C166.962 183.7 166.107 186.76 164.397 188.68C162.717 190.6 160.002 191.56 156.252 191.56C152.082 191.56 149.172 190.345 147.522 187.915V202.45H143.112ZM149.367 185.575C150.567 186.805 152.472 187.42 155.082 187.42C157.692 187.42 159.582 186.805 160.752 185.575C161.952 184.315 162.552 182.29 162.552 179.5C162.552 176.74 161.952 174.73 160.752 173.47C159.582 172.21 157.692 171.58 155.082 171.58C152.472 171.58 150.567 172.21 149.367 173.47C148.197 174.73 147.612 176.74 147.612 179.5C147.612 182.29 148.197 184.315 149.367 185.575ZM173.955 170.32C175.875 168.4 178.92 167.44 183.09 167.44C187.26 167.44 190.29 168.4 192.18 170.32C194.1 172.24 195.06 175.3 195.06 179.5C195.06 183.73 194.115 186.805 192.225 188.725C190.335 190.615 187.29 191.56 183.09 191.56C178.89 191.56 175.845 190.615 173.955 188.725C172.065 186.805 171.12 183.73 171.12 179.5C171.12 175.3 172.065 172.24 173.955 170.32ZM175.53 179.5C175.53 182.26 176.13 184.27 177.33 185.53C178.53 186.79 180.45 187.42 183.09 187.42C185.73 187.42 187.65 186.79 188.85 185.53C190.05 184.27 190.65 182.26 190.65 179.5C190.65 176.71 190.05 174.7 188.85 173.47C187.68 172.21 185.76 171.58 183.09 171.58C180.42 171.58 178.485 172.21 177.285 173.47C176.115 174.7 175.53 176.71 175.53 179.5ZM204.871 191.2H200.461V167.8H204.871V177.43H218.506V167.8H222.916V191.2H218.506V181.57H204.871V191.2ZM234.007 191.2H229.597V167.8H234.007V177.43H239.632C239.902 173.95 240.967 171.415 242.827 169.825C244.687 168.235 247.507 167.44 251.287 167.44C255.397 167.44 258.382 168.4 260.242 170.32C262.102 172.24 263.032 175.3 263.032 179.5C263.032 183.73 262.102 186.805 260.242 188.725C258.382 190.615 255.397 191.56 251.287 191.56C247.507 191.56 244.687 190.765 242.827 189.175C240.967 187.585 239.902 185.05 239.632 181.57H234.007V191.2ZM243.952 179.5C243.952 182.26 244.537 184.27 245.707 185.53C246.877 186.79 248.737 187.42 251.287 187.42C253.867 187.42 255.727 186.79 256.867 185.53C258.037 184.27 258.622 182.26 258.622 179.5C258.622 176.71 258.037 174.7 256.867 173.47C255.727 172.21 253.867 171.58 251.287 171.58C248.707 171.58 246.832 172.21 245.662 173.47C244.522 174.7 243.952 176.71 243.952 179.5ZM268.444 191.2V167.8H280.414C283.384 167.8 285.544 168.295 286.894 169.285C288.244 170.275 288.919 171.865 288.919 174.055C288.919 176.425 288.154 178.09 286.624 179.05C288.874 180.01 289.999 181.9 289.999 184.72C289.999 187 289.309 188.65 287.929 189.67C286.549 190.69 284.314 191.2 281.224 191.2H268.444ZM280.819 180.985H272.854V187.33H280.819C282.499 187.33 283.714 187.09 284.464 186.61C285.214 186.1 285.589 185.275 285.589 184.135C285.589 183.025 285.214 182.23 284.464 181.75C283.714 181.24 282.499 180.985 280.819 180.985ZM272.854 177.655H279.874C281.524 177.655 282.709 177.415 283.429 176.935C284.149 176.455 284.509 175.69 284.509 174.64C284.509 173.62 284.134 172.87 283.384 172.39C282.664 171.91 281.509 171.67 279.919 171.67H272.854V177.655ZM303.571 191.56C300.451 191.56 298.171 191.005 296.731 189.895C295.291 188.785 294.571 187 294.571 184.54C294.571 181.99 295.366 180.175 296.956 179.095C298.576 177.985 301.171 177.43 304.741 177.43H312.706C312.706 175.3 312.166 173.755 311.086 172.795C310.006 171.805 308.281 171.31 305.911 171.31C304.021 171.31 302.566 171.625 301.546 172.255C300.526 172.855 299.836 173.83 299.476 175.18H295.111C295.531 172.48 296.611 170.515 298.351 169.285C300.091 168.055 302.671 167.44 306.091 167.44C309.931 167.44 312.721 168.235 314.461 169.825C316.231 171.385 317.116 173.89 317.116 177.34V191.2H312.706V188.185C310.936 190.435 307.891 191.56 303.571 191.56ZM298.981 184.36C298.981 185.53 299.431 186.385 300.331 186.925C301.261 187.435 302.686 187.69 304.606 187.69C307.156 187.69 309.061 187.225 310.321 186.295C311.611 185.365 312.406 183.88 312.706 181.84V180.76H305.866C301.276 180.76 298.981 181.96 298.981 184.36ZM343.858 171.94H334.498V191.2H330.088V171.94H320.728V167.8H343.858V171.94ZM352.031 191.2H348.161V167.8H352.571V184.135L366.746 167.8H370.616V191.2H366.206V174.865L352.031 191.2ZM147.047 251.56C142.967 251.56 139.997 250.615 138.137 248.725C136.307 246.805 135.392 243.73 135.392 239.5C135.392 235.3 136.307 232.24 138.137 230.32C139.997 228.4 142.967 227.44 147.047 227.44C150.617 227.44 153.317 228.16 155.147 229.6C156.977 231.01 158.102 233.26 158.522 236.35H154.157C153.767 234.7 153.002 233.5 151.862 232.75C150.752 231.97 149.177 231.58 147.137 231.58C144.557 231.58 142.682 232.21 141.512 233.47C140.372 234.7 139.802 236.71 139.802 239.5C139.802 242.26 140.387 244.27 141.557 245.53C142.727 246.79 144.587 247.42 147.137 247.42C149.177 247.42 150.752 247.045 151.862 246.295C153.002 245.515 153.767 244.3 154.157 242.65H158.522C158.102 245.77 156.977 248.035 155.147 249.445C153.317 250.855 150.617 251.56 147.047 251.56ZM184.249 231.94H174.889V251.2H170.479V231.94H161.119V227.8H184.249V231.94ZM189.775 230.32C191.695 228.4 194.74 227.44 198.91 227.44C203.08 227.44 206.11 228.4 208 230.32C209.92 232.24 210.88 235.3 210.88 239.5C210.88 243.73 209.935 246.805 208.045 248.725C206.155 250.615 203.11 251.56 198.91 251.56C194.71 251.56 191.665 250.615 189.775 248.725C187.885 246.805 186.94 243.73 186.94 239.5C186.94 235.3 187.885 232.24 189.775 230.32ZM191.35 239.5C191.35 242.26 191.95 244.27 193.15 245.53C194.35 246.79 196.27 247.42 198.91 247.42C201.55 247.42 203.47 246.79 204.67 245.53C205.87 244.27 206.47 242.26 206.47 239.5C206.47 236.71 205.87 234.7 204.67 233.47C203.5 232.21 201.58 231.58 198.91 231.58C196.24 231.58 194.305 232.21 193.105 233.47C191.935 234.7 191.35 236.71 191.35 239.5ZM214.136 251.2V246.79H215.531C216.281 246.79 216.851 246.505 217.241 245.935C217.661 245.335 218.006 244.12 218.276 242.29C218.576 240.43 218.816 237.655 218.996 233.965L219.311 227.8H238.346V251.2H233.936V231.94H223.451L223.361 234.325C223.151 238.825 222.731 242.32 222.101 244.81C221.501 247.27 220.706 248.95 219.716 249.85C218.726 250.75 217.391 251.2 215.711 251.2H214.136ZM248.891 251.2H245.021V227.8H249.431V244.135L263.606 227.8H267.476V251.2H263.066V234.865L248.891 251.2ZM278.567 251.2H274.157V227.8H278.567V237.205H282.932L290.537 227.8H295.937L286.577 239.23L296.522 251.2H291.077L282.932 241.345H278.567V251.2Z" fill="#2D3F2F"/>
</svg>
