<svg width="207" height="49" viewBox="0 0 207 49" fill="none" xmlns="http://www.w3.org/2000/svg">
<g filter="url(#filter0_f_133_2913)">
<path d="M-1 3H182.5C194.374 3 204 12.6259 204 24.5V24.5C204 36.3741 194.374 46 182.5 46H-1" stroke="#E59500" stroke-width="1.5"/>
</g>
<path d="M-1 3H182.5C194.374 3 204 12.6259 204 24.5V24.5C204 36.3741 194.374 46 182.5 46H-1" stroke="#E59500" stroke-width="1.5"/>
<path d="M14.9402 26.985H16.4102C16.4102 27.595 16.6652 28.04 17.1752 28.32C17.6952 28.6 18.5152 28.74 19.6352 28.74C20.7452 28.74 21.5552 28.6 22.0652 28.32C22.5852 28.04 22.8452 27.595 22.8452 26.985C22.8452 26.375 22.6202 25.935 22.1702 25.665C21.7202 25.395 20.9952 25.26 19.9952 25.26H17.9702V23.97H20.0702C21.0002 23.97 21.6702 23.845 22.0802 23.595C22.5002 23.345 22.7102 22.93 22.7102 22.35C22.7102 21.79 22.4702 21.385 21.9902 21.135C21.5102 20.885 20.7402 20.76 19.6802 20.76C18.6202 20.76 17.8452 20.89 17.3552 21.15C16.8752 21.4 16.6352 21.805 16.6352 22.365H15.1652C15.1652 21.315 15.5202 20.555 16.2302 20.085C16.9402 19.615 18.0902 19.38 19.6802 19.38C21.2702 19.38 22.4152 19.6 23.1152 20.04C23.8252 20.48 24.1802 21.195 24.1802 22.185C24.1802 23.385 23.6902 24.195 22.7102 24.615C23.7802 25.035 24.3152 25.885 24.3152 27.165C24.3152 28.195 23.9402 28.945 23.1902 29.415C22.4502 29.885 21.2652 30.12 19.6352 30.12C17.9952 30.12 16.8002 29.87 16.0502 29.37C15.3102 28.87 14.9402 28.075 14.9402 26.985ZM28.9042 30.12C27.8642 30.12 27.1042 29.935 26.6242 29.565C26.1442 29.195 25.9042 28.6 25.9042 27.78C25.9042 26.93 26.1692 26.325 26.6992 25.965C27.2392 25.595 28.1042 25.41 29.2942 25.41H31.9492C31.9492 24.7 31.7692 24.185 31.4092 23.865C31.0492 23.535 30.4742 23.37 29.6842 23.37C29.0542 23.37 28.5692 23.475 28.2292 23.685C27.8892 23.885 27.6592 24.21 27.5392 24.66H26.0842C26.2242 23.76 26.5842 23.105 27.1642 22.695C27.7442 22.285 28.6042 22.08 29.7442 22.08C31.0242 22.08 31.9542 22.345 32.5342 22.875C33.1242 23.395 33.4192 24.23 33.4192 25.38V30H31.9492V28.995C31.3592 29.745 30.3442 30.12 28.9042 30.12ZM27.3742 27.72C27.3742 28.11 27.5242 28.395 27.8242 28.575C28.1342 28.745 28.6092 28.83 29.2492 28.83C30.0992 28.83 30.7342 28.675 31.1542 28.365C31.5842 28.055 31.8492 27.56 31.9492 26.88V26.52H29.6692C28.1392 26.52 27.3742 26.92 27.3742 27.72ZM39.3285 18.87L42.5835 18.63V20.01L39.4485 20.25C38.5885 20.31 37.9585 20.52 37.5585 20.88C37.1585 21.24 36.9185 21.855 36.8385 22.725C36.7985 23.065 36.7835 23.45 36.7935 23.88C36.9035 23.25 37.1735 22.795 37.6035 22.515C38.0435 22.225 38.6685 22.08 39.4785 22.08C40.8385 22.08 41.8185 22.395 42.4185 23.025C43.0285 23.655 43.3335 24.67 43.3335 26.07C43.3335 27.49 43.0185 28.52 42.3885 29.16C41.7685 29.8 40.7685 30.12 39.3885 30.12C38.4285 30.12 37.6585 29.96 37.0785 29.64C36.5085 29.32 36.0685 28.74 35.7585 27.9C35.4485 27.06 35.2935 25.9 35.2935 24.42C35.2935 22.5 35.5835 21.125 36.1635 20.295C36.7535 19.455 37.8085 18.98 39.3285 18.87ZM37.4985 24.09C37.1085 24.5 36.9135 25.165 36.9135 26.085C36.9135 27.005 37.1085 27.68 37.4985 28.11C37.8985 28.53 38.5285 28.74 39.3885 28.74C40.2585 28.74 40.8885 28.53 41.2785 28.11C41.6685 27.69 41.8635 27.015 41.8635 26.085C41.8635 25.165 41.6685 24.5 41.2785 24.09C40.8885 23.67 40.2585 23.46 39.3885 23.46C38.5285 23.46 37.8985 23.67 37.4985 24.09ZM45.13 33.75V22.2H46.6V23.295C47.15 22.485 48.12 22.08 49.51 22.08C50.76 22.08 51.665 22.4 52.225 23.04C52.795 23.67 53.08 24.69 53.08 26.1C53.08 27.5 52.795 28.52 52.225 29.16C51.665 29.8 50.76 30.12 49.51 30.12C48.12 30.12 47.15 29.715 46.6 28.905V33.75H45.13ZM47.215 28.125C47.615 28.535 48.25 28.74 49.12 28.74C49.99 28.74 50.62 28.535 51.01 28.125C51.41 27.705 51.61 27.03 51.61 26.1C51.61 25.18 51.41 24.51 51.01 24.09C50.62 23.67 49.99 23.46 49.12 23.46C48.25 23.46 47.615 23.67 47.215 24.09C46.825 24.51 46.63 25.18 46.63 26.1C46.63 27.03 46.825 27.705 47.215 28.125ZM55.4109 23.04C56.0509 22.4 57.0659 22.08 58.4559 22.08C59.8459 22.08 60.8559 22.4 61.4859 23.04C62.1259 23.68 62.4459 24.7 62.4459 26.1C62.4459 27.51 62.1309 28.535 61.5009 29.175C60.8709 29.805 59.8559 30.12 58.4559 30.12C57.0559 30.12 56.0409 29.805 55.4109 29.175C54.7809 28.535 54.4659 27.51 54.4659 26.1C54.4659 24.7 54.7809 23.68 55.4109 23.04ZM55.9359 26.1C55.9359 27.02 56.1359 27.69 56.5359 28.11C56.9359 28.53 57.5759 28.74 58.4559 28.74C59.3359 28.74 59.9759 28.53 60.3759 28.11C60.7759 27.69 60.9759 27.02 60.9759 26.1C60.9759 25.17 60.7759 24.5 60.3759 24.09C59.9859 23.67 59.3459 23.46 58.4559 23.46C57.5659 23.46 56.9209 23.67 56.5209 24.09C56.1309 24.5 55.9359 25.17 55.9359 26.1ZM65.7162 30H64.2462V22.2H65.7162V25.41H70.2612V22.2H71.7312V30H70.2612V26.79H65.7162V30ZM75.4281 30H73.9581V22.2H75.4281V25.41H77.3031C77.3931 24.25 77.7481 23.405 78.3681 22.875C78.9881 22.345 79.9281 22.08 81.1881 22.08C82.5581 22.08 83.5531 22.4 84.1731 23.04C84.7931 23.68 85.1031 24.7 85.1031 26.1C85.1031 27.51 84.7931 28.535 84.1731 29.175C83.5531 29.805 82.5581 30.12 81.1881 30.12C79.9281 30.12 78.9881 29.855 78.3681 29.325C77.7481 28.795 77.3931 27.95 77.3031 26.79H75.4281V30ZM78.7431 26.1C78.7431 27.02 78.9381 27.69 79.3281 28.11C79.7181 28.53 80.3381 28.74 81.1881 28.74C82.0481 28.74 82.6681 28.53 83.0481 28.11C83.4381 27.69 83.6331 27.02 83.6331 26.1C83.6331 25.17 83.4381 24.5 83.0481 24.09C82.6681 23.67 82.0481 23.46 81.1881 23.46C80.3281 23.46 79.7031 23.67 79.3131 24.09C78.9331 24.5 78.7431 25.17 78.7431 26.1ZM86.9074 30V22.2H90.8974C91.8874 22.2 92.6074 22.365 93.0574 22.695C93.5074 23.025 93.7324 23.555 93.7324 24.285C93.7324 25.075 93.4774 25.63 92.9674 25.95C93.7174 26.27 94.0924 26.9 94.0924 27.84C94.0924 28.6 93.8624 29.15 93.4024 29.49C92.9424 29.83 92.1974 30 91.1674 30H86.9074ZM91.0324 26.595H88.3774V28.71H91.0324C91.5924 28.71 91.9974 28.63 92.2474 28.47C92.4974 28.3 92.6224 28.025 92.6224 27.645C92.6224 27.275 92.4974 27.01 92.2474 26.85C91.9974 26.68 91.5924 26.595 91.0324 26.595ZM88.3774 25.485H90.7174C91.2674 25.485 91.6624 25.405 91.9024 25.245C92.1424 25.085 92.2624 24.83 92.2624 24.48C92.2624 24.14 92.1374 23.89 91.8874 23.73C91.6474 23.57 91.2624 23.49 90.7324 23.49H88.3774V25.485ZM98.6162 30.12C97.5762 30.12 96.8162 29.935 96.3362 29.565C95.8562 29.195 95.6162 28.6 95.6162 27.78C95.6162 26.93 95.8812 26.325 96.4112 25.965C96.9512 25.595 97.8162 25.41 99.0062 25.41H101.661C101.661 24.7 101.481 24.185 101.121 23.865C100.761 23.535 100.186 23.37 99.3962 23.37C98.7662 23.37 98.2812 23.475 97.9412 23.685C97.6012 23.885 97.3712 24.21 97.2512 24.66H95.7962C95.9362 23.76 96.2962 23.105 96.8762 22.695C97.4562 22.285 98.3162 22.08 99.4562 22.08C100.736 22.08 101.666 22.345 102.246 22.875C102.836 23.395 103.131 24.23 103.131 25.38V30H101.661V28.995C101.071 29.745 100.056 30.12 98.6162 30.12ZM97.0862 27.72C97.0862 28.11 97.2362 28.395 97.5362 28.575C97.8462 28.745 98.3212 28.83 98.9612 28.83C99.8112 28.83 100.446 28.675 100.866 28.365C101.296 28.055 101.561 27.56 101.661 26.88V26.52H99.3812C97.8512 26.52 97.0862 26.92 97.0862 27.72ZM112.045 23.58H108.925V30H107.455V23.58H104.335V22.2H112.045V23.58ZM114.77 30H113.48V22.2H114.95V27.645L119.675 22.2H120.965V30H119.495V24.555L114.77 30ZM130.743 30.12C129.383 30.12 128.393 29.805 127.773 29.175C127.163 28.535 126.858 27.51 126.858 26.1C126.858 24.7 127.163 23.68 127.773 23.04C128.393 22.4 129.383 22.08 130.743 22.08C131.933 22.08 132.833 22.32 133.443 22.8C134.053 23.27 134.428 24.02 134.568 25.05H133.113C132.983 24.5 132.728 24.1 132.348 23.85C131.978 23.59 131.453 23.46 130.773 23.46C129.913 23.46 129.288 23.67 128.898 24.09C128.518 24.5 128.328 25.17 128.328 26.1C128.328 27.02 128.523 27.69 128.913 28.11C129.303 28.53 129.923 28.74 130.773 28.74C131.453 28.74 131.978 28.615 132.348 28.365C132.728 28.105 132.983 27.7 133.113 27.15H134.568C134.428 28.19 134.053 28.945 133.443 29.415C132.833 29.885 131.933 30.12 130.743 30.12ZM143.144 23.58H140.024V30H138.554V23.58H135.434V22.2H143.144V23.58ZM144.986 23.04C145.626 22.4 146.641 22.08 148.031 22.08C149.421 22.08 150.431 22.4 151.061 23.04C151.701 23.68 152.021 24.7 152.021 26.1C152.021 27.51 151.706 28.535 151.076 29.175C150.446 29.805 149.431 30.12 148.031 30.12C146.631 30.12 145.616 29.805 144.986 29.175C144.356 28.535 144.041 27.51 144.041 26.1C144.041 24.7 144.356 23.68 144.986 23.04ZM145.511 26.1C145.511 27.02 145.711 27.69 146.111 28.11C146.511 28.53 147.151 28.74 148.031 28.74C148.911 28.74 149.551 28.53 149.951 28.11C150.351 27.69 150.551 27.02 150.551 26.1C150.551 25.17 150.351 24.5 149.951 24.09C149.561 23.67 148.921 23.46 148.031 23.46C147.141 23.46 146.496 23.67 146.096 24.09C145.706 24.5 145.511 25.17 145.511 26.1ZM153.106 30V28.53H153.571C153.821 28.53 154.011 28.435 154.141 28.245C154.281 28.045 154.396 27.64 154.486 27.03C154.586 26.41 154.666 25.485 154.726 24.255L154.831 22.2H161.176V30H159.706V23.58H156.211L156.181 24.375C156.111 25.875 155.971 27.04 155.761 27.87C155.561 28.69 155.296 29.25 154.966 29.55C154.636 29.85 154.191 30 153.631 30H153.106ZM164.692 30H163.402V22.2H164.872V27.645L169.597 22.2H170.887V30H169.417V24.555L164.692 30ZM174.583 30H173.113V22.2H174.583V25.335H176.038L178.573 22.2H180.373L177.253 26.01L180.568 30H178.753L176.038 26.715H174.583V30Z" fill="#E59500"/>
<defs>
<filter id="filter0_f_133_2913" x="-3" y="0.25" width="209.75" height="48.5" filterUnits="userSpaceOnUse" color-interpolation-filters="sRGB">
<feFlood flood-opacity="0" result="BackgroundImageFix"/>
<feBlend mode="normal" in="SourceGraphic" in2="BackgroundImageFix" result="shape"/>
<feGaussianBlur stdDeviation="1" result="effect1_foregroundBlur_133_2913"/>
</filter>
</defs>
</svg>
