<svg width="140" height="38" viewBox="0 0 140 38" fill="none" xmlns="http://www.w3.org/2000/svg">
<path d="M137.087 21C138.468 20.9948 139.583 19.8714 139.578 18.4907C139.573 17.11 138.45 15.9949 137.069 16L137.087 21ZM1.22615 17.2388C0.253481 18.2188 0.259384 19.8017 1.23934 20.7743L17.2085 36.6248C18.1884 37.5975 19.7713 37.5916 20.744 36.6116C21.7166 35.6317 21.7107 34.0488 20.7308 33.0761L6.53601 18.9868L20.6253 4.79204C21.598 3.8121 21.5921 2.22919 20.6121 1.25653C19.6322 0.283868 18.0493 0.289771 17.0766 1.26972L1.22615 17.2388ZM137.069 16L2.99117 16.5L3.00982 21.5L137.087 21L137.069 16Z" fill="#FFEFCD"/>
</svg>
