<svg width="140" height="38" viewBox="0 0 140 38" fill="none" xmlns="http://www.w3.org/2000/svg">
<path d="M138.852 20.7612C139.825 19.7812 139.819 18.1983 138.839 17.2257L122.87 1.37519C121.89 0.402529 120.307 0.408432 119.335 1.38838C118.362 2.36832 118.368 3.95122 119.348 4.92389L133.543 19.0132L119.453 33.208C118.481 34.1879 118.487 35.7708 119.467 36.7435C120.446 37.7161 122.029 37.7102 123.002 36.7303L138.852 20.7612ZM2.99117 17C1.61047 17.0052 0.495361 18.1286 0.50051 19.5093C0.505659 20.89 1.62912 22.0051 3.00982 22L2.99117 17ZM137.069 16.5L2.99117 17L3.00982 22L137.087 21.5L137.069 16.5Z" fill="#FFEFCD"/>
</svg>
