<svg width="90" height="23" viewBox="0 0 90 23" fill="none" xmlns="http://www.w3.org/2000/svg">
<path d="M1.99707 10C1.16864 10 0.49707 10.6716 0.49707 11.5C0.49707 12.3284 1.16864 13 1.99707 13V10ZM89.0635 12.5607C89.6493 11.9749 89.6493 11.0251 89.0635 10.4393L79.5176 0.893398C78.9318 0.307611 77.9821 0.307611 77.3963 0.893398C76.8105 1.47919 76.8105 2.42893 77.3963 3.01472L85.8816 11.5L77.3963 19.9853C76.8105 20.5711 76.8105 21.5208 77.3963 22.1066C77.9821 22.6924 78.9318 22.6924 79.5176 22.1066L89.0635 12.5607ZM1.99707 13H88.0029V10H1.99707V13Z" fill="#E55200"/>
</svg>
