<svg width="229" height="229" viewBox="0 0 229 229" fill="none" xmlns="http://www.w3.org/2000/svg">
<g filter="url(#filter0_f_23_622)">
<rect x="6.25" y="6.25" width="216.5" height="216.5" rx="108.25" stroke="#E59500" stroke-width="2.5"/>
</g>
<rect x="6.25" y="6.25" width="216.5" height="216.5" rx="108.25" stroke="#E59500" stroke-width="2.5"/>
<path d="M32.0748 100.456H30.0828C30.2908 99 30.8588 97.952 31.7868 97.312C32.7148 96.672 34.1548 96.352 36.1068 96.352C37.9308 96.352 39.2588 96.632 40.0908 97.192C40.9388 97.736 41.3628 98.624 41.3628 99.856C41.3628 101.216 40.8028 102.128 39.6828 102.592C40.9628 103.04 41.6028 104.016 41.6028 105.52C41.6028 106.8 41.1708 107.728 40.3068 108.304C39.4428 108.88 38.0748 109.168 36.2028 109.168C34.2348 109.168 32.7708 108.848 31.8108 108.208C30.8668 107.552 30.2988 106.504 30.1068 105.064H32.0988C32.2748 105.896 32.6748 106.504 33.2988 106.888C33.9228 107.256 34.8668 107.44 36.1308 107.44C37.3308 107.44 38.2108 107.272 38.7708 106.936C39.3468 106.584 39.6348 106.032 39.6348 105.28C39.6348 104.608 39.4188 104.128 38.9868 103.84C38.5548 103.536 37.8428 103.384 36.8508 103.384H34.4028V101.872H36.6588C37.6188 101.872 38.3148 101.728 38.7468 101.44C39.1788 101.152 39.3948 100.696 39.3948 100.072C39.3948 99.384 39.1228 98.88 38.5788 98.56C38.0348 98.24 37.1868 98.08 36.0348 98.08C34.7868 98.08 33.8588 98.272 33.2508 98.656C32.6428 99.024 32.2508 99.624 32.0748 100.456ZM49.2104 109.168C47.5464 109.168 46.3224 108.88 45.5384 108.304C44.7544 107.712 44.3624 106.776 44.3624 105.496C44.3624 104.168 44.7944 103.216 45.6584 102.64C46.5224 102.048 47.9304 101.752 49.8824 101.752H54.3224V101.584C54.3224 100.352 54.0104 99.464 53.3864 98.92C52.7784 98.36 51.7864 98.08 50.4104 98.08C49.3064 98.08 48.4584 98.264 47.8664 98.632C47.2744 98.984 46.8664 99.552 46.6424 100.336H44.6744C44.9144 98.944 45.4904 97.936 46.4024 97.312C47.3144 96.672 48.6744 96.352 50.4824 96.352C52.5304 96.352 54.0104 96.768 54.9224 97.6C55.8504 98.416 56.3144 99.736 56.3144 101.56V109H54.3224V107.152C53.4264 108.496 51.7224 109.168 49.2104 109.168ZM46.3544 105.424C46.3544 106.128 46.6184 106.64 47.1464 106.96C47.6904 107.28 48.5224 107.44 49.6424 107.44C51.1464 107.44 52.2664 107.168 53.0024 106.624C53.7384 106.064 54.1784 105.176 54.3224 103.96V103.264H50.3384C48.9464 103.264 47.9304 103.44 47.2904 103.792C46.6664 104.128 46.3544 104.672 46.3544 105.424ZM66.0037 91.216L71.2597 90.832V92.68L66.1957 93.064C64.6597 93.192 63.5397 93.592 62.8357 94.264C62.1477 94.936 61.7557 96.096 61.6597 97.744C61.6117 98.464 61.5957 99.152 61.6117 99.808C61.7717 98.592 62.2197 97.712 62.9557 97.168C63.7077 96.624 64.8117 96.352 66.2677 96.352C68.4277 96.352 69.9877 96.856 70.9477 97.864C71.9237 98.872 72.4117 100.488 72.4117 102.712C72.4117 104.968 71.9157 106.608 70.9237 107.632C69.9317 108.656 68.3397 109.168 66.1477 109.168C64.6117 109.168 63.3797 108.912 62.4517 108.4C61.5397 107.888 60.8277 106.952 60.3157 105.592C59.8197 104.232 59.5717 102.368 59.5717 100C59.5717 96.96 60.0357 94.784 60.9637 93.472C61.8917 92.16 63.5717 91.408 66.0037 91.216ZM62.8837 99.28C62.2117 99.984 61.8757 101.136 61.8757 102.736C61.8757 104.336 62.2117 105.504 62.8837 106.24C63.5717 106.96 64.6677 107.32 66.1717 107.32C67.6597 107.32 68.7397 106.96 69.4117 106.24C70.0997 105.504 70.4437 104.336 70.4437 102.736C70.4437 101.152 70.0997 100 69.4117 99.28C68.7397 98.56 67.6597 98.2 66.1717 98.2C64.6677 98.2 63.5717 98.56 62.8837 99.28ZM75.569 115V96.52H77.561V98.488C78.409 97.064 80.033 96.352 82.433 96.352C84.465 96.352 85.937 96.864 86.849 97.888C87.761 98.896 88.217 100.52 88.217 102.76C88.217 105 87.761 106.632 86.849 107.656C85.937 108.664 84.465 109.168 82.433 109.168C80.049 109.168 78.425 108.456 77.561 107.032V115H75.569ZM78.617 106.24C79.305 106.96 80.409 107.32 81.929 107.32C83.449 107.32 84.545 106.96 85.217 106.24C85.905 105.52 86.249 104.36 86.249 102.76C86.249 101.176 85.905 100.024 85.217 99.304C84.529 98.568 83.433 98.2 81.929 98.2C80.425 98.2 79.329 98.568 78.641 99.304C77.953 100.024 77.609 101.176 77.609 102.76C77.609 104.36 77.945 105.52 78.617 106.24ZM92.1813 97.888C93.1893 96.864 94.8053 96.352 97.0293 96.352C99.2533 96.352 100.861 96.864 101.853 97.888C102.861 98.896 103.365 100.52 103.365 102.76C103.365 105 102.861 106.632 101.853 107.656C100.861 108.664 99.2533 109.168 97.0293 109.168C94.8053 109.168 93.1893 108.664 92.1813 107.656C91.1733 106.632 90.6693 105 90.6693 102.76C90.6693 100.52 91.1733 98.896 92.1813 97.888ZM92.6373 102.76C92.6373 104.344 92.9813 105.504 93.6693 106.24C94.3733 106.96 95.4933 107.32 97.0293 107.32C98.5493 107.32 99.6533 106.96 100.341 106.24C101.045 105.504 101.397 104.344 101.397 102.76C101.397 101.16 101.053 100 100.365 99.28C99.6773 98.56 98.5653 98.2 97.0293 98.2C95.4933 98.2 94.3733 98.56 93.6693 99.28C92.9813 100 92.6373 101.16 92.6373 102.76ZM106.53 109V96.52H108.522V101.824H116.442V96.52H118.434V109H116.442V103.696H108.522V109H106.53ZM124.319 109H122.327V96.52H124.319V101.824H127.559C127.687 99.92 128.247 98.536 129.239 97.672C130.247 96.792 131.759 96.352 133.775 96.352C135.967 96.352 137.551 96.864 138.527 97.888C139.519 98.896 140.015 100.52 140.015 102.76C140.015 105 139.519 106.632 138.527 107.656C137.551 108.664 135.967 109.168 133.775 109.168C131.743 109.168 130.231 108.736 129.239 107.872C128.247 107.008 127.687 105.616 127.559 103.696H124.319V109ZM129.503 102.76C129.503 104.344 129.839 105.504 130.511 106.24C131.199 106.96 132.287 107.32 133.775 107.32C135.263 107.32 136.343 106.96 137.015 106.24C137.687 105.504 138.023 104.344 138.023 102.76C138.023 101.144 137.687 99.984 137.015 99.28C136.359 98.56 135.279 98.2 133.775 98.2C132.287 98.2 131.199 98.56 130.511 99.28C129.839 100 129.503 101.16 129.503 102.76ZM149.931 109H143.163V96.52H149.427C150.995 96.52 152.131 96.784 152.835 97.312C153.555 97.824 153.915 98.656 153.915 99.808C153.915 101.104 153.467 102.008 152.571 102.52C153.867 102.984 154.515 104 154.515 105.568C154.515 106.784 154.155 107.664 153.435 108.208C152.715 108.736 151.547 109 149.931 109ZM149.739 103.384H145.155V107.248H149.763C150.739 107.248 151.443 107.096 151.875 106.792C152.307 106.488 152.523 105.992 152.523 105.304C152.523 104.632 152.307 104.144 151.875 103.84C151.443 103.536 150.731 103.384 149.739 103.384ZM145.155 101.872H149.211C150.171 101.872 150.859 101.728 151.275 101.44C151.707 101.152 151.923 100.696 151.923 100.072C151.923 99.448 151.707 98.992 151.275 98.704C150.859 98.416 150.171 98.272 149.211 98.272H145.155V101.872ZM162.109 109.168C160.445 109.168 159.221 108.88 158.437 108.304C157.653 107.712 157.261 106.776 157.261 105.496C157.261 104.168 157.693 103.216 158.557 102.64C159.421 102.048 160.829 101.752 162.781 101.752H167.221V101.584C167.221 100.352 166.909 99.464 166.285 98.92C165.677 98.36 164.685 98.08 163.309 98.08C162.205 98.08 161.357 98.264 160.765 98.632C160.173 98.984 159.765 99.552 159.541 100.336H157.573C157.813 98.944 158.389 97.936 159.301 97.312C160.213 96.672 161.573 96.352 163.381 96.352C165.429 96.352 166.909 96.768 167.821 97.6C168.749 98.416 169.213 99.736 169.213 101.56V109H167.221V107.152C166.325 108.496 164.621 109.168 162.109 109.168ZM159.253 105.424C159.253 106.128 159.517 106.64 160.045 106.96C160.589 107.28 161.421 107.44 162.541 107.44C164.045 107.44 165.165 107.168 165.901 106.624C166.637 106.064 167.077 105.176 167.221 103.96V103.264H163.237C161.845 103.264 160.829 103.44 160.189 103.792C159.565 104.128 159.253 104.672 159.253 105.424ZM171.351 98.368V96.52H183.711V98.368H178.503V109H176.535V98.368H171.351ZM188.016 109H186.264V96.52H188.256V105.856L196.416 96.52H198.168V109H196.176V99.664L188.016 109ZM77.7017 141.168C75.5257 141.168 73.9417 140.664 72.9497 139.656C71.9737 138.632 71.4857 137 71.4857 134.76C71.4857 132.52 71.9737 130.896 72.9497 129.888C73.9417 128.864 75.5257 128.352 77.7017 128.352C79.5577 128.352 80.9657 128.72 81.9257 129.456C82.9017 130.176 83.5097 131.336 83.7497 132.936H81.7817C81.5577 131.992 81.1177 131.304 80.4617 130.872C79.8217 130.424 78.9097 130.2 77.7257 130.2C76.2217 130.2 75.1337 130.56 74.4617 131.28C73.7897 132 73.4537 133.16 73.4537 134.76C73.4537 136.344 73.7897 137.504 74.4617 138.24C75.1497 138.96 76.2377 139.32 77.7257 139.32C78.9097 139.32 79.8217 139.104 80.4617 138.672C81.1177 138.224 81.5577 137.528 81.7817 136.584H83.7497C83.5097 138.184 82.9017 139.352 81.9257 140.088C80.9657 140.808 79.5577 141.168 77.7017 141.168ZM85.2998 130.368V128.52H97.6598V130.368H92.4518V141H90.4838V130.368H85.2998ZM100.771 129.888C101.779 128.864 103.395 128.352 105.619 128.352C107.843 128.352 109.451 128.864 110.443 129.888C111.451 130.896 111.955 132.52 111.955 134.76C111.955 137 111.451 138.632 110.443 139.656C109.451 140.664 107.843 141.168 105.619 141.168C103.395 141.168 101.779 140.664 100.771 139.656C99.7632 138.632 99.2592 137 99.2592 134.76C99.2592 132.52 99.7632 130.896 100.771 129.888ZM101.227 134.76C101.227 136.344 101.571 137.504 102.259 138.24C102.963 138.96 104.083 139.32 105.619 139.32C107.139 139.32 108.243 138.96 108.931 138.24C109.635 137.504 109.987 136.344 109.987 134.76C109.987 133.16 109.643 132 108.955 131.28C108.267 130.56 107.155 130.2 105.619 130.2C104.083 130.2 102.963 130.56 102.259 131.28C101.571 132 101.227 133.16 101.227 134.76ZM113.856 141V139.032H114.6C115.016 139.032 115.336 138.872 115.56 138.552C115.784 138.216 115.984 137.512 116.16 136.44C116.336 135.368 116.472 133.784 116.568 131.688L116.712 128.52H126.72V141H124.728V130.368H118.56L118.512 131.832C118.4 134.296 118.184 136.2 117.864 137.544C117.56 138.888 117.16 139.8 116.664 140.28C116.168 140.76 115.504 141 114.672 141H113.856ZM132.364 141H130.612V128.52H132.604V137.856L140.764 128.52H142.516V141H140.524V131.664L132.364 141ZM148.401 141H146.409V128.52H148.401V133.704H150.969L155.265 128.52H157.689L152.601 134.616L158.001 141H155.553L150.969 135.576H148.401V141Z" fill="#FFEFCD"/>
<defs>
<filter id="filter0_f_23_622" x="0" y="0" width="229" height="229" filterUnits="userSpaceOnUse" color-interpolation-filters="sRGB">
<feFlood flood-opacity="0" result="BackgroundImageFix"/>
<feBlend mode="normal" in="SourceGraphic" in2="BackgroundImageFix" result="shape"/>
<feGaussianBlur stdDeviation="2.5" result="effect1_foregroundBlur_23_622"/>
</filter>
</defs>
</svg>
