<svg width="185" height="184" viewBox="0 0 185 184" fill="none" xmlns="http://www.w3.org/2000/svg">
<g filter="url(#filter0_f_23_626)">
<rect x="5.5" y="5" width="174" height="174" rx="87" stroke="#FFEFCD" stroke-width="2"/>
</g>
<rect x="5.5" y="5" width="174" height="174" rx="87" stroke="#FFEFCD" stroke-width="2"/>
<path d="M43.4315 80.7797H41.7715C41.9448 79.5663 42.4182 78.693 43.1915 78.1597C43.9648 77.6263 45.1648 77.3597 46.7915 77.3597C48.3115 77.3597 49.4182 77.593 50.1115 78.0597C50.8182 78.513 51.1715 79.253 51.1715 80.2797C51.1715 81.413 50.7048 82.173 49.7715 82.5597C50.8382 82.933 51.3715 83.7463 51.3715 84.9997C51.3715 86.0663 51.0115 86.8397 50.2915 87.3197C49.5715 87.7997 48.4315 88.0397 46.8715 88.0397C45.2315 88.0397 44.0115 87.773 43.2115 87.2397C42.4248 86.693 41.9515 85.8197 41.7915 84.6197H43.4515C43.5982 85.313 43.9315 85.8197 44.4515 86.1397C44.9715 86.4463 45.7582 86.5997 46.8115 86.5997C47.8115 86.5997 48.5448 86.4597 49.0115 86.1797C49.4915 85.8863 49.7315 85.4263 49.7315 84.7997C49.7315 84.2397 49.5515 83.8397 49.1915 83.5997C48.8315 83.3463 48.2382 83.2197 47.4115 83.2197H45.3715V81.9597H47.2515C48.0515 81.9597 48.6315 81.8397 48.9915 81.5997C49.3515 81.3597 49.5315 80.9797 49.5315 80.4597C49.5315 79.8863 49.3048 79.4663 48.8515 79.1997C48.3982 78.933 47.6915 78.7997 46.7315 78.7997C45.6915 78.7997 44.9182 78.9597 44.4115 79.2797C43.9048 79.5863 43.5782 80.0863 43.4315 80.7797ZM57.7112 88.0397C56.3245 88.0397 55.3045 87.7997 54.6512 87.3197C53.9978 86.8263 53.6712 86.0463 53.6712 84.9797C53.6712 83.873 54.0312 83.0797 54.7512 82.5997C55.4712 82.1063 56.6445 81.8597 58.2712 81.8597H61.9712V81.7197C61.9712 80.693 61.7112 79.953 61.1912 79.4997C60.6845 79.033 59.8578 78.7997 58.7112 78.7997C57.7912 78.7997 57.0845 78.953 56.5912 79.2597C56.0978 79.553 55.7578 80.0263 55.5712 80.6797H53.9312C54.1312 79.5197 54.6112 78.6797 55.3712 78.1597C56.1312 77.6263 57.2645 77.3597 58.7712 77.3597C60.4778 77.3597 61.7112 77.7063 62.4712 78.3997C63.2445 79.0797 63.6312 80.1797 63.6312 81.6997V87.8997H61.9712V86.3597C61.2245 87.4797 59.8045 88.0397 57.7112 88.0397ZM55.3312 84.9197C55.3312 85.5063 55.5512 85.933 55.9912 86.1997C56.4445 86.4663 57.1378 86.5997 58.0712 86.5997C59.3245 86.5997 60.2578 86.373 60.8712 85.9197C61.4845 85.453 61.8512 84.713 61.9712 83.6997V83.1197H58.6512C57.4912 83.1197 56.6445 83.2663 56.1112 83.5597C55.5912 83.8397 55.3312 84.293 55.3312 84.9197ZM68.4655 87.8997H66.8055V77.4997H69.4655L73.5055 86.2797L77.5255 77.4997H80.1855V87.8997H78.5455V78.9597L74.3855 87.8997H72.6255L68.4655 78.9597V87.8997ZM84.0866 78.6397C84.9266 77.7863 86.2733 77.3597 88.1266 77.3597C89.98 77.3597 91.32 77.7863 92.1466 78.6397C92.9866 79.4797 93.4066 80.833 93.4066 82.6997C93.4066 84.5663 92.9866 85.9263 92.1466 86.7797C91.32 87.6197 89.98 88.0397 88.1266 88.0397C86.2733 88.0397 84.9266 87.6197 84.0866 86.7797C83.2466 85.9263 82.8266 84.5663 82.8266 82.6997C82.8266 80.833 83.2466 79.4797 84.0866 78.6397ZM84.4666 82.6997C84.4666 84.0197 84.7533 84.9863 85.3266 85.5997C85.9133 86.1997 86.8466 86.4997 88.1266 86.4997C89.3933 86.4997 90.3133 86.1997 90.8866 85.5997C91.4733 84.9863 91.7666 84.0197 91.7666 82.6997C91.7666 81.3663 91.48 80.3997 90.9066 79.7997C90.3333 79.1997 89.4066 78.8997 88.1266 78.8997C86.8466 78.8997 85.9133 79.1997 85.3266 79.7997C84.7533 80.3997 84.4666 81.3663 84.4666 82.6997ZM101.684 87.8997H96.0438V77.4997H101.264C102.57 77.4997 103.517 77.7197 104.104 78.1597C104.704 78.5863 105.004 79.2797 105.004 80.2397C105.004 81.3197 104.63 82.073 103.884 82.4997C104.964 82.8863 105.504 83.733 105.504 85.0397C105.504 86.053 105.204 86.7863 104.604 87.2397C104.004 87.6797 103.03 87.8997 101.684 87.8997ZM101.524 83.2197H97.7038V86.4397H101.544C102.357 86.4397 102.944 86.313 103.304 86.0597C103.664 85.8063 103.844 85.393 103.844 84.8197C103.844 84.2597 103.664 83.853 103.304 83.5997C102.944 83.3463 102.35 83.2197 101.524 83.2197ZM97.7038 81.9597H101.084C101.884 81.9597 102.457 81.8397 102.804 81.5997C103.164 81.3597 103.344 80.9797 103.344 80.4597C103.344 79.9397 103.164 79.5597 102.804 79.3197C102.457 79.0797 101.884 78.9597 101.084 78.9597H97.7038V81.9597ZM109.652 87.8997H108.192V77.4997H109.852V85.2797L116.652 77.4997H118.112V87.8997H116.452V80.1197L109.652 87.8997ZM120.256 79.0397V77.4997H130.556V79.0397H126.216V87.8997H124.576V79.0397H120.256ZM134.144 87.8997H132.684V77.4997H134.344V85.2797L141.144 77.4997H142.604V87.8997H140.944V80.1197L134.144 87.8997ZM43.7836 118.1V113.34H45.2036C45.6569 113.06 45.9836 112.52 46.1836 111.72C46.3969 110.92 46.5569 109.393 46.6636 107.14L46.7836 104.5H55.1236V113.34H57.0636V118.1H55.4236V114.9H45.4436V118.1H43.7836ZM47.2236 113.34H53.4636V106.04H48.3436L48.2836 107.26C48.1369 110.353 47.7836 112.38 47.2236 113.34ZM60.0144 105.64C60.8544 104.786 62.201 104.36 64.0544 104.36C65.9077 104.36 67.2477 104.786 68.0744 105.64C68.9144 106.48 69.3344 107.833 69.3344 109.7C69.3344 111.566 68.9144 112.926 68.0744 113.78C67.2477 114.62 65.9077 115.04 64.0544 115.04C62.201 115.04 60.8544 114.62 60.0144 113.78C59.1744 112.926 58.7544 111.566 58.7544 109.7C58.7544 107.833 59.1744 106.48 60.0144 105.64ZM60.3944 109.7C60.3944 111.02 60.681 111.986 61.2544 112.6C61.841 113.2 62.7744 113.5 64.0544 113.5C65.321 113.5 66.241 113.2 66.8144 112.6C67.401 111.986 67.6944 111.02 67.6944 109.7C67.6944 108.366 67.4077 107.4 66.8344 106.8C66.261 106.2 65.3344 105.9 64.0544 105.9C62.7744 105.9 61.841 106.2 61.2544 106.8C60.681 107.4 60.3944 108.366 60.3944 109.7ZM76.5516 115.04C74.7382 115.04 73.4182 114.62 72.5916 113.78C71.7782 112.926 71.3716 111.566 71.3716 109.7C71.3716 107.833 71.7782 106.48 72.5916 105.64C73.4182 104.786 74.7382 104.36 76.5516 104.36C78.0982 104.36 79.2716 104.666 80.0716 105.28C80.8849 105.88 81.3916 106.846 81.5916 108.18H79.9516C79.7649 107.393 79.3982 106.82 78.8516 106.46C78.3182 106.086 77.5582 105.9 76.5716 105.9C75.3182 105.9 74.4116 106.2 73.8516 106.8C73.2916 107.4 73.0116 108.366 73.0116 109.7C73.0116 111.02 73.2916 111.986 73.8516 112.6C74.4249 113.2 75.3316 113.5 76.5716 113.5C77.5582 113.5 78.3182 113.32 78.8516 112.96C79.3982 112.586 79.7649 112.006 79.9516 111.22H81.5916C81.3916 112.553 80.8849 113.526 80.0716 114.14C79.2716 114.74 78.0982 115.04 76.5516 115.04ZM82.8833 106.04V104.5H93.1833V106.04H88.8433V114.9H87.2033V106.04H82.8833ZM98.7561 115.04C97.3694 115.04 96.3494 114.8 95.6961 114.32C95.0428 113.826 94.7161 113.046 94.7161 111.98C94.7161 110.873 95.0761 110.08 95.7961 109.6C96.5161 109.106 97.6894 108.86 99.3161 108.86H103.016V108.72C103.016 107.693 102.756 106.953 102.236 106.5C101.729 106.033 100.903 105.8 99.7561 105.8C98.8361 105.8 98.1294 105.953 97.6361 106.26C97.1428 106.553 96.8028 107.026 96.6161 107.68H94.9761C95.1761 106.52 95.6561 105.68 96.4161 105.16C97.1761 104.626 98.3094 104.36 99.8161 104.36C101.523 104.36 102.756 104.706 103.516 105.4C104.289 106.08 104.676 107.18 104.676 108.7V114.9H103.016V113.36C102.269 114.48 100.849 115.04 98.7561 115.04ZM96.3761 111.92C96.3761 112.506 96.5961 112.933 97.0361 113.2C97.4894 113.466 98.1828 113.6 99.1161 113.6C100.369 113.6 101.303 113.373 101.916 112.92C102.529 112.453 102.896 111.713 103.016 110.7V110.12H99.6961C98.5361 110.12 97.6894 110.266 97.1561 110.56C96.6361 110.84 96.3761 111.293 96.3761 111.92ZM113.49 114.9H107.85V104.5H113.07C114.377 104.5 115.324 104.72 115.91 105.16C116.51 105.586 116.81 106.28 116.81 107.24C116.81 108.32 116.437 109.073 115.69 109.5C116.77 109.886 117.31 110.733 117.31 112.04C117.31 113.053 117.01 113.786 116.41 114.24C115.81 114.68 114.837 114.9 113.49 114.9ZM113.33 110.22H109.51V113.44H113.35C114.164 113.44 114.75 113.313 115.11 113.06C115.47 112.806 115.65 112.393 115.65 111.82C115.65 111.26 115.47 110.853 115.11 110.6C114.75 110.346 114.157 110.22 113.33 110.22ZM109.51 108.96H112.89C113.69 108.96 114.264 108.84 114.61 108.6C114.97 108.36 115.15 107.98 115.15 107.46C115.15 106.94 114.97 106.56 114.61 106.32C114.264 106.08 113.69 105.96 112.89 105.96H109.51V108.96ZM121.659 114.9H119.999V104.5H121.659V108.82H123.799L127.379 104.5H129.399L125.159 109.58L129.659 114.9H127.619L123.799 110.38H121.659V114.9ZM135.153 114.9L130.733 104.5H132.493L136.033 112.76L139.593 104.5H141.353L134.813 119.9H133.033L135.153 114.9Z" fill="#FFEFCD"/>
<defs>
<filter id="filter0_f_23_626" x="0.5" y="0" width="184" height="184" filterUnits="userSpaceOnUse" color-interpolation-filters="sRGB">
<feFlood flood-opacity="0" result="BackgroundImageFix"/>
<feBlend mode="normal" in="SourceGraphic" in2="BackgroundImageFix" result="shape"/>
<feGaussianBlur stdDeviation="2" result="effect1_foregroundBlur_23_626"/>
</filter>
</defs>
</svg>
