<svg width="429" height="65" viewBox="0 0 429 65" fill="none" xmlns="http://www.w3.org/2000/svg">
<rect x="1" y="1" width="427" height="63" stroke="#FFEFCD" stroke-width="2"/>
<path d="M25.2558 34.248H27.2478C27.2478 35.32 27.6798 36.104 28.5438 36.6C29.4238 37.08 30.8078 37.32 32.6958 37.32C34.5838 37.32 35.9598 37.08 36.8238 36.6C37.7038 36.104 38.1438 35.328 38.1438 34.272C38.1438 33.2 37.7598 32.432 36.9918 31.968C36.2238 31.488 34.9838 31.248 33.2718 31.248H30.0558V29.496H33.3918C34.9918 29.496 36.1438 29.28 36.8478 28.848C37.5678 28.4 37.9278 27.672 37.9278 26.664C37.9278 25.688 37.5118 24.984 36.6797 24.552C35.8638 24.104 34.5598 23.88 32.7678 23.88C30.9598 23.88 29.6478 24.104 28.8318 24.552C28.0158 25 27.6078 25.712 27.6078 26.688H25.6158C25.6158 25.056 26.1758 23.872 27.2958 23.136C28.4158 22.4 30.2398 22.032 32.7678 22.032C35.2958 22.032 37.1118 22.384 38.2158 23.088C39.3358 23.776 39.8958 24.904 39.8958 26.472C39.8958 28.44 39.0638 29.736 37.3998 30.36C39.2078 31.032 40.1118 32.408 40.1118 34.488C40.1118 36.12 39.5198 37.312 38.3358 38.064C37.1678 38.8 35.2878 39.168 32.6958 39.168C30.1038 39.168 28.2158 38.784 27.0318 38.016C25.8478 37.232 25.2558 35.976 25.2558 34.248ZM47.7651 39.168C46.1011 39.168 44.8771 38.88 44.0931 38.304C43.3091 37.712 42.9171 36.776 42.9171 35.496C42.9171 34.168 43.3491 33.216 44.2131 32.64C45.0771 32.048 46.4851 31.752 48.4371 31.752H52.8771V31.584C52.8771 30.352 52.5651 29.464 51.9411 28.92C51.3331 28.36 50.3411 28.08 48.9651 28.08C47.8611 28.08 47.0131 28.264 46.4211 28.632C45.8291 28.984 45.4211 29.552 45.1971 30.336H43.2291C43.4691 28.944 44.0451 27.936 44.9571 27.312C45.8691 26.672 47.2291 26.352 49.0371 26.352C51.0851 26.352 52.5651 26.768 53.4771 27.6C54.4051 28.416 54.8691 29.736 54.8691 31.56V39H52.8771V37.152C51.9811 38.496 50.2771 39.168 47.7651 39.168ZM44.9091 35.424C44.9091 36.128 45.1731 36.64 45.7011 36.96C46.2451 37.28 47.0771 37.44 48.1971 37.44C49.7011 37.44 50.8211 37.168 51.5571 36.624C52.2931 36.064 52.7331 35.176 52.8771 33.96V33.264H48.8931C47.5011 33.264 46.4851 33.44 45.8451 33.792C45.2211 34.128 44.9091 34.672 44.9091 35.424ZM60.6704 39H58.6784V26.52H61.8704L66.7184 37.056L71.5424 26.52H74.7344V39H72.7664V28.272L67.7744 39H65.6624L60.6704 28.272V39ZM79.4157 27.888C80.4237 26.864 82.0397 26.352 84.2637 26.352C86.4877 26.352 88.0957 26.864 89.0877 27.888C90.0957 28.896 90.5997 30.52 90.5997 32.76C90.5997 35 90.0957 36.632 89.0877 37.656C88.0957 38.664 86.4877 39.168 84.2637 39.168C82.0397 39.168 80.4237 38.664 79.4157 37.656C78.4077 36.632 77.9037 35 77.9037 32.76C77.9037 30.52 78.4077 28.896 79.4157 27.888ZM79.8717 32.76C79.8717 34.344 80.2157 35.504 80.9037 36.24C81.6077 36.96 82.7277 37.32 84.2637 37.32C85.7837 37.32 86.8877 36.96 87.5757 36.24C88.2797 35.504 88.6317 34.344 88.6317 32.76C88.6317 31.16 88.2877 30 87.5997 29.28C86.9117 28.56 85.7997 28.2 84.2637 28.2C82.7277 28.2 81.6077 28.56 80.9037 29.28C80.2157 30 79.8717 31.16 79.8717 32.76ZM100.532 39H93.7643V26.52H100.028C101.596 26.52 102.732 26.784 103.436 27.312C104.156 27.824 104.516 28.656 104.516 29.808C104.516 31.104 104.068 32.008 103.172 32.52C104.468 32.984 105.116 34 105.116 35.568C105.116 36.784 104.756 37.664 104.036 38.208C103.316 38.736 102.148 39 100.532 39ZM100.34 33.384H95.7563V37.248H100.364C101.34 37.248 102.044 37.096 102.476 36.792C102.908 36.488 103.124 35.992 103.124 35.304C103.124 34.632 102.908 34.144 102.476 33.84C102.044 33.536 101.332 33.384 100.34 33.384ZM95.7563 31.872H99.8123C100.772 31.872 101.46 31.728 101.876 31.44C102.308 31.152 102.524 30.696 102.524 30.072C102.524 29.448 102.308 28.992 101.876 28.704C101.46 28.416 100.772 28.272 99.8123 28.272H95.7563V31.872ZM110.094 39H108.342V26.52H110.334V35.856L118.494 26.52H120.246V39H118.254V29.664L110.094 39ZM122.819 28.368V26.52H135.179V28.368H129.971V39H128.003V28.368H122.819ZM139.485 39H137.733V26.52H139.725V35.856L147.885 26.52H149.637V39H147.645V29.664L139.485 39ZM162.155 39H160.163V26.52H162.155V31.704H164.723L169.019 26.52H171.443L166.355 32.616L171.755 39H169.307L164.723 33.576H162.155V39ZM178.382 39.168C176.718 39.168 175.494 38.88 174.71 38.304C173.926 37.712 173.534 36.776 173.534 35.496C173.534 34.168 173.966 33.216 174.83 32.64C175.694 32.048 177.102 31.752 179.054 31.752H183.494V31.584C183.494 30.352 183.182 29.464 182.558 28.92C181.95 28.36 180.958 28.08 179.582 28.08C178.478 28.08 177.63 28.264 177.038 28.632C176.446 28.984 176.038 29.552 175.814 30.336H173.846C174.086 28.944 174.662 27.936 175.574 27.312C176.486 26.672 177.846 26.352 179.654 26.352C181.702 26.352 183.182 26.768 184.094 27.6C185.022 28.416 185.486 29.736 185.486 31.56V39H183.494V37.152C182.598 38.496 180.894 39.168 178.382 39.168ZM175.526 35.424C175.526 36.128 175.79 36.64 176.318 36.96C176.862 37.28 177.694 37.44 178.814 37.44C180.318 37.44 181.438 37.168 182.174 36.624C182.91 36.064 183.35 35.176 183.494 33.96V33.264H179.51C178.118 33.264 177.102 33.44 176.462 33.792C175.838 34.128 175.526 34.672 175.526 35.424ZM189.296 45V26.52H191.288V28.488C192.136 27.064 193.76 26.352 196.16 26.352C198.192 26.352 199.664 26.864 200.576 27.888C201.488 28.896 201.944 30.52 201.944 32.76C201.944 35 201.488 36.632 200.576 37.656C199.664 38.664 198.192 39.168 196.16 39.168C193.776 39.168 192.152 38.456 191.288 37.032V45H189.296ZM192.344 36.24C193.032 36.96 194.136 37.32 195.656 37.32C197.176 37.32 198.272 36.96 198.944 36.24C199.632 35.52 199.976 34.36 199.976 32.76C199.976 31.176 199.632 30.024 198.944 29.304C198.256 28.568 197.16 28.2 195.656 28.2C194.152 28.2 193.056 28.568 192.368 29.304C191.68 30.024 191.336 31.176 191.336 32.76C191.336 34.36 191.672 35.52 192.344 36.24ZM203.562 28.368V26.52H215.922V28.368H210.714V39H208.746V28.368H203.562ZM220.467 39H218.475V26.52H220.467V31.704H223.035L227.331 26.52H229.755L224.667 32.616L230.067 39H227.619L223.035 33.576H220.467V39ZM236.661 39L231.357 26.52H233.469L237.717 36.432L241.989 26.52H244.101L236.253 45H234.117L236.661 39Z" fill="#FFEFCD"/>
<path d="M405.702 33.7193C406.095 33.3316 406.1 32.6984 405.712 32.3051L399.394 25.8958C399.006 25.5025 398.373 25.498 397.98 25.8857C397.586 26.2735 397.582 26.9066 397.969 27.2999L403.586 32.997L397.889 38.6133C397.495 39.0011 397.491 39.6342 397.879 40.0275C398.266 40.4208 398.899 40.4253 399.293 40.0376L405.702 33.7193ZM263.993 33L404.993 34.0071L405.007 32.0072L264.007 31L263.993 33Z" fill="#FFEFCD"/>
</svg>
