<svg width="43" height="12" viewBox="0 0 43 12" fill="none" xmlns="http://www.w3.org/2000/svg">
<path d="M1.40137 5.03857C0.987154 5.03857 0.651367 5.37436 0.651367 5.78857C0.651367 6.20279 0.987154 6.53857 1.40137 6.53857V5.03857ZM42.5304 6.3189C42.8233 6.02601 42.8233 5.55114 42.5304 5.25824L37.7574 0.485273C37.4645 0.19238 36.9896 0.19238 36.6968 0.485273C36.4039 0.778167 36.4039 1.25304 36.6968 1.54593L40.9394 5.78857L36.6968 10.0312C36.4039 10.3241 36.4039 10.799 36.6968 11.0919C36.9896 11.3848 37.4645 11.3848 37.7574 11.0919L42.5304 6.3189ZM1.40137 6.53857H42.0001V5.03857H1.40137V6.53857Z" fill="#E55200"/>
</svg>
