<svg width="667" height="287" viewBox="0 0 667 287" fill="none" xmlns="http://www.w3.org/2000/svg">
<path d="M0.553131 24.0612C0.553131 18.8987 2.07424 14.5197 5.11647 10.9243C8.15869 7.2368 12.1228 4.51724 17.0088 2.76565C21.8948 0.921884 27.1495 0 32.773 0C38.4887 0 43.9279 0.921884 49.0904 2.76565C54.253 4.60942 58.4476 7.28289 61.6742 10.7861C64.9008 14.2892 66.5141 18.4377 66.5141 23.2315C66.5141 26.3659 65.3617 28.9011 63.057 30.8371C60.8445 32.6808 58.2171 33.6027 55.1749 33.6027C52.9623 33.6027 50.8881 33.0957 48.9521 32.0816C47.0162 30.9754 45.5873 29.4082 44.6654 27.38C44.2966 26.5503 44.1122 25.6284 44.1122 24.6143C44.1122 22.9549 44.6654 21.6643 45.7716 20.7424C46.9701 19.7284 48.3068 19.4057 49.7818 19.7745C50.7037 20.051 51.349 20.4198 51.7178 20.8807C52.1787 21.3417 52.6858 22.0331 53.2389 22.955C53.6998 23.8768 54.1608 24.5683 54.6217 25.0292C55.1749 25.4901 56.0507 25.7206 57.2491 25.7206C59.5538 25.7206 60.7062 24.0612 60.7062 20.7424C60.7062 14.8424 58.171 10.3251 53.1006 7.19071C48.1224 3.9641 42.1763 2.3508 35.2621 2.3508C28.4402 2.3508 22.494 3.82582 17.4236 6.77586C12.4455 9.72589 9.95637 13.69 9.95637 18.6682C9.95637 22.7245 11.247 26.1815 13.8283 29.0394C16.4096 31.8972 19.544 34.2481 23.2315 36.0918C27.0113 37.9356 32.2199 40.1481 38.8575 42.7294C45.8638 45.4029 51.5334 47.8459 55.8663 50.0584C60.1991 52.1787 63.8406 55.0366 66.7906 58.6319C69.8328 62.1351 71.354 66.468 71.354 71.6305C71.354 77.4384 69.5563 82.4166 65.9609 86.5651C62.4578 90.7136 57.8483 93.848 52.1326 95.9683C46.417 98.0886 40.3786 99.1488 34.0176 99.1488C28.0253 99.1488 22.4479 98.2269 17.2854 96.3832C12.1228 94.4472 7.92822 91.6354 4.70162 87.9479C1.56721 84.2604 0 79.7892 0 74.5345C0 70.8469 1.15236 67.7586 3.45707 65.2695C5.76179 62.7804 8.38916 61.5359 11.3392 61.5359C13.6439 61.5359 15.7182 62.089 17.5619 63.1953C19.4979 64.2093 20.9268 65.7305 21.8487 67.7586C22.2174 68.5883 22.4018 69.5102 22.4018 70.5243C22.4018 72.1837 21.8026 73.5204 20.6041 74.5345C19.4979 75.4564 18.2072 75.7329 16.7322 75.3642C15.7182 75.0876 14.9806 74.7649 14.5197 74.3962C14.1509 73.9352 13.7822 73.2899 13.4134 72.4602C12.9525 71.6305 12.4916 71.0313 12.0306 70.6625C11.5697 70.2938 10.74 70.1094 9.54152 70.1094C8.43526 70.1094 7.55946 70.8469 6.91414 72.3219C6.26882 73.797 6.03835 75.5946 6.22273 77.715C6.77586 84.1682 9.44933 89.0081 14.2431 92.2347C19.1291 95.4613 25.0292 97.0746 31.9433 97.0746C36.8293 97.0746 41.5771 96.2449 46.1865 94.5855C50.7959 92.9261 54.5295 90.5753 57.3874 87.5331C60.3374 84.4908 61.8124 80.9877 61.8124 77.0236C61.8124 72.5063 60.4296 68.6805 57.664 65.5461C54.9905 62.4117 51.6717 59.8765 47.7076 57.9405C43.7435 55.9124 38.3965 53.6537 31.6668 51.1647C24.8448 48.6756 19.3596 46.417 15.2111 44.3888C11.0626 42.3607 7.55946 39.6872 4.70162 36.3684C1.93596 33.0496 0.553131 28.9472 0.553131 24.0612Z" fill="#FFEFCD"/>
<path d="M147.539 97.9043C146.802 97.9043 144.774 97.9043 141.455 97.9043C138.228 97.9043 136.062 97.3511 134.955 96.2449C133.941 95.0464 133.434 93.2027 133.434 90.7136V78.2681C131.13 84.2604 127.258 89.1924 121.819 93.0644C116.472 96.9363 110.433 98.8722 103.704 98.8722C97.4347 98.8722 92.0878 97.2129 87.6627 93.8941C83.2377 90.4831 81.0251 85.7354 81.0251 79.6509C81.0251 75.9634 82.0392 72.8751 84.0673 70.386C86.1877 67.8969 88.769 65.9148 91.8112 64.4398C94.8534 62.9648 98.9097 61.3515 103.98 59.5999C109.143 57.7561 112.83 56.2811 115.043 55.1749C125.644 49.8279 130.945 44.6193 130.945 39.5489C130.945 38.2583 130.576 36.9676 129.839 35.677C126.705 30.8832 121.542 28.4863 114.351 28.4863C111.309 28.4863 108.129 28.9472 104.81 29.8691C101.583 30.791 98.8636 32.1738 96.6511 34.0176C94.4386 35.7692 93.3323 37.8434 93.3323 40.2403C93.3323 41.8997 93.7471 43.2825 94.5768 44.3888C95.4987 45.4951 96.5128 46.0482 97.6191 46.0482C98.8175 46.0482 99.6472 45.8177 100.108 45.3568C100.569 44.8958 101.03 44.2044 101.491 43.2825C101.952 42.3606 102.413 41.6692 102.874 41.2083C103.335 40.7474 104.072 40.3786 105.086 40.102C106.469 39.8255 107.714 40.2403 108.82 41.3466C109.926 42.3606 110.479 43.7896 110.479 45.6333C110.479 46.0943 110.387 46.7857 110.203 47.7076C109.557 50.0123 108.221 51.81 106.193 53.1006C104.164 54.3913 101.906 55.0366 99.4167 55.0366C96.3745 55.0366 93.7472 54.0686 91.5346 52.1326C89.4143 50.1967 88.3541 47.3388 88.3541 43.5591C88.3541 40.6091 89.5526 37.8434 91.9495 35.2621C94.4386 32.6808 97.6652 30.6066 101.629 29.0394C105.686 27.4722 109.926 26.6886 114.351 26.6886C124.676 26.6886 132.282 28.5784 137.168 32.3582C142.054 36.0457 144.497 42.2224 144.497 50.8881V90.0221C144.497 91.9581 144.635 93.4331 144.912 94.4472C145.281 95.3691 146.064 95.7839 147.263 95.6917L147.539 97.9043ZM109.788 92.7878C113.936 92.7878 117.808 91.6815 121.404 89.469C125.091 87.2565 127.995 84.2143 130.116 80.3423C132.328 76.3782 133.434 71.9993 133.434 67.2055V50.8881C133.434 47.1084 133.066 43.9739 132.328 41.4849C131.498 46.5552 126.013 51.7639 115.872 57.1108L110.065 60.0148C106.1 61.9507 102.966 63.6101 100.661 64.9929C98.4488 66.3758 96.5589 68.1274 94.9917 70.2477C93.5167 72.368 92.7792 74.9032 92.7792 77.8533C92.7792 82.7393 94.3464 86.4729 97.4808 89.0542C100.707 91.5433 104.81 92.7878 109.788 92.7878Z" fill="#FFEFCD"/>
<path d="M222.629 57.2491C222.998 59.1851 223.182 61.3976 223.182 63.8867C223.182 70.5243 221.707 76.4704 218.757 81.7252C215.807 86.8877 211.981 90.944 207.28 93.8941C202.578 96.7519 197.692 98.1808 192.622 98.1808C186.998 98.1808 182.158 96.6597 178.102 93.6175C174.138 90.4831 171.326 86.2885 169.667 81.0338V127.773C169.667 129.156 169.897 130.309 170.358 131.23C170.819 132.152 171.372 132.659 172.017 132.752L172.432 135.102H155.838L156.253 132.752C156.898 132.659 157.452 132.152 157.913 131.23C158.374 130.309 158.604 129.156 158.604 127.773V45.6333C158.604 44.2505 158.374 43.0982 157.913 42.1763C157.452 41.2544 156.898 40.7473 156.253 40.6552L155.838 38.3043C158.051 37.8434 160.632 36.5989 163.582 34.5707C166.532 32.4504 168.514 30.5144 169.528 28.7628H169.667V44.8037C171.695 39.6411 174.783 35.5848 178.932 32.6348C183.172 29.5925 187.874 28.0714 193.036 28.0714C200.965 28.0714 207.556 30.8371 212.811 36.3684C218.066 41.8075 221.338 48.7678 222.629 57.2491ZM188.888 94.7238C195.986 94.7238 201.472 91.912 205.344 86.2885C209.216 80.665 211.151 73.6126 211.151 65.1312C211.151 63.8406 211.059 61.9046 210.875 59.3234C209.953 51.1186 207.556 44.3888 203.684 39.1341C199.812 33.7871 195.157 31.1136 189.718 31.1136C186.583 31.1136 183.541 32.1277 180.591 34.1559C177.641 36.184 175.152 38.9497 173.124 42.4528C171.188 45.956 170.035 49.874 169.667 54.2069V62.3656C170.865 58.9546 172.663 56.3733 175.06 54.6217C177.457 52.8701 179.992 51.9944 182.665 51.9944C185.246 51.9944 187.367 52.5936 189.026 53.792C190.686 54.9905 191.838 56.696 192.483 58.9085C192.668 59.8304 192.76 60.4757 192.76 60.8445C192.76 62.3195 192.299 63.4718 191.377 64.3015C190.547 65.1312 189.533 65.5461 188.335 65.5461C186.952 65.5461 185.938 65.1312 185.293 64.3015C184.739 63.4718 184.232 62.2734 183.771 60.7062C183.218 59.139 182.665 58.0327 182.112 57.3874C181.651 56.6499 180.868 56.2811 179.761 56.2811C178.286 56.2811 176.811 56.9264 175.336 58.2171C173.953 59.4155 172.801 61.121 171.879 63.3336C170.957 65.5461 170.496 68.0352 170.496 70.8008C170.496 75.3181 171.28 79.4205 172.847 83.108C174.507 86.7034 176.719 89.5612 179.485 91.6815C182.343 93.7097 185.477 94.7238 188.888 94.7238Z" fill="#FFEFCD"/>
<path d="M302.368 57.2491C302.737 59.1851 302.922 61.3976 302.922 63.8867C302.922 69.418 301.723 74.6267 299.326 79.5126C297.022 84.3986 293.703 88.501 289.37 91.8198C285.129 95.0464 280.197 97.1207 274.574 98.0425C272.73 98.4113 270.702 98.5957 268.489 98.5957C263.05 98.5957 257.934 97.3511 253.14 94.8621C248.346 92.373 244.29 88.9159 240.971 84.4908C237.744 79.9736 235.67 74.8571 234.748 69.1414C234.379 67.2055 234.195 64.993 234.195 62.5039C234.195 56.9725 235.347 51.81 237.652 47.0162C240.049 42.1302 243.368 38.0278 247.608 34.709C251.941 31.3902 256.873 29.2699 262.405 28.348C264.248 27.9792 266.277 27.7949 268.489 27.7949C274.02 27.7949 279.183 29.0855 283.977 31.6668C288.771 34.1559 292.781 37.659 296.007 42.1763C299.326 46.6013 301.447 51.6256 302.368 57.2491ZM271.255 96.5214C275.403 96.5214 278.999 95.2308 282.041 92.6495C285.175 90.0682 287.526 86.6112 289.093 82.2783C290.753 77.8533 291.582 73.0594 291.582 67.8969C291.582 64.5781 291.352 61.7203 290.891 59.3234C289.969 54.3452 288.356 49.6896 286.051 45.3568C283.839 41.0239 281.165 37.5208 278.031 34.8473C276.371 33.741 274.389 33.1879 272.085 33.1879C269.134 33.1879 266.277 34.0637 263.511 35.8153C260.838 37.4747 259.04 39.6872 258.118 42.4528C257.657 44.02 257.427 45.4029 257.427 46.6013C257.427 48.906 257.98 50.9803 259.086 52.8241C260.192 54.5756 261.713 55.728 263.649 56.2811C264.387 56.4655 264.848 56.5577 265.032 56.5577C266.507 56.5577 268.305 55.7741 270.425 54.2069C272.638 52.7319 274.389 51.9944 275.68 51.9944C276.878 51.9944 277.892 52.3631 278.722 53.1006C279.552 53.8381 279.967 54.76 279.967 55.8663C279.967 57.3413 279.321 58.7241 278.031 60.0148C276.279 61.6742 273.974 62.5039 271.117 62.5039C268.904 62.5039 266.461 61.9046 263.788 60.7062C261.114 59.4155 259.04 57.6179 257.565 55.3131C256.182 53.0084 255.491 50.4271 255.491 47.5693C255.491 45.3568 255.859 43.3747 256.597 41.6231C257.795 38.3965 260.054 35.8614 263.373 34.0176C266.784 32.1738 270.195 31.4824 273.606 31.9433C271.024 30.6527 268.397 30.0074 265.724 30.0074C261.575 30.0074 257.934 31.298 254.799 33.8793C251.757 36.4606 249.406 39.9176 247.747 44.2505C246.18 48.5834 245.396 53.3311 245.396 58.4937C245.396 61.2593 245.672 64.1172 246.226 67.0672C247.24 72.5063 248.945 77.4845 251.342 82.0017C253.831 86.4268 256.781 89.9761 260.192 92.6495C263.695 95.2308 267.383 96.5214 271.255 96.5214Z" fill="#FFEFCD"/>
<path d="M349.543 28.4863C353.784 28.4863 357.379 29.7769 360.33 32.3582C363.28 34.8473 364.755 38.2583 364.755 42.5911C364.755 46.2787 363.602 49.1826 361.297 51.3029C358.993 53.3311 356.273 54.3452 353.139 54.3452C350.834 54.3452 348.76 53.792 346.916 52.6858C345.072 51.5795 343.736 49.9201 342.906 47.7076C342.537 46.8779 342.353 45.956 342.353 44.9419C342.353 43.2825 342.906 41.9919 344.012 41.07C345.211 40.0559 346.547 39.7333 348.022 40.102C348.944 40.3786 349.59 40.7474 349.958 41.2083C350.419 41.6692 350.926 42.3606 351.479 43.2825C351.94 44.2044 352.401 44.8958 352.862 45.3568C353.415 45.8177 354.291 46.0482 355.49 46.0482C356.596 46.0482 357.564 45.4951 358.394 44.3888C359.315 43.2825 359.776 41.8997 359.776 40.2403C359.776 37.8434 358.808 35.677 356.872 33.741C355.029 31.8051 352.586 30.8371 349.543 30.8371C345.303 30.8371 341.385 32.5426 337.789 35.9535C334.286 39.2723 331.521 43.7896 329.492 49.5053C327.464 55.221 326.45 61.3515 326.45 67.8969V90.5753C326.45 91.9581 326.681 93.1105 327.142 94.0324C327.603 94.9542 328.156 95.4613 328.801 95.5535L329.216 97.9043H312.622L313.037 95.5535C313.682 95.4613 314.235 94.9542 314.696 94.0324C315.157 93.1105 315.388 91.9581 315.388 90.5753V45.6333C315.388 44.2505 315.157 43.0982 314.696 42.1763C314.235 41.2544 313.682 40.7473 313.037 40.6552L312.622 38.3043C314.834 37.8434 317.416 36.5989 320.366 34.5707C323.316 32.4504 325.298 30.5144 326.312 28.7628H326.45V50.7498C328.478 44.2044 331.474 38.8575 335.439 34.709C339.403 30.5605 344.104 28.4863 349.543 28.4863Z" fill="#FFEFCD"/>
<path d="M390.93 97.9043H374.336L374.751 95.5535C375.396 95.4613 375.949 94.9542 376.41 94.0324C376.871 93.1105 377.102 91.9581 377.102 90.5753V45.6333C377.102 44.2505 376.871 43.0982 376.41 42.1763C375.949 41.2544 375.396 40.7473 374.751 40.6552L374.336 38.3043C376.549 37.8434 379.13 36.5989 382.08 34.5707C385.03 32.4504 387.012 30.5144 388.026 28.7628H388.164V90.5753C388.164 91.9581 388.395 93.1105 388.856 94.0324C389.317 94.9542 389.87 95.4613 390.515 95.5535L390.93 97.9043Z" fill="#FFEFCD"/>
<path d="M367.198 208.843C364.986 209.304 362.404 210.595 359.454 212.715C356.504 214.743 354.522 216.633 353.508 218.385H353.37V202.344C351.711 207.599 348.945 211.793 345.073 214.927C341.201 217.97 336.546 219.491 331.106 219.491C325.667 219.491 320.551 217.924 315.757 214.789C310.963 211.655 307.137 207.414 304.28 202.067C301.422 196.628 299.993 190.728 299.993 184.367C299.993 182.431 300.131 180.495 300.408 178.559C301.606 170.17 304.833 163.21 310.087 157.678C315.434 152.147 322.072 149.381 330 149.381C335.163 149.381 339.818 150.903 343.967 153.945C348.207 156.895 351.342 160.951 353.37 166.114V129.745C353.37 128.362 353.14 127.21 352.679 126.288C352.218 125.366 351.664 124.859 351.019 124.767L350.604 122.416C352.817 121.955 355.398 120.711 358.348 118.683C361.298 116.562 363.28 114.626 364.294 112.875H364.433V201.514C364.433 202.897 364.663 204.049 365.124 204.971C365.585 205.893 366.138 206.4 366.783 206.492L367.198 208.843ZM334.702 186.856C333.503 186.856 332.443 186.441 331.521 185.612C330.692 184.69 330.277 183.537 330.277 182.154C330.277 181.786 330.369 181.14 330.553 180.219C331.199 178.006 332.351 176.3 334.01 175.102C335.67 173.904 337.79 173.304 340.371 173.304C343.045 173.304 345.58 174.18 347.977 175.932C350.374 177.683 352.172 180.265 353.37 183.676V175.517C353.001 171.184 351.803 167.266 349.775 163.763C347.839 160.26 345.396 157.494 342.446 155.466C339.496 153.438 336.453 152.424 333.319 152.424C327.88 152.424 323.224 155.097 319.352 160.444C315.48 165.699 313.084 172.429 312.162 180.633C311.977 183.215 311.885 185.151 311.885 186.441C311.885 194.923 313.821 201.975 317.693 207.599C321.565 213.222 327.05 216.034 334.149 216.034C337.56 216.034 340.648 215.02 343.414 212.992C346.271 210.871 348.484 208.013 350.051 204.418C351.711 200.73 352.54 196.628 352.54 192.111C352.54 189.345 352.079 186.856 351.157 184.644C350.236 182.431 349.037 180.726 347.562 179.527C346.179 178.236 344.75 177.591 343.275 177.591C342.169 177.591 341.339 177.96 340.786 178.697C340.325 179.343 339.818 180.449 339.265 182.016C338.804 183.583 338.251 184.782 337.606 185.612C337.053 186.441 336.085 186.856 334.702 186.856Z" fill="#FFEFCD"/>
<path d="M388.862 137.489C388.125 140.07 386.373 142.698 383.607 145.371C380.934 147.953 378.307 149.75 375.725 150.764L375.449 150.626C376.924 149.151 377.661 146.8 377.661 143.574C377.661 142.099 377.385 139.563 376.832 135.968C376.739 135.138 376.693 134.032 376.693 132.649C376.693 130.529 377.108 128.962 377.938 127.948C378.768 126.934 380.335 125.919 382.639 124.905C383.469 125.919 383.884 127.579 383.884 129.884C383.884 133.755 382.87 138.134 380.842 143.02C383.884 138.78 385.405 134.585 385.405 130.437C385.405 128.316 384.944 126.334 384.022 124.491C385.866 125.689 387.249 126.934 388.171 128.224C389.093 129.515 389.554 131.174 389.554 133.202C389.554 134.216 389.323 135.645 388.862 137.489Z" fill="#FFEFCD"/>
<path d="M406.163 142.882C404.411 142.882 402.936 142.329 401.738 141.223C400.631 140.024 400.078 138.549 400.078 136.798C400.078 135.138 400.631 133.755 401.738 132.649C402.936 131.451 404.411 130.852 406.163 130.852C407.822 130.852 409.205 131.451 410.311 132.649C411.51 133.755 412.109 135.138 412.109 136.798C412.109 138.549 411.51 140.024 410.311 141.223C409.205 142.329 407.822 142.882 406.163 142.882ZM414.46 219.214H397.866L398.281 216.863C398.926 216.771 399.479 216.264 399.94 215.342C400.401 214.42 400.631 213.268 400.631 211.885V166.943C400.631 165.561 400.401 164.408 399.94 163.486C399.479 162.564 398.926 162.057 398.281 161.965L397.866 159.614C400.078 159.153 402.66 157.909 405.61 155.881C408.56 153.76 410.542 151.824 411.556 150.073H411.694V211.885C411.694 213.268 411.925 214.42 412.385 215.342C412.846 216.264 413.4 216.771 414.045 216.863L414.46 219.214Z" fill="#FFEFCD"/>
<path d="M441.382 200.961C442.119 198.748 443.364 197.089 445.115 195.983C446.959 194.876 449.033 194.323 451.338 194.323C454.472 194.323 457.238 195.384 459.635 197.504C462.032 199.532 463.23 202.39 463.23 206.077C463.23 210.318 461.617 213.683 458.39 216.172C455.164 218.661 451.292 219.952 446.775 220.044C432.578 220.597 425.479 211.286 425.479 192.111V157.54C425.479 156.157 425.249 155.005 424.788 154.083C424.327 153.161 423.774 152.654 423.128 152.562L422.713 150.211C425.571 149.197 428.337 146.8 431.01 143.02C433.684 139.241 435.482 135.968 436.403 133.202H436.542V150.073H455.072V152.562H436.542V200.961C436.542 206.216 437.556 210.364 439.584 213.406C441.612 216.356 444.424 217.831 448.019 217.831C451.061 217.831 453.504 216.863 455.348 214.927C457.284 212.992 458.252 210.825 458.252 208.428C458.252 206.769 457.791 205.386 456.869 204.28C456.04 203.173 455.072 202.62 453.965 202.62C452.767 202.62 451.891 202.851 451.338 203.312C450.877 203.773 450.416 204.464 449.955 205.386C449.402 206.308 448.895 206.999 448.434 207.46C448.065 207.921 447.42 208.29 446.498 208.566C445.023 208.935 443.732 208.659 442.626 207.737C441.52 206.723 440.967 205.34 440.967 203.588C440.967 202.759 441.105 201.883 441.382 200.961Z" fill="#FFEFCD"/>
<path d="M540.678 219.214C539.941 219.214 537.913 219.214 534.594 219.214C531.367 219.214 529.201 218.661 528.095 217.555C527.081 216.356 526.574 214.513 526.574 212.024V199.578C524.269 205.57 520.397 210.502 514.958 214.374C509.611 218.246 503.573 220.182 496.843 220.182C490.574 220.182 485.227 218.523 480.802 215.204C476.377 211.793 474.164 207.045 474.164 200.961C474.164 197.273 475.178 194.185 477.207 191.696C479.327 189.207 481.908 187.225 484.95 185.75C487.993 184.275 492.049 182.662 497.119 180.91C502.282 179.066 505.969 177.591 508.182 176.485C518.784 171.138 524.085 165.929 524.085 160.859C524.085 159.568 523.716 158.278 522.978 156.987C519.844 152.193 514.681 149.796 507.491 149.796C504.448 149.796 501.268 150.257 497.949 151.179C494.722 152.101 492.003 153.484 489.79 155.328C487.578 157.079 486.472 159.153 486.472 161.55C486.472 163.21 486.886 164.593 487.716 165.699C488.638 166.805 489.652 167.358 490.758 167.358C491.957 167.358 492.786 167.128 493.247 166.667C493.708 166.206 494.169 165.514 494.63 164.593C495.091 163.671 495.552 162.979 496.013 162.518C496.474 162.057 497.212 161.689 498.226 161.412C499.608 161.135 500.853 161.55 501.959 162.657C503.066 163.671 503.619 165.1 503.619 166.943C503.619 167.404 503.526 168.096 503.342 169.018C502.697 171.322 501.36 173.12 499.332 174.411C497.304 175.701 495.045 176.347 492.556 176.347C489.514 176.347 486.886 175.379 484.674 173.443C482.554 171.507 481.493 168.649 481.493 164.869C481.493 161.919 482.692 159.153 485.089 156.572C487.578 153.991 490.804 151.917 494.769 150.349C498.825 148.782 503.066 147.999 507.491 147.999C517.816 147.999 525.421 149.888 530.307 153.668C535.193 157.356 537.636 163.532 537.636 172.198V211.332C537.636 213.268 537.775 214.743 538.051 215.757C538.42 216.679 539.203 217.094 540.402 217.002L540.678 219.214ZM502.927 214.098C507.076 214.098 510.948 212.992 514.543 210.779C518.231 208.566 521.134 205.524 523.255 201.652C525.467 197.688 526.574 193.309 526.574 188.515V172.198C526.574 168.418 526.205 165.284 525.467 162.795C524.638 167.865 519.152 173.074 509.012 178.421L503.204 181.325C499.24 183.261 496.105 184.92 493.801 186.303C491.588 187.686 489.698 189.437 488.131 191.558C486.656 193.678 485.918 196.213 485.918 199.163C485.918 204.049 487.486 207.783 490.62 210.364C493.847 212.853 497.949 214.098 502.927 214.098Z" fill="#FFEFCD"/>
<path d="M565.572 287L548.978 273.443L549.392 271.092C550.038 271 550.591 270.493 551.052 269.571C551.513 268.649 551.743 267.497 551.743 266.114V204.708V143.302C551.743 141.92 551.513 140.767 551.052 139.845C550.591 138.923 550.038 138.416 549.392 138.324L548.978 135.973C551.19 135.512 553.771 134.268 556.721 132.24C559.671 130.119 561.654 128.183 562.668 126.432H562.806V196.273V277.536C562.806 278.919 563.036 280.072 563.497 280.993C563.958 281.915 564.511 282.422 565.157 282.515L565.572 287Z" fill="#E59500"/>
<path d="M582.122 142.882C580.371 142.882 578.896 142.329 577.697 141.223C576.591 140.024 576.038 138.549 576.038 136.798C576.038 135.138 576.591 133.755 577.697 132.649C578.896 131.451 580.371 130.852 582.122 130.852C583.782 130.852 585.164 131.451 586.271 132.649C587.469 133.755 588.068 135.138 588.068 136.798C588.068 138.549 587.469 140.024 586.271 141.223C585.164 142.329 583.782 142.882 582.122 142.882ZM590.419 219.214H573.825L574.24 216.863C574.885 216.771 575.439 216.264 575.9 215.342C576.36 214.42 576.591 213.268 576.591 211.885V166.943C576.591 165.561 576.36 164.408 575.9 163.486C575.439 162.564 574.885 162.057 574.24 161.965L573.825 159.614C576.038 159.153 578.619 157.909 581.569 155.881C584.519 153.76 586.501 151.824 587.515 150.073H587.654V211.885C587.654 213.268 587.884 214.42 588.345 215.342C588.806 216.264 589.359 216.771 590.004 216.863L590.419 219.214Z" fill="#FFEFCD"/>
<path d="M666.538 219.214C665.8 219.214 663.772 219.214 660.453 219.214C657.226 219.214 655.06 218.661 653.954 217.555C652.94 216.356 652.433 214.513 652.433 212.024V199.578C650.128 205.57 646.256 210.502 640.817 214.374C635.47 218.246 629.432 220.182 622.702 220.182C616.433 220.182 611.086 218.523 606.661 215.204C602.236 211.793 600.023 207.045 600.023 200.961C600.023 197.273 601.037 194.185 603.066 191.696C605.186 189.207 607.767 187.225 610.809 185.75C613.852 184.275 617.908 182.662 622.978 180.91C628.141 179.066 631.828 177.591 634.041 176.485C644.643 171.138 649.944 165.929 649.944 160.859C649.944 159.568 649.575 158.278 648.837 156.987C645.703 152.193 640.54 149.796 633.35 149.796C630.307 149.796 627.127 150.257 623.808 151.179C620.581 152.101 617.862 153.484 615.649 155.328C613.437 157.079 612.331 159.153 612.331 161.55C612.331 163.21 612.745 164.593 613.575 165.699C614.497 166.805 615.511 167.358 616.617 167.358C617.816 167.358 618.646 167.128 619.106 166.667C619.567 166.206 620.028 165.514 620.489 164.593C620.95 163.671 621.411 162.979 621.872 162.518C622.333 162.057 623.071 161.689 624.085 161.412C625.467 161.135 626.712 161.55 627.818 162.657C628.925 163.671 629.478 165.1 629.478 166.943C629.478 167.404 629.385 168.096 629.201 169.018C628.556 171.322 627.219 173.12 625.191 174.411C623.163 175.701 620.904 176.347 618.415 176.347C615.373 176.347 612.745 175.379 610.533 173.443C608.413 171.507 607.352 168.649 607.352 164.869C607.352 161.919 608.551 159.153 610.948 156.572C613.437 153.991 616.663 151.917 620.628 150.349C624.684 148.782 628.925 147.999 633.35 147.999C643.675 147.999 651.28 149.888 656.166 153.668C661.052 157.356 663.495 163.532 663.495 172.198V211.332C663.495 213.268 663.634 214.743 663.91 215.757C664.279 216.679 665.062 217.094 666.261 217.002L666.538 219.214ZM628.786 214.098C632.935 214.098 636.807 212.992 640.402 210.779C644.09 208.566 646.994 205.524 649.114 201.652C651.326 197.688 652.433 193.309 652.433 188.515V172.198C652.433 168.418 652.064 165.284 651.326 162.795C650.497 167.865 645.011 173.074 634.871 178.421L629.063 181.325C625.099 183.261 621.964 184.92 619.66 186.303C617.447 187.686 615.557 189.437 613.99 191.558C612.515 193.678 611.777 196.213 611.777 199.163C611.777 204.049 613.345 207.783 616.479 210.364C619.706 212.853 623.808 214.098 628.786 214.098Z" fill="#FFEFCD"/>
<path d="M377.632 13.4066C379.203 11.1834 381.76 9.2561 385.302 7.62468C388.725 6.05059 391.841 5.21101 394.65 5.10593L394.868 5.331C392.962 6.24815 391.468 8.25076 390.385 11.3388C389.89 12.7505 389.304 15.2696 388.627 18.8961C388.437 19.7211 388.109 20.7953 387.645 22.1188C386.934 24.1481 386.011 25.5089 384.878 26.2013C383.744 26.8936 381.905 27.3387 379.361 27.5365C378.907 26.2878 379.067 24.5605 379.841 22.3548C381.14 18.6491 383.579 14.7981 387.158 10.8019C382.826 13.8405 379.964 17.345 378.572 21.3154C377.86 23.3447 377.636 25.3962 377.899 27.4699C376.538 25.7047 375.633 24.05 375.184 22.5056C374.736 20.9613 374.852 19.2186 375.532 17.2775C375.873 16.307 376.573 15.0167 377.632 13.4066Z" fill="#FFEFCD"/>
<path d="M550.707 104.647C552.752 101.754 556.079 99.2466 560.688 97.1236C565.141 95.0753 569.196 93.9828 572.851 93.846L573.135 94.1389C570.655 95.3323 568.711 97.9383 567.302 101.957C566.658 103.794 565.895 107.072 565.014 111.791C564.766 112.864 564.341 114.262 563.737 115.984C562.811 118.625 561.611 120.395 560.135 121.296C558.66 122.197 556.267 122.777 552.956 123.034C552.367 121.409 552.575 119.161 553.581 116.291C555.272 111.469 558.446 106.458 563.103 101.258C557.465 105.212 553.741 109.772 551.93 114.939C551.004 117.579 550.712 120.249 551.054 122.947C549.283 120.65 548.106 118.497 547.522 116.488C546.938 114.478 547.089 112.21 547.975 109.684C548.418 108.422 549.328 106.743 550.707 104.647Z" fill="#E59500"/>
</svg>
