<svg width="18" height="18" viewBox="0 0 18 18" fill="none" xmlns="http://www.w3.org/2000/svg">
<path d="M2.25 3.0375C2.25 2.9125 2.25325 2.78125 2.25975 2.64375C2.26625 2.50625 2.2755 2.375 2.2875 2.25L6.675 2.25L7.425 6L5.25 8.175C5.825 9.125 6.50625 9.997 7.29375 10.791C8.08125 11.585 8.925 12.2442 9.825 12.7687L11.9813 10.6313L15.75 11.325V15.7125C15.625 15.7375 15.4937 15.75 15.3562 15.75H14.9625C13.35 15.75 11.778 15.3907 10.2465 14.6722C8.715 13.9537 7.35575 13.0037 6.16875 11.8222C4.98125 10.6407 4.03125 9.2845 3.31875 7.7535C2.60625 6.2225 2.25 4.6505 2.25 3.0375Z" fill="#FFEFCD"/>
</svg>
