<svg width="52" height="16" viewBox="0 0 52 16" fill="none" xmlns="http://www.w3.org/2000/svg">
<path d="M51 7.09326C51.5523 7.09326 52 7.54098 52 8.09326C52 8.64555 51.5523 9.09326 51 9.09326V7.09326ZM0.292892 8.80037C-0.0976295 8.40984 -0.0976295 7.77668 0.292892 7.38615L6.65685 1.02219C7.04738 0.63167 7.68054 0.63167 8.07107 1.02219C8.46159 1.41272 8.46159 2.04588 8.07107 2.43641L2.41422 8.09326L8.07107 13.7501C8.46159 14.1406 8.46159 14.7738 8.07107 15.1643C7.68054 15.5549 7.04738 15.5549 6.65685 15.1643L0.292892 8.80037ZM51 9.09326L1 9.09326V7.09326L51 7.09326V9.09326Z" fill="#FFEFCD"/>
</svg>
