<svg width="37" height="38" viewBox="0 0 37 38" fill="none" xmlns="http://www.w3.org/2000/svg">
<path d="M18.5 3.85938C15.5843 3.85937 12.734 4.74736 10.3097 6.41103C7.88535 8.0747 5.9958 10.4393 4.88 13.2059C3.7642 15.9725 3.47226 19.0168 4.04109 21.9538C4.60992 24.8908 6.01397 27.5886 8.07571 29.706C10.1374 31.8235 12.7642 33.2655 15.6239 33.8497C18.4837 34.4339 21.4478 34.1341 24.1416 32.9881C26.8354 31.8422 29.1378 29.9015 30.7577 27.4117C32.3776 24.9218 33.2422 21.9945 33.2422 19C33.2376 14.9859 31.6829 11.1376 28.9192 8.29917C26.1555 5.46077 22.4085 3.86409 18.5 3.85938ZM19.3672 32.3297V22.2656H23.125C23.355 22.2656 23.5756 22.1718 23.7382 22.0048C23.9008 21.8377 23.9922 21.6112 23.9922 21.375C23.9922 21.1388 23.9008 20.9123 23.7382 20.7452C23.5756 20.5782 23.355 20.4844 23.125 20.4844H19.3672V16.625C19.3672 15.9164 19.6413 15.2368 20.1292 14.7357C20.6171 14.2346 21.2788 13.9531 21.9688 13.9531H24.2813C24.5112 13.9531 24.7318 13.8593 24.8945 13.6923C25.0571 13.5252 25.1484 13.2987 25.1484 13.0625C25.1484 12.8263 25.0571 12.5998 24.8945 12.4327C24.7318 12.2657 24.5112 12.1719 24.2813 12.1719H21.9688C20.8188 12.1719 19.7159 12.641 18.9028 13.4762C18.0896 14.3113 17.6328 15.444 17.6328 16.625V20.4844H13.875C13.645 20.4844 13.4244 20.5782 13.2618 20.7452C13.0992 20.9123 13.0078 21.1388 13.0078 21.375C13.0078 21.6112 13.0992 21.8377 13.2618 22.0048C13.4244 22.1718 13.645 22.2656 13.875 22.2656H17.6328V32.3297C14.2656 32.0986 11.1175 30.5326 8.85356 27.9622C6.58958 25.3919 5.38688 22.0185 5.49943 18.5545C5.61199 15.0904 7.03099 11.8069 9.45678 9.39729C11.8826 6.98769 15.1252 5.64066 18.5 5.64066C21.8748 5.64066 25.1174 6.98769 27.5432 9.39729C29.969 11.8069 31.388 15.0904 31.5006 18.5545C31.6131 22.0185 30.4104 25.3919 28.1465 27.9622C25.8825 30.5326 22.7345 32.0986 19.3672 32.3297Z" fill="#2D3F2F"/>
</svg>
