<svg width="37" height="38" viewBox="0 0 37 38" fill="none" xmlns="http://www.w3.org/2000/svg">
<path d="M18.5 12.1719C17.1851 12.1719 15.8997 12.5723 14.8063 13.3226C13.713 14.0729 12.8608 15.1393 12.3576 16.387C11.8544 17.6347 11.7228 19.0076 11.9793 20.3321C12.2358 21.6566 12.869 22.8733 13.7988 23.8282C14.7286 24.7831 15.9133 25.4335 17.203 25.6969C18.4926 25.9604 19.8294 25.8252 21.0442 25.3084C22.2591 24.7916 23.2974 23.9164 24.028 22.7935C24.7585 21.6706 25.1484 20.3505 25.1484 19C25.1461 17.1898 24.4449 15.4544 23.1986 14.1744C21.9523 12.8944 20.2626 12.1742 18.5 12.1719ZM18.5 24.0469C17.5281 24.0469 16.578 23.7509 15.7699 23.1963C14.9618 22.6418 14.3319 21.8535 13.96 20.9314C13.5881 20.0092 13.4907 18.9944 13.6804 18.0154C13.87 17.0364 14.338 16.1371 15.0252 15.4313C15.7125 14.7255 16.5881 14.2448 17.5413 14.0501C18.4945 13.8554 19.4826 13.9553 20.3805 14.3373C21.2785 14.7193 22.0459 15.3662 22.5859 16.1961C23.1259 17.0261 23.4141 18.0018 23.4141 19C23.4141 20.3385 22.8963 21.6222 21.9748 22.5687C21.0532 23.5152 19.8033 24.0469 18.5 24.0469ZM25.4375 3.85938H11.5625C9.49327 3.86173 7.50945 4.70699 6.04629 6.2097C4.58312 7.71241 3.76011 9.74985 3.75781 11.875V26.125C3.76011 28.2502 4.58312 30.2876 6.04629 31.7903C7.50945 33.293 9.49327 34.1383 11.5625 34.1406H25.4375C27.5067 34.1383 29.4905 33.293 30.9537 31.7903C32.4169 30.2876 33.2399 28.2502 33.2422 26.125V11.875C33.2399 9.74985 32.4169 7.71241 30.9537 6.2097C29.4905 4.70699 27.5067 3.86173 25.4375 3.85938ZM31.5078 26.125C31.5078 27.7785 30.8683 29.3642 29.7299 30.5334C28.5915 31.7025 27.0474 32.3594 25.4375 32.3594H11.5625C9.95255 32.3594 8.40855 31.7025 7.27014 30.5334C6.13174 29.3642 5.49219 27.7785 5.49219 26.125V11.875C5.49219 10.2215 6.13174 8.6358 7.27014 7.46663C8.40855 6.29746 9.95255 5.64062 11.5625 5.64062H25.4375C27.0474 5.64062 28.5915 6.29746 29.7299 7.46663C30.8683 8.6358 31.5078 10.2215 31.5078 11.875V26.125ZM27.4609 11.2812C27.4609 11.5748 27.3762 11.8618 27.2174 12.1059C27.0585 12.35 26.8328 12.5403 26.5687 12.6526C26.3046 12.765 26.014 12.7944 25.7337 12.7371C25.4533 12.6798 25.1958 12.5385 24.9936 12.3309C24.7915 12.1233 24.6539 11.8588 24.5981 11.5708C24.5423 11.2829 24.5709 10.9844 24.6803 10.7132C24.7897 10.442 24.975 10.2101 25.2127 10.047C25.4503 9.88393 25.7298 9.79688 26.0156 9.79688C26.3989 9.79688 26.7666 9.95326 27.0376 10.2316C27.3087 10.51 27.4609 10.8876 27.4609 11.2812Z" fill="#2D3F2F"/>
</svg>
