<svg width="38" height="38" viewBox="0 0 38 38" fill="none" xmlns="http://www.w3.org/2000/svg">
<path d="M36.4473 10.3476C36.3801 10.1847 36.2661 10.0455 36.1197 9.94748C35.9733 9.84946 35.8011 9.79704 35.625 9.79687H30.9343C30.3409 8.72656 29.474 7.83286 28.4223 7.207C27.3706 6.58113 26.1717 6.24551 24.9479 6.23437C24.059 6.22298 23.1768 6.3894 22.3532 6.72385C21.5296 7.05829 20.7811 7.55401 20.1518 8.18187C19.5033 8.8182 18.9885 9.57777 18.6377 10.4159C18.287 11.2541 18.1073 12.1539 18.1093 13.0625V14.348C11.875 12.8636 6.73904 7.73953 6.67966 7.68609C6.56004 7.5673 6.40916 7.4849 6.24457 7.44847C6.07997 7.41204 5.90841 7.42307 5.74984 7.48028C5.59126 7.53749 5.45218 7.63853 5.34876 7.77166C5.24533 7.90479 5.18182 8.06454 5.1656 8.23234C4.53474 15.2416 6.56388 19.9218 8.37779 22.6145C9.31549 24.025 10.4714 25.2776 11.8022 26.3254C9.50294 29.1457 5.66583 30.6138 5.62427 30.6301C5.49751 30.677 5.38308 30.7521 5.28966 30.8498C5.19625 30.9475 5.12629 31.0652 5.0851 31.1939C5.0439 31.3226 5.03255 31.4591 5.0519 31.5928C5.07124 31.7266 5.12079 31.8542 5.19677 31.966C5.34372 32.1857 6.79544 34.1406 11.875 34.1406C22.2478 34.1406 30.9091 26.125 31.7389 15.8323L36.2544 11.3184C36.3789 11.1938 36.4638 11.035 36.4981 10.8622C36.5325 10.6894 36.5148 10.5103 36.4473 10.3476ZM30.2456 14.8081C30.0922 14.9612 29.9998 15.1649 29.9858 15.3811C29.3802 24.9019 21.424 32.3594 11.875 32.3594C9.79685 32.3594 8.49654 32.0016 7.70982 31.6469C9.38716 30.8037 12.1214 29.1412 13.8032 26.6193C13.8702 26.5184 13.916 26.4049 13.9377 26.2857C13.9594 26.1665 13.9566 26.0441 13.9293 25.9261C13.9018 25.8073 13.8502 25.6954 13.7777 25.5973C13.7052 25.4993 13.6133 25.4172 13.5078 25.3561C13.4885 25.3442 11.5588 24.1894 9.79685 21.5383C7.71872 18.4062 6.72568 14.6107 6.8281 10.2244C9.03685 12.0947 13.5924 15.433 18.8515 16.3103C18.9793 16.3319 19.1102 16.3254 19.2352 16.2911C19.3602 16.2569 19.4762 16.1959 19.5751 16.1122C19.674 16.0285 19.7535 15.9243 19.808 15.8067C19.8625 15.6892 19.8907 15.5611 19.8906 15.4316V13.0625C19.8892 12.3899 20.0223 11.7237 20.2821 11.1033C20.5419 10.4828 20.923 9.92057 21.4032 9.44953C21.8655 8.98792 22.4153 8.62331 23.0205 8.37707C23.6256 8.13084 24.2738 8.00795 24.9271 8.01562C26.9206 8.04086 28.7865 9.25805 29.5643 11.0437C29.6336 11.2026 29.7478 11.3378 29.8928 11.4327C30.0378 11.5276 30.2074 11.5781 30.3807 11.5781H33.4741L30.2456 14.8081Z" fill="#2D3F2F"/>
</svg>
