<svg width="14" height="14" viewBox="0 0 14 14" fill="none" xmlns="http://www.w3.org/2000/svg">
<path d="M0.25 1.0375C0.25 0.9125 0.25325 0.78125 0.25975 0.64375C0.266251 0.50625 0.275499 0.375 0.287499 0.25L4.675 0.25L5.425 4L3.25 6.175C3.825 7.125 4.50625 7.997 5.29375 8.791C6.08125 9.585 6.925 10.2442 7.825 10.7687L9.98125 8.63125L13.75 9.325V13.7125C13.625 13.7375 13.4937 13.75 13.3562 13.75H12.9625C11.35 13.75 9.778 13.3907 8.2465 12.6722C6.715 11.9537 5.35575 11.0037 4.16875 9.82225C2.98125 8.64075 2.03125 7.2845 1.31875 5.7535C0.60625 4.2225 0.25 2.6505 0.25 1.0375Z" fill="#FFEFCD"/>
</svg>
