<svg width="16" height="27" viewBox="0 0 16 27" fill="none" xmlns="http://www.w3.org/2000/svg">
<path d="M9 1.8252C9 1.27291 8.55228 0.825195 8 0.825195C7.44772 0.825195 7 1.27291 7 1.8252H9ZM7.29289 25.882C7.68342 26.2725 8.31658 26.2725 8.70711 25.882L15.0711 19.518C15.4616 19.1275 15.4616 18.4943 15.0711 18.1038C14.6805 17.7133 14.0474 17.7133 13.6569 18.1038L8 23.7606L2.34315 18.1038C1.95262 17.7133 1.31946 17.7133 0.928932 18.1038C0.538408 18.4943 0.538408 19.1275 0.928932 19.518L7.29289 25.882ZM7 1.8252L7 25.1748H9L9 1.8252H7Z" fill="#FFEFCD"/>
</svg>
