<svg width="208" height="49" viewBox="0 0 208 49" fill="none" xmlns="http://www.w3.org/2000/svg">
<g filter="url(#filter0_f_133_1268)">
<path d="M0 3H183.5C195.374 3 205 12.6259 205 24.5V24.5C205 36.3741 195.374 46 183.5 46H0" stroke="#E59500" stroke-width="1.5"/>
</g>
<path d="M0 3H183.5C195.374 3 205 12.6259 205 24.5V24.5C205 36.3741 195.374 46 183.5 46H0" stroke="#E59500" stroke-width="1.5"/>
<path d="M15.9401 26.985H17.4101C17.4101 27.595 17.6651 28.04 18.1751 28.32C18.6951 28.6 19.5151 28.74 20.6351 28.74C21.7451 28.74 22.5551 28.6 23.0651 28.32C23.5851 28.04 23.8451 27.595 23.8451 26.985C23.8451 26.375 23.6201 25.935 23.1701 25.665C22.7201 25.395 21.9951 25.26 20.9951 25.26H18.9701V23.97H21.0701C22.0001 23.97 22.6701 23.845 23.0801 23.595C23.5001 23.345 23.7101 22.93 23.7101 22.35C23.7101 21.79 23.4701 21.385 22.9901 21.135C22.5101 20.885 21.7401 20.76 20.6801 20.76C19.6201 20.76 18.8451 20.89 18.3551 21.15C17.8751 21.4 17.6351 21.805 17.6351 22.365H16.1651C16.1651 21.315 16.5201 20.555 17.2301 20.085C17.9401 19.615 19.0901 19.38 20.6801 19.38C22.2701 19.38 23.4151 19.6 24.1151 20.04C24.8251 20.48 25.1801 21.195 25.1801 22.185C25.1801 23.385 24.6901 24.195 23.7101 24.615C24.7801 25.035 25.3151 25.885 25.3151 27.165C25.3151 28.195 24.9401 28.945 24.1901 29.415C23.4501 29.885 22.2651 30.12 20.6351 30.12C18.9951 30.12 17.8001 29.87 17.0501 29.37C16.3101 28.87 15.9401 28.075 15.9401 26.985ZM29.9041 30.12C28.8641 30.12 28.1041 29.935 27.6241 29.565C27.1441 29.195 26.9041 28.6 26.9041 27.78C26.9041 26.93 27.1691 26.325 27.6991 25.965C28.2391 25.595 29.1041 25.41 30.2941 25.41H32.9491C32.9491 24.7 32.7691 24.185 32.4091 23.865C32.0491 23.535 31.4741 23.37 30.6841 23.37C30.0541 23.37 29.5691 23.475 29.2291 23.685C28.8891 23.885 28.6591 24.21 28.5391 24.66H27.0841C27.2241 23.76 27.5841 23.105 28.1641 22.695C28.7441 22.285 29.6041 22.08 30.7441 22.08C32.0241 22.08 32.9541 22.345 33.5341 22.875C34.1241 23.395 34.4191 24.23 34.4191 25.38V30H32.9491V28.995C32.3591 29.745 31.3441 30.12 29.9041 30.12ZM28.3741 27.72C28.3741 28.11 28.5241 28.395 28.8241 28.575C29.1341 28.745 29.6091 28.83 30.2491 28.83C31.0991 28.83 31.7341 28.675 32.1541 28.365C32.5841 28.055 32.8491 27.56 32.9491 26.88V26.52H30.6691C29.1391 26.52 28.3741 26.92 28.3741 27.72ZM40.3284 18.87L43.5834 18.63V20.01L40.4484 20.25C39.5884 20.31 38.9584 20.52 38.5584 20.88C38.1584 21.24 37.9184 21.855 37.8384 22.725C37.7984 23.065 37.7834 23.45 37.7934 23.88C37.9034 23.25 38.1734 22.795 38.6034 22.515C39.0434 22.225 39.6684 22.08 40.4784 22.08C41.8384 22.08 42.8184 22.395 43.4184 23.025C44.0284 23.655 44.3334 24.67 44.3334 26.07C44.3334 27.49 44.0184 28.52 43.3884 29.16C42.7684 29.8 41.7684 30.12 40.3884 30.12C39.4284 30.12 38.6584 29.96 38.0784 29.64C37.5084 29.32 37.0684 28.74 36.7584 27.9C36.4484 27.06 36.2934 25.9 36.2934 24.42C36.2934 22.5 36.5834 21.125 37.1634 20.295C37.7534 19.455 38.8084 18.98 40.3284 18.87ZM38.4984 24.09C38.1084 24.5 37.9134 25.165 37.9134 26.085C37.9134 27.005 38.1084 27.68 38.4984 28.11C38.8984 28.53 39.5284 28.74 40.3884 28.74C41.2584 28.74 41.8884 28.53 42.2784 28.11C42.6684 27.69 42.8634 27.015 42.8634 26.085C42.8634 25.165 42.6684 24.5 42.2784 24.09C41.8884 23.67 41.2584 23.46 40.3884 23.46C39.5284 23.46 38.8984 23.67 38.4984 24.09ZM46.1299 33.75V22.2H47.5999V23.295C48.1499 22.485 49.1199 22.08 50.5099 22.08C51.7599 22.08 52.6649 22.4 53.2249 23.04C53.7949 23.67 54.0799 24.69 54.0799 26.1C54.0799 27.5 53.7949 28.52 53.2249 29.16C52.6649 29.8 51.7599 30.12 50.5099 30.12C49.1199 30.12 48.1499 29.715 47.5999 28.905V33.75H46.1299ZM48.2149 28.125C48.6149 28.535 49.2499 28.74 50.1199 28.74C50.9899 28.74 51.6199 28.535 52.0099 28.125C52.4099 27.705 52.6099 27.03 52.6099 26.1C52.6099 25.18 52.4099 24.51 52.0099 24.09C51.6199 23.67 50.9899 23.46 50.1199 23.46C49.2499 23.46 48.6149 23.67 48.2149 24.09C47.8249 24.51 47.6299 25.18 47.6299 26.1C47.6299 27.03 47.8249 27.705 48.2149 28.125ZM56.4108 23.04C57.0508 22.4 58.0658 22.08 59.4558 22.08C60.8458 22.08 61.8558 22.4 62.4858 23.04C63.1258 23.68 63.4458 24.7 63.4458 26.1C63.4458 27.51 63.1308 28.535 62.5008 29.175C61.8708 29.805 60.8558 30.12 59.4558 30.12C58.0558 30.12 57.0408 29.805 56.4108 29.175C55.7808 28.535 55.4658 27.51 55.4658 26.1C55.4658 24.7 55.7808 23.68 56.4108 23.04ZM56.9358 26.1C56.9358 27.02 57.1358 27.69 57.5358 28.11C57.9358 28.53 58.5758 28.74 59.4558 28.74C60.3358 28.74 60.9758 28.53 61.3758 28.11C61.7758 27.69 61.9758 27.02 61.9758 26.1C61.9758 25.17 61.7758 24.5 61.3758 24.09C60.9858 23.67 60.3458 23.46 59.4558 23.46C58.5658 23.46 57.9208 23.67 57.5208 24.09C57.1308 24.5 56.9358 25.17 56.9358 26.1ZM66.7161 30H65.2461V22.2H66.7161V25.41H71.2611V22.2H72.7311V30H71.2611V26.79H66.7161V30ZM76.428 30H74.958V22.2H76.428V25.41H78.303C78.393 24.25 78.748 23.405 79.368 22.875C79.988 22.345 80.928 22.08 82.188 22.08C83.558 22.08 84.553 22.4 85.173 23.04C85.793 23.68 86.103 24.7 86.103 26.1C86.103 27.51 85.793 28.535 85.173 29.175C84.553 29.805 83.558 30.12 82.188 30.12C80.928 30.12 79.988 29.855 79.368 29.325C78.748 28.795 78.393 27.95 78.303 26.79H76.428V30ZM79.743 26.1C79.743 27.02 79.938 27.69 80.328 28.11C80.718 28.53 81.338 28.74 82.188 28.74C83.048 28.74 83.668 28.53 84.048 28.11C84.438 27.69 84.633 27.02 84.633 26.1C84.633 25.17 84.438 24.5 84.048 24.09C83.668 23.67 83.048 23.46 82.188 23.46C81.328 23.46 80.703 23.67 80.313 24.09C79.933 24.5 79.743 25.17 79.743 26.1ZM87.9072 30V22.2H91.8972C92.8872 22.2 93.6072 22.365 94.0572 22.695C94.5072 23.025 94.7322 23.555 94.7322 24.285C94.7322 25.075 94.4772 25.63 93.9672 25.95C94.7172 26.27 95.0922 26.9 95.0922 27.84C95.0922 28.6 94.8622 29.15 94.4022 29.49C93.9422 29.83 93.1972 30 92.1672 30H87.9072ZM92.0322 26.595H89.3772V28.71H92.0322C92.5922 28.71 92.9972 28.63 93.2472 28.47C93.4972 28.3 93.6222 28.025 93.6222 27.645C93.6222 27.275 93.4972 27.01 93.2472 26.85C92.9972 26.68 92.5922 26.595 92.0322 26.595ZM89.3772 25.485H91.7172C92.2672 25.485 92.6622 25.405 92.9022 25.245C93.1422 25.085 93.2622 24.83 93.2622 24.48C93.2622 24.14 93.1372 23.89 92.8872 23.73C92.6472 23.57 92.2622 23.49 91.7322 23.49H89.3772V25.485ZM99.616 30.12C98.576 30.12 97.816 29.935 97.336 29.565C96.856 29.195 96.616 28.6 96.616 27.78C96.616 26.93 96.881 26.325 97.411 25.965C97.951 25.595 98.816 25.41 100.006 25.41H102.661C102.661 24.7 102.481 24.185 102.121 23.865C101.761 23.535 101.186 23.37 100.396 23.37C99.766 23.37 99.281 23.475 98.941 23.685C98.601 23.885 98.371 24.21 98.251 24.66H96.796C96.936 23.76 97.296 23.105 97.876 22.695C98.456 22.285 99.316 22.08 100.456 22.08C101.736 22.08 102.666 22.345 103.246 22.875C103.836 23.395 104.131 24.23 104.131 25.38V30H102.661V28.995C102.071 29.745 101.056 30.12 99.616 30.12ZM98.086 27.72C98.086 28.11 98.236 28.395 98.536 28.575C98.846 28.745 99.321 28.83 99.961 28.83C100.811 28.83 101.446 28.675 101.866 28.365C102.296 28.055 102.561 27.56 102.661 26.88V26.52H100.381C98.851 26.52 98.086 26.92 98.086 27.72ZM113.045 23.58H109.925V30H108.455V23.58H105.335V22.2H113.045V23.58ZM115.77 30H114.48V22.2H115.95V27.645L120.675 22.2H121.965V30H120.495V24.555L115.77 30ZM131.743 30.12C130.383 30.12 129.393 29.805 128.773 29.175C128.163 28.535 127.858 27.51 127.858 26.1C127.858 24.7 128.163 23.68 128.773 23.04C129.393 22.4 130.383 22.08 131.743 22.08C132.933 22.08 133.833 22.32 134.443 22.8C135.053 23.27 135.428 24.02 135.568 25.05H134.113C133.983 24.5 133.728 24.1 133.348 23.85C132.978 23.59 132.453 23.46 131.773 23.46C130.913 23.46 130.288 23.67 129.898 24.09C129.518 24.5 129.328 25.17 129.328 26.1C129.328 27.02 129.523 27.69 129.913 28.11C130.303 28.53 130.923 28.74 131.773 28.74C132.453 28.74 132.978 28.615 133.348 28.365C133.728 28.105 133.983 27.7 134.113 27.15H135.568C135.428 28.19 135.053 28.945 134.443 29.415C133.833 29.885 132.933 30.12 131.743 30.12ZM144.144 23.58H141.024V30H139.554V23.58H136.434V22.2H144.144V23.58ZM145.986 23.04C146.626 22.4 147.641 22.08 149.031 22.08C150.421 22.08 151.431 22.4 152.061 23.04C152.701 23.68 153.021 24.7 153.021 26.1C153.021 27.51 152.706 28.535 152.076 29.175C151.446 29.805 150.431 30.12 149.031 30.12C147.631 30.12 146.616 29.805 145.986 29.175C145.356 28.535 145.041 27.51 145.041 26.1C145.041 24.7 145.356 23.68 145.986 23.04ZM146.511 26.1C146.511 27.02 146.711 27.69 147.111 28.11C147.511 28.53 148.151 28.74 149.031 28.74C149.911 28.74 150.551 28.53 150.951 28.11C151.351 27.69 151.551 27.02 151.551 26.1C151.551 25.17 151.351 24.5 150.951 24.09C150.561 23.67 149.921 23.46 149.031 23.46C148.141 23.46 147.496 23.67 147.096 24.09C146.706 24.5 146.511 25.17 146.511 26.1ZM154.106 30V28.53H154.571C154.821 28.53 155.011 28.435 155.141 28.245C155.281 28.045 155.396 27.64 155.486 27.03C155.586 26.41 155.666 25.485 155.726 24.255L155.831 22.2H162.176V30H160.706V23.58H157.211L157.181 24.375C157.111 25.875 156.971 27.04 156.761 27.87C156.561 28.69 156.296 29.25 155.966 29.55C155.636 29.85 155.191 30 154.631 30H154.106ZM165.691 30H164.401V22.2H165.871V27.645L170.596 22.2H171.886V30H170.416V24.555L165.691 30ZM175.583 30H174.113V22.2H175.583V25.335H177.038L179.573 22.2H181.373L178.253 26.01L181.568 30H179.753L177.038 26.715H175.583V30Z" fill="#E59500"/>
<defs>
<filter id="filter0_f_133_1268" x="-2" y="0.25" width="209.75" height="48.5" filterUnits="userSpaceOnUse" color-interpolation-filters="sRGB">
<feFlood flood-opacity="0" result="BackgroundImageFix"/>
<feBlend mode="normal" in="SourceGraphic" in2="BackgroundImageFix" result="shape"/>
<feGaussianBlur stdDeviation="1" result="effect1_foregroundBlur_133_1268"/>
</filter>
</defs>
</svg>
