<svg width="37" height="21" viewBox="0 0 37 21" fill="none" xmlns="http://www.w3.org/2000/svg">
<path d="M9.876 6.6H11.124V11.268C11.124 12.196 11.34 12.872 11.772 13.296C12.212 13.712 12.908 13.92 13.86 13.92C14.82 13.92 15.516 13.712 15.948 13.296C16.38 12.872 16.596 12.196 16.596 11.268V6.6H17.844V11.376C17.844 12.68 17.528 13.628 16.896 14.22C16.272 14.804 15.26 15.096 13.86 15.096C12.468 15.096 11.456 14.804 10.824 14.22C10.192 13.628 9.876 12.68 9.876 11.376V6.6ZM20.3285 15H18.9965L22.8845 6.6H24.3125L28.2005 15H26.8805L26.0525 13.2L21.1565 13.212L20.3285 15ZM23.6045 7.896L21.6965 12.036L25.5125 12.024L23.6045 7.896Z" fill="#2D3F2F"/>
<rect x="0.75" y="0.75" width="35.5" height="19.5" rx="9.75" stroke="#2D3F2F" stroke-width="1.5"/>
</svg>
