<svg width="283" height="175" viewBox="0 0 283 175" fill="none" xmlns="http://www.w3.org/2000/svg">
<rect x="21" y="21" width="241" height="133" rx="10" fill="#A58E74"/>
<path d="M55 10C55 4.47715 59.4772 0 65 0H109C114.523 0 119 4.47715 119 10V11H55V10Z" fill="#A58E74"/>
<path d="M166 10C166 4.47715 170.477 0 176 0H220C225.523 0 230 4.47715 230 10V11H166V10Z" fill="#A58E74"/>
<path d="M273 56C278.523 56 283 60.4772 283 66V109C283 114.523 278.523 119 273 119H272V56H273Z" fill="#A58E74"/>
<path d="M120 165C120 170.523 115.523 175 110 175H66C60.4772 175 56 170.523 56 165V164H120V165Z" fill="#A58E74"/>
<path d="M230 165C230 170.523 225.523 175 220 175H176C170.477 175 166 170.523 166 165V164H230V165Z" fill="#A58E74"/>
<path d="M10 119C4.47715 119 0 114.523 0 109L0 66C0 60.4772 4.47715 56 10 56H11L11 119H10Z" fill="#A58E74"/>
</svg>
