<svg width="175" height="175" viewBox="0 0 175 175" fill="none" xmlns="http://www.w3.org/2000/svg">
<rect x="21" y="21" width="133" height="133" rx="10" fill="#A58E74"/>
<path d="M55 10C55 4.47715 59.4772 0 65 0H109C114.523 0 119 4.47715 119 10V11H55V10Z" fill="#A58E74"/>
<path d="M165 56C170.523 56 175 60.4772 175 66V109C175 114.523 170.523 119 165 119H164V56H165Z" fill="#A58E74"/>
<path d="M120 165C120 170.523 115.523 175 110 175H66C60.4772 175 56 170.523 56 165V164H120V165Z" fill="#A58E74"/>
<path d="M10 119C4.47715 119 0 114.523 0 109L0 66C0 60.4772 4.47715 56 10 56H11L11 119H10Z" fill="#A58E74"/>
</svg>
