<svg width="176" height="446" viewBox="0 0 176 446" fill="none" xmlns="http://www.w3.org/2000/svg">
<rect x="22" y="425" width="399" height="133" rx="10" transform="rotate(-90 22 425)" fill="#A58E74"/>
<path d="M165.76 80C171.283 80 175.76 84.4772 175.76 90V134C175.76 139.523 171.283 144 165.76 144H164.76V80H165.76Z" fill="#A58E74"/>
<path d="M165.76 80C171.283 80 175.76 84.4772 175.76 90V134C175.76 139.523 171.283 144 165.76 144H164.76V80H165.76Z" fill="#A58E74"/>
<path d="M166 190C171.523 190 176 194.477 176 200V244C176 249.523 171.523 254 166 254H165V190H166Z" fill="#A58E74"/>
<path d="M166 301C171.523 301 176 305.477 176 311V355C176 360.523 171.523 365 166 365H165V301H166Z" fill="#A58E74"/>
<path d="M121.715 436C121.715 441.523 117.238 446 111.715 446H68.7148C63.192 446 58.7148 441.523 58.7148 436V435H121.715V436Z" fill="#A58E74"/>
<path d="M10 144C4.47715 144 0 139.523 0 134L0 90C0 84.4772 4.47715 80 10 80H11L11 144H10Z" fill="#A58E74"/>
<path d="M11.5811 254.159C6.05821 254.159 1.58105 249.682 1.58105 244.159L1.58105 200.159C1.58105 194.636 6.05821 190.159 11.5811 190.159H12.5811L12.5811 254.159H11.5811Z" fill="#A58E74"/>
<path d="M12 365C6.47715 365 2 360.523 2 355L2 311C2 305.477 6.47715 301 12 301H13L13 365H12Z" fill="#A58E74"/>
<path d="M54.8057 10C54.8057 4.47715 59.2828 0 64.8057 0H107.806C113.329 0 117.806 4.47715 117.806 10V11H54.8057V10Z" fill="#A58E74"/>
</svg>
