<svg width="176" height="283" viewBox="0 0 176 283" fill="none" xmlns="http://www.w3.org/2000/svg">
<rect x="21.7598" y="261.986" width="241" height="133" rx="10" transform="rotate(-90 21.7598 261.986)" fill="#2D3F2F"/>
<path d="M165.76 53.813C171.283 53.813 175.76 58.2901 175.76 63.813V107.813C175.76 113.336 171.283 117.813 165.76 117.813H164.76V53.813H165.76Z" fill="#2D3F2F"/>
<path d="M165.76 164.802C171.283 164.802 175.76 169.279 175.76 174.802V218.802C175.76 224.325 171.283 228.802 165.76 228.802H164.76V164.802H165.76Z" fill="#2D3F2F"/>
<path d="M121.715 272.972C121.715 278.495 117.238 282.972 111.715 282.972H68.7148C63.192 282.972 58.7148 278.495 58.7148 272.972V271.972H121.715V272.972Z" fill="#2D3F2F"/>
<path d="M10 121.17C4.47715 121.17 0 116.693 0 111.17L0 67.1699C0 61.6471 4.47715 57.1699 10 57.1699H11L11 121.17H10Z" fill="#2D3F2F"/>
<path d="M11.5811 231.159C6.05821 231.159 1.58105 226.682 1.58105 221.159L1.58105 177.159C1.58105 171.636 6.05821 167.159 11.5811 167.159H12.5811L12.5811 231.159H11.5811Z" fill="#2D3F2F"/>
<path d="M54.8057 10C54.8057 4.47715 59.2828 0 64.8057 0H107.806C113.329 0 117.806 4.47715 117.806 10V11H54.8057V10Z" fill="#2D3F2F"/>
</svg>
