<svg width="56" height="16" viewBox="0 0 56 16" fill="none" xmlns="http://www.w3.org/2000/svg">
<path d="M1.00012 7C0.447837 7 0.00012207 7.44772 0.00012207 8C0.00012207 8.55228 0.447837 9 1.00012 9V7ZM54.858 8.70711C55.2485 8.31658 55.2485 7.68342 54.858 7.29289L48.494 0.928932C48.1035 0.538408 47.4703 0.538408 47.0798 0.928932C46.6893 1.31946 46.6893 1.95262 47.0798 2.34315L52.7366 8L47.0798 13.6569C46.6893 14.0474 46.6893 14.6805 47.0798 15.0711C47.4703 15.4616 48.1035 15.4616 48.494 15.0711L54.858 8.70711ZM1.00012 9H54.1509V7L1.00012 7V9Z" fill="black"/>
</svg>
