<svg width="56" height="16" viewBox="0 0 56 16" fill="none" xmlns="http://www.w3.org/2000/svg">
<path d="M54.1504 9C54.7027 9 55.1504 8.55228 55.1504 8C55.1504 7.44772 54.7027 7 54.1504 7V9ZM0.292553 7.29289C-0.0979691 7.68342 -0.0979691 8.31658 0.292553 8.70711L6.65651 15.0711C7.04704 15.4616 7.6802 15.4616 8.07073 15.0711C8.46125 14.6805 8.46125 14.0474 8.07073 13.6569L2.41388 8L8.07073 2.34315C8.46125 1.95262 8.46125 1.31946 8.07073 0.928932C7.6802 0.538408 7.04704 0.538408 6.65651 0.928932L0.292553 7.29289ZM54.1504 7L0.99966 7V9L54.1504 9V7Z" fill="black"/>
</svg>
