<svg width="20" height="19" viewBox="0 0 20 19" fill="none" xmlns="http://www.w3.org/2000/svg">
<path d="M8.46405 1.28193C8.64302 1.06723 8.86499 0.892429 9.11567 0.768795C9.36634 0.645162 9.64015 0.575444 9.91942 0.564137C10.1987 0.55283 10.4772 0.600186 10.7371 0.703151C10.9969 0.806115 11.2323 0.962401 11.4281 1.16193L11.5361 1.28193L15.4681 5.99993H18.4531C18.6629 5.99948 18.8705 6.04337 19.0622 6.12872C19.2539 6.21408 19.4255 6.33896 19.5656 6.49521C19.7057 6.65145 19.8112 6.83553 19.8752 7.03538C19.9392 7.23524 19.9603 7.44636 19.9371 7.65493L19.8451 8.42093L19.7451 9.16093L19.6631 9.71493L19.5681 10.3099L19.4601 10.9349L19.3381 11.5829L19.2021 12.2439C19.1301 12.5769 19.0531 12.9109 18.9701 13.2419C18.7487 14.1203 18.4708 14.9834 18.1381 15.8259L17.9171 16.3659L17.7031 16.8539L17.5011 17.2879L17.4071 17.4819L17.1581 17.9719C16.8381 18.5819 16.2341 18.9419 15.5951 18.9939L15.4351 18.9999H4.55505C4.20543 19.0027 3.86164 18.9103 3.56045 18.7328C3.25925 18.5552 3.01197 18.2991 2.84505 17.9919L2.61305 17.5419L2.43305 17.1719C2.401 17.1038 2.36934 17.0354 2.33805 16.9669L2.13805 16.5179C1.6815 15.4574 1.31097 14.3619 1.03005 13.2419C0.975791 13.0245 0.923788 12.8065 0.874054 12.5879L0.732054 11.9399L0.605053 11.3059L0.493053 10.6929L0.393053 10.1059L0.306053 9.55193L0.232054 9.03893L0.142053 8.35593L0.0760534 7.79993C0.0702882 7.74894 0.0646215 7.69794 0.0590535 7.64693C0.0380916 7.45042 0.0564842 7.2517 0.113158 7.06238C0.169831 6.87306 0.26365 6.69692 0.389137 6.54425C0.514625 6.39158 0.669267 6.26543 0.844037 6.17318C1.01881 6.08092 1.2102 6.02441 1.40705 6.00693L1.54305 5.99993H4.53205L8.46405 1.28193ZM17.8831 7.99993H2.11305L2.17505 8.48393L2.25105 9.03193L2.34305 9.63593L2.45105 10.2839C2.49105 10.5059 2.53205 10.7339 2.57705 10.9659L2.72005 11.6729C2.79605 12.0309 2.88005 12.3949 2.97005 12.7569C3.22396 13.7677 3.55837 14.7565 3.97005 15.7139L4.16605 16.1549L4.34805 16.5389L4.51105 16.8619L4.58305 16.9999H15.4101L15.5641 16.6969L15.7411 16.3319L15.9351 15.9089C16.3021 15.0839 16.7221 13.9909 17.0301 12.7569C17.1551 12.2569 17.2661 11.7489 17.3651 11.2499L17.5051 10.5119L17.6251 9.80293L17.6781 9.46393L17.7731 8.82693L17.8501 8.25693L17.8831 7.99993ZM7.98605 10.8359L8.48605 13.8359C8.52096 14.0936 8.45416 14.3547 8.2998 14.5639C8.14544 14.7731 7.91566 14.914 7.65918 14.9567C7.40271 14.9993 7.1397 14.9404 6.92593 14.7924C6.71215 14.6444 6.56442 14.419 6.51405 14.1639L6.01405 11.1639C5.98812 11.0326 5.98882 10.8974 6.0161 10.7664C6.04339 10.6353 6.09671 10.5111 6.1729 10.401C6.24909 10.291 6.3466 10.1973 6.45965 10.1256C6.5727 10.054 6.69899 10.0057 6.83103 9.98376C6.96308 9.96179 7.09819 9.96657 7.22835 9.99779C7.35852 10.029 7.48109 10.086 7.58881 10.1655C7.69652 10.245 7.78718 10.3453 7.85542 10.4604C7.92366 10.5756 7.96808 10.7033 7.98605 10.8359ZM13.0481 9.99993L13.1641 10.0129C13.4061 10.0529 13.625 10.1804 13.7792 10.3712C13.9333 10.5621 14.0119 10.8029 14.0001 11.0479L13.9871 11.1639L13.4871 14.1639C13.4446 14.415 13.308 14.6405 13.105 14.7944C12.9021 14.9482 12.6481 15.0188 12.3948 14.9917C12.1416 14.9647 11.9082 14.842 11.7423 14.6488C11.5764 14.4556 11.4905 14.2063 11.5021 13.9519L11.5151 13.8359L12.0151 10.8359C12.055 10.5942 12.1822 10.3756 12.3726 10.2215C12.563 10.0674 12.8034 9.98857 13.0481 9.99993ZM10.0001 2.56193L7.13505 5.99993H12.8651L10.0001 2.56193Z" fill="#313131"/>
</svg>
