<svg width="143" height="143" viewBox="0 0 143 143" fill="none" xmlns="http://www.w3.org/2000/svg">
<path d="M74 45C74 43.8954 73.1046 43 72 43C70.8954 43 70 43.8954 70 45H74ZM70.5858 99.4142C71.3668 100.195 72.6332 100.195 73.4142 99.4142L86.1421 86.6863C86.9232 85.9052 86.9232 84.6389 86.1421 83.8579C85.3611 83.0768 84.0948 83.0768 83.3137 83.8579L72 95.1716L60.6863 83.8579C59.9052 83.0768 58.6389 83.0768 57.8579 83.8579C57.0768 84.6389 57.0768 85.9052 57.8579 86.6863L70.5858 99.4142ZM70 45V98H74V45H70Z" fill="#2D3F2F"/>
<circle cx="71.5" cy="71.5" r="69.5" stroke="#2D3F2F" stroke-width="4"/>
</svg>
