<svg width="12" height="16" viewBox="0 0 12 16" fill="none" xmlns="http://www.w3.org/2000/svg">
<path d="M6 8C6.4125 8 6.76575 7.853 7.05975 7.559C7.35375 7.265 7.5005 6.912 7.5 6.5C7.5 6.0875 7.353 5.73425 7.059 5.44025C6.765 5.14625 6.412 4.9995 6 5C5.5875 5 5.23425 5.147 4.94025 5.441C4.64625 5.735 4.4995 6.088 4.5 6.5C4.5 6.9125 4.647 7.26575 4.941 7.55975C5.235 7.85375 5.588 8.0005 6 8ZM6 13.5125C7.525 12.1125 8.65625 10.8405 9.39375 9.6965C10.1312 8.5525 10.5 7.537 10.5 6.65C10.5 5.2875 10.0655 4.172 9.1965 3.3035C8.3275 2.435 7.262 2.0005 6 2C4.7375 2 3.67175 2.4345 2.80275 3.3035C1.93375 4.1725 1.4995 5.288 1.5 6.65C1.5 7.5375 1.86875 8.55325 2.60625 9.69725C3.34375 10.8412 4.475 12.113 6 13.5125ZM6 15.5C3.9875 13.7875 2.4845 12.197 1.491 10.7285C0.4975 9.26 0.0005 7.9005 0 6.65C0 4.775 0.60325 3.28125 1.80975 2.16875C3.01625 1.05625 4.413 0.5 6 0.5C7.5875 0.5 8.9845 1.05625 10.191 2.16875C11.3975 3.28125 12.0005 4.775 12 6.65C12 7.9 11.503 9.2595 10.509 10.7285C9.515 12.1975 8.012 13.788 6 15.5Z" fill="#FFEFCD"/>
</svg>
