<svg width="240" height="103" viewBox="0 0 240 103" fill="none" xmlns="http://www.w3.org/2000/svg">
<path d="M0.19851 8.6352C0.19851 6.78244 0.744414 5.2109 1.83622 3.92058C2.92803 2.59718 4.35069 1.62117 6.1042 0.992551C7.85771 0.33085 9.74356 0 11.7617 0C13.813 0 15.765 0.33085 17.6178 0.992551C19.4706 1.65425 20.9759 2.61372 22.1339 3.87095C23.2919 5.12818 23.8709 6.61701 23.8709 8.33744C23.8709 9.46233 23.4573 10.3722 22.6302 11.067C21.8361 11.7287 20.8932 12.0595 19.8014 12.0595C19.0074 12.0595 18.263 11.8775 17.5682 11.5136C16.8734 11.1166 16.3606 10.5541 16.0297 9.82626C15.8974 9.5285 15.8312 9.19765 15.8312 8.83371C15.8312 8.23818 16.0297 7.77499 16.4267 7.44414C16.8568 7.08021 17.3366 6.96441 17.8659 7.09675C18.1968 7.196 18.4284 7.32834 18.5607 7.49377C18.7262 7.65919 18.9081 7.90733 19.1066 8.23818C19.2721 8.56903 19.4375 8.81717 19.6029 8.9826C19.8014 9.14802 20.1157 9.23073 20.5458 9.23073C21.373 9.23073 21.7865 8.6352 21.7865 7.44414C21.7865 5.3267 20.8767 3.70553 19.057 2.58063C17.2704 1.42266 15.1364 0.843666 12.655 0.843666C10.2067 0.843666 8.07276 1.37303 6.25308 2.43175C4.46649 3.49047 3.57319 4.91313 3.57319 6.69973C3.57319 8.15547 4.03638 9.39616 4.96276 10.4218C5.88914 11.4474 7.01404 12.2911 8.33744 12.9528C9.69393 13.6145 11.5632 14.4085 13.9454 15.3349C16.4598 16.2944 18.4946 17.1712 20.0496 17.9652C21.6046 18.7262 22.9114 19.7518 23.9701 21.0421C25.0619 22.2993 25.6078 23.8543 25.6078 25.7071C25.6078 27.7915 24.9627 29.5781 23.6724 31.0669C22.4151 32.5557 20.7609 33.6806 18.7096 34.4416C16.6583 35.2025 14.4913 35.583 12.2084 35.583C10.0579 35.583 8.05622 35.2521 6.20345 34.5904C4.35069 33.8957 2.84532 32.8866 1.68734 31.5632C0.562446 30.2398 0 28.6351 0 26.7493C0 25.4259 0.413563 24.3175 1.24069 23.4242C2.06782 22.5309 3.01074 22.0843 4.06946 22.0843C4.89659 22.0843 5.64101 22.2828 6.30271 22.6798C6.99749 23.0438 7.51031 23.5897 7.84116 24.3175C7.9735 24.6153 8.03967 24.9461 8.03967 25.3101C8.03967 25.9056 7.82462 26.3853 7.39452 26.7493C6.99749 27.0801 6.5343 27.1794 6.00494 27.047C5.64101 26.9478 5.37632 26.832 5.2109 26.6997C5.07856 26.5342 4.94622 26.3026 4.81388 26.0049C4.64845 25.7071 4.48303 25.492 4.3176 25.3597C4.15218 25.2274 3.85441 25.1612 3.42431 25.1612C3.02728 25.1612 2.71298 25.4259 2.48138 25.9552C2.24979 26.4846 2.16707 27.1298 2.23324 27.8907C2.43175 30.2067 3.39122 31.9436 5.11164 33.1016C6.86515 34.2596 8.9826 34.8386 11.464 34.8386C13.2175 34.8386 14.9214 34.5408 16.5756 33.9453C18.2299 33.3498 19.5698 32.5061 20.5955 31.4143C21.6542 30.3225 22.1835 29.0652 22.1835 27.6426C22.1835 26.0214 21.6873 24.6484 20.6947 23.5235C19.7352 22.3986 18.5442 21.4888 17.1215 20.794C15.6989 20.0661 13.7799 19.2555 11.3647 18.3622C8.91643 17.4689 6.94787 16.6583 5.45904 15.9305C3.97021 15.2026 2.71298 14.2431 1.68734 13.0521C0.694787 11.861 0.19851 10.3887 0.19851 8.6352Z" fill="#2D3F2F"/>
<path d="M52.9496 35.1363C52.6849 35.1363 51.957 35.1363 50.7659 35.1363C49.608 35.1363 48.8305 34.9378 48.4335 34.5408C48.0695 34.1107 47.8875 33.449 47.8875 32.5557V28.0892C47.0604 30.2398 45.6708 32.0098 43.7188 33.3994C41.7999 34.789 39.6328 35.4837 37.2176 35.4837C34.9678 35.4837 33.0489 34.8882 31.4608 33.6971C29.8727 32.473 29.0787 30.7691 29.0787 28.5855C29.0787 27.2621 29.4426 26.1537 30.1705 25.2605C30.9314 24.3672 31.8578 23.6558 32.9496 23.1265C34.0414 22.5971 35.4972 22.0181 37.3169 21.3895C39.1696 20.7278 40.493 20.1984 41.2871 19.8014C45.0919 17.8825 46.9943 16.0132 46.9943 14.1935C46.9943 13.7303 46.8619 13.2671 46.5972 12.8039C45.4723 11.0835 43.6196 10.2233 41.0389 10.2233C39.9471 10.2233 38.8057 10.3887 37.6146 10.7196C36.4567 11.0504 35.4806 11.5467 34.6866 12.2084C33.8926 12.837 33.4955 13.5814 33.4955 14.4416C33.4955 15.0372 33.6444 15.5334 33.9422 15.9305C34.273 16.3275 34.637 16.526 35.034 16.526C35.4641 16.526 35.7619 16.4433 35.9273 16.2779C36.0927 16.1124 36.2581 15.8643 36.4236 15.5334C36.589 15.2026 36.7544 14.9545 36.9198 14.789C37.0853 14.6236 37.3499 14.4913 37.7139 14.392C38.2102 14.2928 38.6568 14.4416 39.0538 14.8387C39.4509 15.2026 39.6494 15.7154 39.6494 16.3771C39.6494 16.5425 39.6163 16.7907 39.5501 17.1215C39.3185 17.9487 38.8388 18.5938 38.1109 19.057C37.383 19.5202 36.5725 19.7518 35.6792 19.7518C34.5873 19.7518 33.6444 19.4044 32.8504 18.7096C32.0894 18.0148 31.7089 16.9892 31.7089 15.6327C31.7089 14.574 32.1391 13.5814 32.9993 12.655C33.8926 11.7287 35.0505 10.9842 36.4732 10.4218C37.9289 9.85935 39.4509 9.57813 41.0389 9.57813C44.7445 9.57813 47.474 10.2564 49.2275 11.6129C50.981 12.9363 51.8578 15.153 51.8578 18.263V32.3076C51.8578 33.0024 51.9074 33.5317 52.0066 33.8957C52.139 34.2265 52.4202 34.3754 52.8503 34.3423L52.9496 35.1363ZM39.4012 33.3001C40.8901 33.3001 42.2796 32.9031 43.5699 32.1091C44.8933 31.315 45.9355 30.2232 46.6965 28.8336C47.4905 27.411 47.8875 25.8394 47.8875 24.119V18.263C47.8875 16.9065 47.7552 15.7816 47.4905 14.8883C47.1928 16.708 45.2242 18.5773 41.5848 20.4962L39.5005 21.5384C38.0778 22.2332 36.9529 22.8287 36.1258 23.325C35.3318 23.8213 34.6535 24.4499 34.0911 25.2108C33.5617 25.9718 33.297 26.8816 33.297 27.9403C33.297 29.6939 33.8595 31.0338 34.9844 31.9602C36.1423 32.8535 37.6146 33.3001 39.4012 33.3001Z" fill="#2D3F2F"/>
<path d="M79.8981 20.5458C80.0305 21.2406 80.0966 22.0347 80.0966 22.928C80.0966 25.3101 79.5673 27.4441 78.5086 29.3299C77.4498 31.1827 76.0768 32.6384 74.3895 33.6971C72.7021 34.7228 70.9486 35.2356 69.1289 35.2356C67.1108 35.2356 65.3738 34.6897 63.918 33.5979C62.4954 32.473 61.4863 30.9676 60.8908 29.0818V45.8559C60.8908 46.3522 60.9735 46.7658 61.1389 47.0966C61.3043 47.4275 61.5028 47.6094 61.7344 47.6425L61.8833 48.4862H55.928L56.0769 47.6425C56.3085 47.6094 56.507 47.4275 56.6724 47.0966C56.8378 46.7658 56.9205 46.3522 56.9205 45.8559V16.3771C56.9205 15.8808 56.8378 15.4673 56.6724 15.1364C56.507 14.8056 56.3085 14.6236 56.0769 14.5905L55.928 13.7468C56.722 13.5814 57.6484 13.1348 58.7071 12.4069C59.7659 11.6459 60.4772 10.9512 60.8411 10.3225H60.8908V16.0793C61.6186 14.2266 62.727 12.7708 64.2158 11.7121C65.7377 10.6203 67.4251 10.0744 69.2778 10.0744C72.1231 10.0744 74.4887 11.067 76.3746 13.0521C78.2604 15.0041 79.4349 17.502 79.8981 20.5458ZM67.789 33.9949C70.3365 33.9949 72.3051 32.9858 73.6947 30.9676C75.0843 28.9494 75.779 26.4184 75.779 23.3746C75.779 22.9114 75.746 22.2166 75.6798 21.2902C75.3489 18.3457 74.4887 15.9305 73.0992 14.0446C71.7096 12.1257 70.0388 11.1662 68.0868 11.1662C66.9619 11.1662 65.8701 11.5301 64.8113 12.258C63.7526 12.9859 62.8593 13.9784 62.1314 15.2357C61.4367 16.4929 61.0231 17.899 60.8908 19.454V22.3821C61.3209 21.1579 61.966 20.2315 62.8262 19.6029C63.6865 18.9743 64.5963 18.66 65.5558 18.66C66.4821 18.66 67.2431 18.875 67.8386 19.3051C68.4342 19.7352 68.8477 20.3473 69.0793 21.1414C69.1455 21.4722 69.1786 21.7038 69.1786 21.8361C69.1786 22.3655 69.0131 22.7791 68.6823 23.0768C68.3845 23.3746 68.0206 23.5235 67.5905 23.5235C67.0942 23.5235 66.7303 23.3746 66.4987 23.0768C66.3002 22.7791 66.1182 22.349 65.9528 21.7865C65.7543 21.2241 65.5558 20.8271 65.3572 20.5955C65.1918 20.3308 64.9106 20.1984 64.5136 20.1984C63.9842 20.1984 63.4549 20.43 62.9255 20.8932C62.4292 21.3233 62.0156 21.9354 61.6848 22.7294C61.3539 23.5235 61.1885 24.4168 61.1885 25.4093C61.1885 27.0305 61.4697 28.5028 62.0322 29.8262C62.6277 31.1165 63.4218 32.1421 64.4143 32.9031C65.44 33.631 66.5648 33.9949 67.789 33.9949Z" fill="#2D3F2F"/>
<path d="M108.515 20.5458C108.648 21.2406 108.714 22.0347 108.714 22.928C108.714 24.9131 108.284 26.7824 107.424 28.5359C106.597 30.2894 105.405 31.7617 103.85 32.9527C102.329 34.1107 100.558 34.8551 98.5403 35.186C97.8786 35.3183 97.1507 35.3845 96.3567 35.3845C94.4046 35.3845 92.5684 34.9378 90.848 34.0445C89.1276 33.1512 87.6718 31.9106 86.4808 30.3225C85.3228 28.7013 84.5784 26.8651 84.2475 24.8138C84.1152 24.119 84.049 23.325 84.049 22.4317C84.049 20.4466 84.4626 18.5938 85.2897 16.8734C86.1499 15.1199 87.341 13.6476 88.8629 12.4565C90.4179 11.2655 92.188 10.5045 94.173 10.1737C94.8348 10.0413 95.5626 9.97515 96.3567 9.97515C98.3418 9.97515 100.195 10.4383 101.915 11.3647C103.635 12.258 105.075 13.5153 106.233 15.1364C107.424 16.7245 108.185 18.5276 108.515 20.5458ZM97.3492 34.6401C98.838 34.6401 100.128 34.1769 101.22 33.2505C102.345 32.3241 103.189 31.0834 103.751 29.5284C104.347 27.9403 104.644 26.2199 104.644 24.3672C104.644 23.1761 104.562 22.1505 104.396 21.2902C104.065 19.5037 103.487 17.8329 102.659 16.2779C101.865 14.7229 100.906 13.4656 99.781 12.5062C99.1854 12.1091 98.4741 11.9106 97.647 11.9106C96.5883 11.9106 95.5626 12.2249 94.5701 12.8535C93.6106 13.4491 92.9654 14.2431 92.6346 15.2357C92.4692 15.7981 92.3865 16.2944 92.3865 16.7245C92.3865 17.5516 92.585 18.296 92.982 18.9577C93.379 19.5864 93.9249 19.9999 94.6197 20.1984C94.8844 20.2646 95.0498 20.2977 95.116 20.2977C95.6453 20.2977 96.2905 20.0165 97.0515 19.454C97.8455 18.9247 98.4741 18.66 98.9373 18.66C99.3674 18.66 99.7313 18.7923 100.029 19.057C100.327 19.3217 100.476 19.6525 100.476 20.0496C100.476 20.5789 100.244 21.0752 99.781 21.5384C99.1524 22.1339 98.3252 22.4317 97.2996 22.4317C96.5055 22.4317 95.6288 22.2166 94.6693 21.7865C93.7099 21.3233 92.9654 20.6782 92.4361 19.851C91.9398 19.0239 91.6917 18.0975 91.6917 17.0719C91.6917 16.2779 91.824 15.5665 92.0887 14.9379C92.5188 13.7799 93.3294 12.8701 94.5204 12.2084C95.7446 11.5467 96.9687 11.2986 98.1929 11.464C97.2665 11.0008 96.3236 10.7692 95.3641 10.7692C93.8753 10.7692 92.5684 11.2324 91.4435 12.1588C90.3517 13.0851 89.5081 14.3258 88.9125 15.8808C88.3501 17.4358 88.0689 19.1397 88.0689 20.9925C88.0689 21.985 88.1681 23.0107 88.3666 24.0694C88.7306 26.0214 89.3426 27.808 90.2028 29.4292C91.0961 31.0173 92.1549 32.291 93.379 33.2505C94.6362 34.1769 95.9596 34.6401 97.3492 34.6401Z" fill="#2D3F2F"/>
<path d="M125.446 10.2233C126.968 10.2233 128.258 10.6865 129.317 11.6129C130.375 12.5062 130.905 13.7303 130.905 15.2853C130.905 16.6087 130.491 17.6509 129.664 18.4118C128.837 19.1397 127.861 19.5036 126.736 19.5036C125.909 19.5036 125.165 19.3051 124.503 18.9081C123.841 18.5111 123.361 17.9156 123.064 17.1215C122.931 16.8238 122.865 16.4929 122.865 16.129C122.865 15.5334 123.064 15.0702 123.461 14.7394C123.891 14.3755 124.371 14.2597 124.9 14.392C125.231 14.4913 125.462 14.6236 125.595 14.789C125.76 14.9545 125.942 15.2026 126.141 15.5334C126.306 15.8643 126.471 16.1124 126.637 16.2779C126.835 16.4433 127.15 16.526 127.58 16.526C127.977 16.526 128.324 16.3275 128.622 15.9305C128.953 15.5334 129.118 15.0372 129.118 14.4416C129.118 13.5814 128.771 12.8039 128.076 12.1091C127.414 11.4143 126.538 11.067 125.446 11.067C123.924 11.067 122.518 11.679 121.227 12.9032C119.97 14.0942 118.978 15.7154 118.25 17.7667C117.522 19.818 117.158 22.0181 117.158 24.3672V32.5061C117.158 33.0024 117.241 33.4159 117.406 33.7468C117.572 34.0776 117.77 34.2596 118.002 34.2927L118.151 35.1363H112.195L112.344 34.2927C112.576 34.2596 112.774 34.0776 112.94 33.7468C113.105 33.4159 113.188 33.0024 113.188 32.5061V16.3771C113.188 15.8808 113.105 15.4673 112.94 15.1364C112.774 14.8056 112.576 14.6236 112.344 14.5905L112.195 13.7468C112.989 13.5814 113.916 13.1348 114.974 12.4069C116.033 11.6459 116.744 10.9512 117.108 10.3225H117.158V18.2133C117.886 15.8643 118.961 13.9454 120.384 12.4565C121.806 10.9677 123.494 10.2233 125.446 10.2233Z" fill="#2D3F2F"/>
<path d="M140.299 35.1363H134.344L134.492 34.2927C134.724 34.2596 134.922 34.0776 135.088 33.7468C135.253 33.4159 135.336 33.0024 135.336 32.5061V16.3771C135.336 15.8808 135.253 15.4673 135.088 15.1364C134.922 14.8056 134.724 14.6236 134.492 14.5905L134.344 13.7468C135.138 13.5814 136.064 13.1348 137.123 12.4069C138.181 11.6459 138.893 10.9512 139.257 10.3225H139.306V32.5061C139.306 33.0024 139.389 33.4159 139.554 33.7468C139.72 34.0776 139.918 34.2596 140.15 34.2927L140.299 35.1363Z" fill="#2D3F2F"/>
<path d="M131.782 74.9508C130.988 75.1163 130.061 75.5795 129.003 76.3404C127.944 77.0683 127.233 77.7465 126.869 78.3751H126.819V72.6183C126.224 74.5042 125.231 76.0096 123.841 77.1344C122.452 78.2263 120.781 78.7722 118.829 78.7722C116.877 78.7722 115.041 78.2097 113.32 77.0848C111.6 75.9599 110.227 74.438 109.201 72.5191C108.176 70.5671 107.663 68.4496 107.663 66.1667C107.663 65.472 107.712 64.7772 107.812 64.0824C108.242 61.0716 109.4 58.5737 111.286 56.5886C113.205 54.6035 115.587 53.611 118.432 53.611C120.285 53.611 121.956 54.1569 123.444 55.2487C124.966 56.3074 126.091 57.7631 126.819 59.6159V46.5638C126.819 46.0676 126.736 45.654 126.571 45.3232C126.406 44.9923 126.207 44.8103 125.975 44.7773L125.827 43.9336C126.621 43.7682 127.547 43.3215 128.606 42.5936C129.664 41.8327 130.376 41.1379 130.74 40.5093H130.789V72.3206C130.789 72.8168 130.872 73.2304 131.037 73.5613C131.203 73.8921 131.401 74.0741 131.633 74.1072L131.782 74.9508ZM120.119 67.06C119.689 67.06 119.309 66.9112 118.978 66.6134C118.68 66.2825 118.531 65.869 118.531 65.3727C118.531 65.2404 118.564 65.0088 118.631 64.6779C118.862 63.8839 119.276 63.2718 119.871 62.8417C120.467 62.4116 121.228 62.1965 122.154 62.1965C123.114 62.1965 124.023 62.5108 124.884 63.1395C125.744 63.7681 126.389 64.6945 126.819 65.9186V62.9906C126.687 61.4356 126.257 60.0295 125.529 58.7722C124.834 57.515 123.957 56.5225 122.899 55.7946C121.84 55.0667 120.748 54.7028 119.623 54.7028C117.671 54.7028 116 55.6622 114.611 57.5812C113.221 59.467 112.361 61.8822 112.03 64.8268C111.964 65.7532 111.931 66.448 111.931 66.9112C111.931 69.955 112.626 72.486 114.015 74.5042C115.405 76.5224 117.373 77.5315 119.921 77.5315C121.145 77.5315 122.253 77.1675 123.246 76.4397C124.272 75.6787 125.066 74.6531 125.628 73.3628C126.224 72.0394 126.521 70.5671 126.521 68.9459C126.521 67.9533 126.356 67.06 126.025 66.266C125.694 65.472 125.264 64.8599 124.735 64.4298C124.238 63.9666 123.726 63.735 123.196 63.735C122.799 63.735 122.501 63.8673 122.303 64.132C122.138 64.3636 121.956 64.7606 121.757 65.3231C121.592 65.8855 121.393 66.3156 121.162 66.6134C120.963 66.9112 120.616 67.06 120.119 67.06Z" fill="#2D3F2F"/>
<path d="M139.557 49.343C139.292 50.2694 138.663 51.2123 137.671 52.1718C136.711 53.0981 135.768 53.7433 134.842 54.1072L134.743 54.0576C135.272 53.5283 135.537 52.6846 135.537 51.5266C135.537 50.9972 135.438 50.0874 135.239 48.7971C135.206 48.4993 135.189 48.1023 135.189 47.606C135.189 46.8451 135.338 46.2826 135.636 45.9187C135.934 45.5548 136.496 45.1908 137.323 44.8269C137.621 45.1908 137.77 45.7863 137.77 46.6135C137.77 48.003 137.406 49.5746 136.678 51.3281C137.77 49.8062 138.316 48.3008 138.316 46.812C138.316 46.051 138.151 45.3397 137.82 44.678C138.481 45.1081 138.978 45.5547 139.309 46.0179C139.639 46.4811 139.805 47.0767 139.805 47.8045C139.805 48.1685 139.722 48.6813 139.557 49.343Z" fill="#2D3F2F"/>
<path d="M145.766 51.2785C145.137 51.2785 144.608 51.08 144.178 50.6829C143.78 50.2528 143.582 49.7235 143.582 49.0949C143.582 48.4993 143.78 48.003 144.178 47.606C144.608 47.1759 145.137 46.9609 145.766 46.9609C146.361 46.9609 146.857 47.1759 147.254 47.606C147.685 48.003 147.9 48.4993 147.9 49.0949C147.9 49.7235 147.685 50.2528 147.254 50.6829C146.857 51.08 146.361 51.2785 145.766 51.2785ZM148.743 78.6729H142.788L142.937 77.8292C143.168 77.7962 143.367 77.6142 143.532 77.2833C143.698 76.9525 143.78 76.5389 143.78 76.0426V59.9137C143.78 59.4174 143.698 59.0038 143.532 58.673C143.367 58.3421 143.168 58.1602 142.937 58.1271L142.788 57.2834C143.582 57.118 144.508 56.6713 145.567 55.9435C146.626 55.1825 147.337 54.4877 147.701 53.8591H147.751V76.0426C147.751 76.5389 147.833 76.9525 147.999 77.2833C148.164 77.6142 148.363 77.7962 148.594 77.8292L148.743 78.6729Z" fill="#2D3F2F"/>
<path d="M158.405 72.1221C158.67 71.328 159.116 70.7325 159.745 70.3355C160.407 69.9384 161.151 69.7399 161.978 69.7399C163.103 69.7399 164.096 70.1204 164.956 70.8814C165.816 71.6092 166.246 72.6349 166.246 73.9583C166.246 75.4802 165.667 76.6878 164.509 77.5811C163.351 78.4744 161.962 78.9376 160.341 78.9707C155.246 79.1692 152.698 75.8276 152.698 68.9459V56.539C152.698 56.0427 152.615 55.6292 152.45 55.2983C152.284 54.9675 152.086 54.7855 151.854 54.7524L151.705 53.9087C152.731 53.5448 153.724 52.6846 154.683 51.3281C155.643 49.9716 156.288 48.7971 156.619 47.8045H156.668V53.8591H163.318V54.7524H156.668V72.1221C156.668 74.0079 157.032 75.4967 157.76 76.5886C158.488 77.6473 159.497 78.1766 160.787 78.1766C161.879 78.1766 162.756 77.8292 163.418 77.1344C164.112 76.4397 164.46 75.6622 164.46 74.802C164.46 74.2064 164.294 73.7101 163.963 73.3131C163.666 72.9161 163.318 72.7176 162.921 72.7176C162.491 72.7176 162.177 72.8003 161.978 72.9657C161.813 73.1312 161.647 73.3793 161.482 73.7101C161.284 74.041 161.102 74.2891 160.936 74.4546C160.804 74.62 160.572 74.7523 160.241 74.8516C159.712 74.9839 159.249 74.8847 158.852 74.5538C158.455 74.1899 158.256 73.6936 158.256 73.065C158.256 72.7672 158.306 72.4529 158.405 72.1221Z" fill="#2D3F2F"/>
<path d="M194.041 78.6729C193.777 78.6729 193.049 78.6729 191.858 78.6729C190.7 78.6729 189.922 78.4744 189.525 78.0774C189.161 77.6473 188.979 76.9856 188.979 76.0923V71.6258C188.152 73.7763 186.763 75.5464 184.811 76.9359C182.892 78.3255 180.725 79.0203 178.309 79.0203C176.06 79.0203 174.141 78.4248 172.552 77.2337C170.964 76.0096 170.17 74.3057 170.17 72.1221C170.17 70.7987 170.534 69.6903 171.262 68.797C172.023 67.9037 172.95 67.1924 174.041 66.663C175.133 66.1337 176.589 65.5547 178.409 64.9261C180.261 64.2644 181.585 63.735 182.379 63.338C186.184 61.419 188.086 59.5497 188.086 57.7301C188.086 57.2669 187.954 56.8037 187.689 56.3405C186.564 54.6201 184.711 53.7598 182.131 53.7598C181.039 53.7598 179.897 53.9253 178.706 54.2561C177.548 54.587 176.572 55.0833 175.778 55.745C174.984 56.3736 174.587 57.118 174.587 57.9782C174.587 58.5737 174.736 59.07 175.034 59.467C175.365 59.864 175.729 60.0626 176.126 60.0626C176.556 60.0626 176.854 59.9798 177.019 59.8144C177.184 59.649 177.35 59.4009 177.515 59.07C177.681 58.7392 177.846 58.491 178.012 58.3256C178.177 58.1602 178.442 58.0278 178.806 57.9286C179.302 57.8293 179.748 57.9782 180.146 58.3752C180.543 58.7392 180.741 59.252 180.741 59.9137C180.741 60.0791 180.708 60.3272 180.642 60.6581C180.41 61.4852 179.93 62.1304 179.203 62.5936C178.475 63.0568 177.664 63.2883 176.771 63.2883C175.679 63.2883 174.736 62.941 173.942 62.2462C173.181 61.5514 172.801 60.5257 172.801 59.1693C172.801 58.1105 173.231 57.118 174.091 56.1916C174.984 55.2652 176.142 54.5208 177.565 53.9584C179.021 53.3959 180.543 53.1147 182.131 53.1147C185.836 53.1147 188.566 53.7929 190.319 55.1494C192.073 56.4728 192.949 58.6895 192.949 61.7995V75.8441C192.949 76.5389 192.999 77.0683 193.098 77.4322C193.231 77.7631 193.512 77.9119 193.942 77.8789L194.041 78.6729ZM180.493 76.8367C181.982 76.8367 183.371 76.4397 184.662 75.6456C185.985 74.8516 187.027 73.7598 187.788 72.3702C188.582 70.9475 188.979 69.376 188.979 67.6556V61.7995C188.979 60.443 188.847 59.3181 188.582 58.4248C188.284 60.2445 186.316 62.1138 182.677 64.0328L180.592 65.0749C179.17 65.7697 178.045 66.3653 177.217 66.8615C176.423 67.3578 175.745 67.9864 175.183 68.7474C174.653 69.5083 174.389 70.4182 174.389 71.4769C174.389 73.2304 174.951 74.5704 176.076 75.4967C177.234 76.39 178.706 76.8367 180.493 76.8367Z" fill="#2D3F2F"/>
<path d="M202.975 103L197.02 98.1347L197.169 97.291C197.4 97.258 197.599 97.076 197.764 96.7451C197.93 96.4143 198.012 96.0007 198.012 95.5045V73.4669V51.4293C198.012 50.933 197.93 50.5195 197.764 50.1886C197.599 49.8578 197.4 49.6758 197.169 49.6427L197.02 48.799C197.814 48.6336 198.74 48.187 199.799 47.4591C200.858 46.6981 201.569 46.0033 201.933 45.3747H201.982V70.4396V99.6038C201.982 100.1 202.065 100.514 202.231 100.845C202.396 101.175 202.595 101.357 202.826 101.39L202.975 103Z" fill="#E59500"/>
<path d="M208.915 51.2785C208.286 51.2785 207.757 51.08 207.327 50.6829C206.93 50.2528 206.731 49.7235 206.731 49.0949C206.731 48.4993 206.93 48.003 207.327 47.606C207.757 47.1759 208.286 46.9609 208.915 46.9609C209.51 46.9609 210.007 47.1759 210.404 47.606C210.834 48.003 211.049 48.4993 211.049 49.0949C211.049 49.7235 210.834 50.2528 210.404 50.6829C210.007 51.08 209.51 51.2785 208.915 51.2785ZM211.892 78.6729H205.937L206.086 77.8292C206.318 77.7962 206.516 77.6142 206.682 77.2833C206.847 76.9525 206.93 76.5389 206.93 76.0426V59.9137C206.93 59.4174 206.847 59.0038 206.682 58.673C206.516 58.3421 206.318 58.1602 206.086 58.1271L205.937 57.2834C206.731 57.118 207.658 56.6713 208.716 55.9435C209.775 55.1825 210.486 54.4877 210.85 53.8591H210.9V76.0426C210.9 76.5389 210.983 76.9525 211.148 77.2833C211.313 77.6142 211.512 77.7962 211.744 77.8292L211.892 78.6729Z" fill="#2D3F2F"/>
<path d="M239.21 78.6729C238.945 78.6729 238.218 78.6729 237.027 78.6729C235.869 78.6729 235.091 78.4744 234.694 78.0774C234.33 77.6473 234.148 76.9856 234.148 76.0923V71.6258C233.321 73.7763 231.931 75.5464 229.979 76.9359C228.06 78.3255 225.893 79.0203 223.478 79.0203C221.228 79.0203 219.309 78.4248 217.721 77.2337C216.133 76.0096 215.339 74.3057 215.339 72.1221C215.339 70.7987 215.703 69.6903 216.431 68.797C217.192 67.9037 218.118 67.1924 219.21 66.663C220.302 66.1337 221.758 65.5547 223.577 64.9261C225.43 64.2644 226.754 63.735 227.548 63.338C231.352 61.419 233.255 59.5497 233.255 57.7301C233.255 57.2669 233.122 56.8037 232.858 56.3405C231.733 54.6201 229.88 53.7598 227.299 53.7598C226.208 53.7598 225.066 53.9253 223.875 54.2561C222.717 54.587 221.741 55.0833 220.947 55.745C220.153 56.3736 219.756 57.118 219.756 57.9782C219.756 58.5737 219.905 59.07 220.203 59.467C220.534 59.864 220.898 60.0626 221.295 60.0626C221.725 60.0626 222.022 59.9798 222.188 59.8144C222.353 59.649 222.519 59.4009 222.684 59.07C222.85 58.7392 223.015 58.491 223.18 58.3256C223.346 58.1602 223.611 58.0278 223.974 57.9286C224.471 57.8293 224.917 57.9782 225.314 58.3752C225.711 58.7392 225.91 59.252 225.91 59.9137C225.91 60.0791 225.877 60.3272 225.811 60.6581C225.579 61.4852 225.099 62.1304 224.371 62.5936C223.644 63.0568 222.833 63.2883 221.94 63.2883C220.848 63.2883 219.905 62.941 219.111 62.2462C218.35 61.5514 217.97 60.5257 217.97 59.1693C217.97 58.1105 218.4 57.118 219.26 56.1916C220.153 55.2652 221.311 54.5208 222.734 53.9584C224.19 53.3959 225.711 53.1147 227.299 53.1147C231.005 53.1147 233.735 53.7929 235.488 55.1494C237.242 56.4728 238.118 58.6895 238.118 61.7995V75.8441C238.118 76.5389 238.168 77.0683 238.267 77.4322C238.4 77.7631 238.681 77.9119 239.111 77.8789L239.21 78.6729ZM225.662 76.8367C227.151 76.8367 228.54 76.4397 229.831 75.6456C231.154 74.8516 232.196 73.7598 232.957 72.3702C233.751 70.9475 234.148 69.376 234.148 67.6556V61.7995C234.148 60.443 234.016 59.3181 233.751 58.4248C233.453 60.2445 231.485 62.1138 227.845 64.0328L225.761 65.0749C224.338 65.7697 223.214 66.3653 222.386 66.8615C221.592 67.3578 220.914 67.9864 220.352 68.7474C219.822 69.5083 219.558 70.4182 219.558 71.4769C219.558 73.2304 220.12 74.5704 221.245 75.4967C222.403 76.39 223.875 76.8367 225.662 76.8367Z" fill="#2D3F2F"/>
<path d="M135.526 4.81187C136.09 4.01401 137.008 3.32233 138.279 2.73684C139.507 2.17192 140.626 1.8706 141.634 1.83289L141.712 1.91367C141.028 2.24282 140.492 2.96153 140.103 4.06979C139.926 4.57643 139.715 5.48049 139.472 6.78197C139.404 7.07804 139.287 7.46357 139.12 7.93854C138.865 8.66683 138.534 9.15521 138.127 9.40369C137.72 9.65216 137.06 9.81189 136.147 9.88288C135.984 9.43474 136.042 8.81485 136.319 8.02323C136.785 6.69331 137.661 5.31126 138.945 3.87707C137.39 4.96759 136.363 6.2253 135.864 7.65021C135.608 8.3785 135.528 9.11476 135.622 9.85898C135.134 9.22548 134.809 8.63162 134.648 8.07738C134.487 7.52314 134.529 6.89771 134.773 6.20109C134.895 5.85278 135.146 5.3897 135.526 4.81187Z" fill="#2D3F2F"/>
<path d="M197.64 37.5564C198.374 36.5181 199.568 35.6181 201.222 34.8562C202.821 34.1211 204.276 33.729 205.587 33.6799L205.689 33.785C204.799 34.2133 204.102 35.1486 203.596 36.5907C203.365 37.25 203.091 38.4264 202.775 40.1199C202.686 40.5052 202.533 41.0068 202.317 41.6249C201.984 42.5726 201.554 43.2081 201.024 43.5314C200.495 43.8548 199.636 44.0626 198.448 44.155C198.236 43.5719 198.311 42.7652 198.672 41.7351C199.279 40.0046 200.418 38.2062 202.089 36.3399C200.066 37.759 198.729 39.3956 198.079 41.2498C197.747 42.1974 197.642 43.1555 197.765 44.1239C197.129 43.2996 196.707 42.5268 196.497 41.8056C196.288 41.0844 196.342 40.2706 196.66 39.3641C196.819 38.9109 197.146 38.3083 197.64 37.5564Z" fill="#E59500"/>
</svg>
