<svg width="13" height="15" viewBox="0 0 13 15" fill="none" xmlns="http://www.w3.org/2000/svg">
<path d="M2.01836 5.76893C2.96451 4.43491 4.50582 3.27979 6.64228 2.30358C8.70691 1.36168 10.587 0.86076 12.2826 0.800824L12.4146 0.936308C11.2652 1.48521 10.3655 2.68679 9.71542 4.54105C9.41824 5.38871 9.06725 6.90165 8.66244 9.07986C8.54854 9.57534 8.35228 10.2204 8.07368 11.0151C7.64648 12.2336 7.09105 13.0502 6.4074 13.4649C5.72374 13.8797 4.61399 14.145 3.07816 14.2609C2.80312 13.5101 2.89778 12.4725 3.36212 11.148C4.14221 8.9229 5.61033 6.6118 7.76648 4.21472C5.15448 6.03555 3.43057 8.13799 2.59476 10.522C2.16756 11.7405 2.03453 12.973 2.19567 14.2193C1.37191 13.1571 0.823739 12.1618 0.551162 11.2334C0.278585 10.3049 0.346608 9.25794 0.75523 8.09241C0.959541 7.50964 1.38059 6.73515 2.01836 5.76893Z" fill="#156521"/>
</svg>
