<svg width="73" height="16" viewBox="0 0 73 16" fill="none" xmlns="http://www.w3.org/2000/svg">
<path d="M1.28613 7C0.733848 7 0.286133 7.44772 0.286133 8C0.286133 8.55228 0.733848 9 1.28613 9V7ZM71.9932 8.70711C72.3838 8.31658 72.3838 7.68342 71.9932 7.29289L65.6293 0.928932C65.2388 0.538408 64.6056 0.538408 64.2151 0.928932C63.8245 1.31946 63.8245 1.95262 64.2151 2.34315L69.8719 8L64.2151 13.6569C63.8245 14.0474 63.8245 14.6805 64.2151 15.0711C64.6056 15.4616 65.2388 15.4616 65.6293 15.0711L71.9932 8.70711ZM1.28613 9H71.2861V7H1.28613V9Z" fill="#313131"/>
</svg>
