<svg width="282" height="280" viewBox="0 0 282 280" fill="none" xmlns="http://www.w3.org/2000/svg">
<ellipse cx="140.571" cy="140" rx="140.571" ry="140" fill="#E59500"/>
<path d="M56.516 124H47.848V108.6H60.564V110.756H50.136V114.694H56.516C58.364 114.694 59.706 115.061 60.542 115.794C61.378 116.527 61.796 117.708 61.796 119.336C61.796 120.964 61.378 122.152 60.542 122.9C59.706 123.633 58.364 124 56.516 124ZM56.384 116.85H50.136V121.844H56.384C57.484 121.844 58.2833 121.646 58.782 121.25C59.2807 120.854 59.53 120.216 59.53 119.336C59.53 118.456 59.2807 117.825 58.782 117.444C58.2833 117.048 57.484 116.85 56.384 116.85ZM64.6488 124V108.6H66.9368V124H64.6488ZM69.7849 124V121.712H70.5769C71.0023 121.712 71.3323 121.543 71.5669 121.206C71.8163 120.869 72.0436 120.062 72.2489 118.786C72.4543 117.51 72.6156 115.633 72.7329 113.154L72.9309 108.6H84.4369V124H82.1489V110.756H75.0869L74.9769 113.374C74.8449 116.249 74.6249 118.441 74.3169 119.952C74.0236 121.463 73.6056 122.519 73.0629 123.12C72.5203 123.707 71.7576 124 70.7749 124H69.7849ZM88.1312 108.6H90.4192V114.364H95.7872C97.6352 114.364 98.9772 114.745 99.8132 115.508C100.649 116.271 101.067 117.495 101.067 119.182C101.067 120.869 100.649 122.093 99.8132 122.856C98.9772 123.619 97.6352 124 95.7872 124H88.1312V108.6ZM95.6552 116.52H90.4192V121.844H95.6552C96.7552 121.844 97.5545 121.631 98.0532 121.206C98.5519 120.781 98.8012 120.106 98.8012 119.182C98.8012 118.243 98.5519 117.569 98.0532 117.158C97.5545 116.733 96.7552 116.52 95.6552 116.52ZM103.922 124V108.6H106.21V121.844H113.338V108.6H115.626V121.844H122.754V108.6H125.042V124H103.922ZM141.387 124H128.737V108.6H141.387V110.756H131.025V115.288H140.287V117.312H131.025V121.844H141.387V124ZM47.848 154V138.6H62.544V154H60.256V140.756H50.136V154H47.848ZM66.2386 154V138.6H73.8946C75.7426 138.6 77.0846 138.989 77.9206 139.766C78.7566 140.543 79.1746 141.797 79.1746 143.528C79.1746 145.259 78.7566 146.513 77.9206 147.29C77.0846 148.067 75.7426 148.456 73.8946 148.456H68.5266V154H66.2386ZM68.5266 146.3H73.7626C74.8626 146.3 75.662 146.08 76.1606 145.64C76.6593 145.2 76.9086 144.496 76.9086 143.528C76.9086 142.56 76.6593 141.856 76.1606 141.416C75.662 140.976 74.8626 140.756 73.7626 140.756H68.5266V146.3ZM83.1547 140.294C84.4014 139.047 86.4034 138.424 89.1607 138.424C91.9181 138.424 93.9201 139.047 95.1667 140.294C96.4134 141.541 97.0367 143.543 97.0367 146.3C97.0367 149.057 96.4134 151.059 95.1667 152.306C93.9201 153.553 91.9181 154.176 89.1607 154.176C86.4034 154.176 84.4014 153.553 83.1547 152.306C81.9081 151.059 81.2847 149.057 81.2847 146.3C81.2847 143.543 81.9081 141.541 83.1547 140.294ZM84.8927 141.944C84.0127 142.839 83.5727 144.291 83.5727 146.3C83.5727 148.309 84.0127 149.769 84.8927 150.678C85.7874 151.573 87.2101 152.02 89.1607 152.02C91.1114 152.02 92.5267 151.573 93.4067 150.678C94.3014 149.769 94.7487 148.309 94.7487 146.3C94.7487 144.291 94.3014 142.839 93.4067 141.944C92.5267 141.035 91.1114 140.58 89.1607 140.58C87.2101 140.58 85.7874 141.035 84.8927 141.944ZM107.368 152.306C106.121 151.059 105.498 149.057 105.498 146.3C105.498 143.543 106.121 141.541 107.368 140.294C108.614 139.047 110.616 138.424 113.374 138.424C115.676 138.424 117.444 138.857 118.676 139.722C119.908 140.573 120.692 141.929 121.03 143.792H118.676C118.353 142.677 117.759 141.863 116.894 141.35C116.043 140.837 114.87 140.58 113.374 140.58C111.423 140.58 110 141.035 109.106 141.944C108.226 142.839 107.786 144.291 107.786 146.3C107.786 148.309 108.226 149.769 109.106 150.678C110 151.573 111.423 152.02 113.374 152.02C114.87 152.02 116.043 151.763 116.894 151.25C117.759 150.737 118.353 149.923 118.676 148.808H121.03C120.692 150.671 119.908 152.035 118.676 152.9C117.444 153.751 115.676 154.176 113.374 154.176C110.616 154.176 108.614 153.553 107.368 152.306ZM137.38 140.756H130.912V154H128.624V140.756H122.156V138.6H137.38V140.756ZM139.866 154V138.6H147.522C149.37 138.6 150.712 138.989 151.548 139.766C152.384 140.543 152.802 141.797 152.802 143.528C152.802 145.259 152.384 146.513 151.548 147.29C150.712 148.067 149.37 148.456 147.522 148.456H142.154V154H139.866ZM142.154 146.3H147.39C148.49 146.3 149.289 146.08 149.788 145.64C150.286 145.2 150.536 144.496 150.536 143.528C150.536 142.56 150.286 141.856 149.788 141.416C149.289 140.976 148.49 140.756 147.39 140.756H142.154V146.3ZM155.274 154H152.832L159.96 138.6H162.578L169.706 154H167.286L165.768 150.7L156.792 150.722L155.274 154ZM161.28 140.976L157.782 148.566L164.778 148.544L161.28 140.976ZM172.071 154V138.6H180.519C182.205 138.6 183.43 138.923 184.193 139.568C184.97 140.213 185.359 141.233 185.359 142.626C185.359 144.313 184.809 145.449 183.709 146.036C185.161 146.579 185.887 147.84 185.887 149.82C185.887 151.287 185.505 152.35 184.743 153.01C183.98 153.67 182.748 154 181.047 154H172.071ZM174.359 151.844H181.047C181.985 151.844 182.667 151.661 183.093 151.294C183.533 150.913 183.753 150.311 183.753 149.49C183.753 148.683 183.533 148.097 183.093 147.73C182.667 147.349 181.985 147.158 181.047 147.158H174.359V151.844ZM174.359 145.134H180.453C181.465 145.134 182.176 144.965 182.587 144.628C183.012 144.276 183.225 143.711 183.225 142.934C183.225 142.171 183.005 141.621 182.565 141.284C182.139 140.932 181.457 140.756 180.519 140.756H174.359V145.134ZM194.314 150.524L187.164 138.6H189.76L195.524 148.368L200.914 138.6H203.444L196.47 151.052C195.913 152.093 195.26 152.849 194.512 153.318C193.779 153.773 192.87 154 191.784 154H190.134V152.152H191.63C192.745 152.152 193.64 151.609 194.314 150.524Z" fill="#FFEFCD"/>
<path d="M227.342 170.07C227.782 169.629 227.782 168.915 227.342 168.475L220.164 161.297C219.724 160.857 219.01 160.857 218.569 161.297C218.129 161.738 218.129 162.452 218.569 162.892L224.949 169.272L218.569 175.652C218.129 176.093 218.129 176.807 218.569 177.247C219.01 177.688 219.724 177.688 220.164 177.247L227.342 170.07ZM46.3184 170.4H226.544V168.144H46.3184V170.4Z" fill="#FFEFCD"/>
</svg>
